<?xml version="1.0" encoding="UTF-8"?><svg id="Capa_1" xmlns="http://www.w3.org/2000/svg" width="75.62" height="24.22" viewBox="0 0 75.62 24.22"><defs><style>.cls-1{stroke-linecap:round;}.cls-1,.cls-2{fill:none;stroke:#1d1d1b;stroke-width:.3px;}.cls-3{fill:#e30613;}.cls-3,.cls-4{stroke-width:0px;}.cls-4{fill:#fff;}</style></defs><path class="cls-4" d="M34.34,17.79V7.74c0-.57-.69-1.1-1.13-1.17,0,0-2.58-.48-6.21.22-.56.17-.56.48-.69.86l-1.04,3.23s-.11.24-.22.24c-.09,0-6.71,1.12-9.19,1.54-.57.1-.92.51-.92.97s0,5.47,0,5.47c0,0,6.87-1.42,7.82-.27h2.31v-.25l9.26-.8Z"/><path class="cls-2" d="M34.34,17.79V7.74c0-.57-.69-1.1-1.13-1.17,0,0-2.58-.48-6.21.22-.56.17-.56.48-.69.86l-1.04,3.23s-.11.24-.22.24c-.09,0-6.71,1.12-9.19,1.54-.57.1-.92.51-.92.97s0,5.47,0,5.47c0,0,6.87-1.42,7.82-.27h2.31v-.25l9.26-.8Z"/><polygon class="cls-4" points="60.91 19.34 60.91 18.48 59.35 17.79 25.07 17.79 25.07 19.34 60.91 19.34"/><polygon class="cls-2" points="60.91 19.34 60.91 18.48 59.35 17.79 25.07 17.79 25.07 19.34 60.91 19.34"/><path class="cls-4" d="M60.75,20.05s-.92-3.23-3.97-3.23-4.02,3.13-4.02,3.81h-1.13s-.78-3.79-4.05-3.79-4.04,3.58-4.04,3.58l9.03,1.1,8.18-1.48Z"/><path class="cls-4" d="M28.02,16.92c-.48,0-.87-.39-.87-.86v-5.28l.65-2.73c.13-.39.47-.39.82-.39h3.55c.48,0,.87.39.87.87v7.53c0,.48-.39.86-.87.86h-4.15Z"/><path class="cls-2" d="M28.02,16.92c-.48,0-.87-.39-.87-.86v-5.28l.65-2.73c.13-.39.47-.39.82-.39h3.55c.48,0,.87.39.87.87v7.53c0,.48-.39.86-.87.86h-4.15Z"/><path class="cls-4" d="M25.32,10.97h1.03c.12,0,.26-.04.35-.31l.64-2.56c.03-.17-.11-.33-.27-.33h-.78l-.96,3.19Z"/><path class="cls-2" d="M25.32,10.97h1.03c.12,0,.26-.04.35-.31l.64-2.56c.03-.17-.11-.33-.27-.33h-.78l-.96,3.19Z"/><path class="cls-4" d="M27.97,10.97c-.29,0-.5-.19-.43-.54l.48-2.06c.11-.41.43-.39.72-.39h3.42c.29,0,.52.23.52.52v2.16c0,.21-.02.31-.22.31h-4.48Z"/><path class="cls-2" d="M27.97,10.97c-.29,0-.5-.19-.43-.54l.48-2.06c.11-.41.43-.39.72-.39h3.42c.29,0,.52.23.52.52v2.16c0,.21-.02.31-.22.31h-4.48Z"/><line class="cls-2" x1="15.83" y1="12.68" x2="15.83" y2="18.45"/><polygon class="cls-4" points="16.22 18.04 16.22 19.66 16.19 19.77 16.13 19.84 16.06 19.89 15.96 19.89 14.81 19.44 14.72 19.4 14.63 19.35 14.58 19.3 14.56 19.21 14.56 18.04 16.22 18.04"/><polygon class="cls-2" points="16.22 18.04 16.22 19.66 16.19 19.77 16.13 19.84 16.06 19.89 15.96 19.89 14.81 19.44 14.72 19.4 14.63 19.35 14.58 19.3 14.56 19.21 14.56 18.04 16.22 18.04"/><path class="cls-4" d="M23.29,20.36s-.18-3.5-3.83-3.5c-2.5,0-3.54,1.41-3.9,2.44-.16.47-.38.92-.38.92l8.1.15Z"/><line class="cls-2" x1="15.83" y1="13.56" x2="25.08" y2="13.56"/><path class="cls-4" d="M24.74,21.8c.37,0,.39-.47.39-.47,0,0,.14-1.47.24-2.24.1-.77.65-.7.65-.7v-.36h-3.5c.74.9,1.12,2.05,1.12,3.31,0,.16,0,.31-.02.46h1.13Z"/><path class="cls-2" d="M24.74,21.8c.37,0,.39-.47.39-.47,0,0,.14-1.47.24-2.24.1-.77.65-.7.65-.7v-.36h-3.5c.74.9,1.12,2.05,1.12,3.31,0,.16,0,.31-.02.46h1.13Z"/><rect class="cls-4" x="27.84" y="18.87" width="5.19" height="2.98"/><rect class="cls-2" x="27.84" y="18.87" width="5.19" height="2.98"/><path class="cls-4" d="M34.99,22.27c-.23-.42-.38-1.06-.38-1.77s.15-1.36.39-1.78h7.34c.24.42.39,1.07.39,1.78s-.15,1.34-.38,1.77h-7.36Z"/><path class="cls-2" d="M34.99,22.27c-.23-.42-.38-1.06-.38-1.77s.15-1.36.39-1.78h7.34c.24.42.39,1.07.39,1.78s-.15,1.34-.38,1.77h-7.36Z"/><rect class="cls-4" x="36.16" y="18.6" width=".59" height="3.79"/><rect class="cls-2" x="36.16" y="18.6" width=".59" height="3.79"/><rect class="cls-4" x="40.77" y="18.6" width=".59" height="3.79"/><rect class="cls-2" x="40.77" y="18.6" width=".59" height="3.79"/><line class="cls-2" x1="25.07" y1="18.04" x2="25.07" y2="11.12"/><line class="cls-2" x1="29.21" y1="7.98" x2="29.21" y2="10.97"/><path class="cls-4" d="M34.34,18.03c0,.23-.2.47-.43.47s-.41-.19-.41-.41V4.42s.83.41.83.41v13.2Z"/><path class="cls-1" d="M34.34,18.03c0,.23-.2.47-.43.47s-.41-.19-.41-.41V4.42s.83.41.83.41v13.2Z"/><path class="cls-3" d="M50.77,20.92c0,1.74-1.41,3.14-3.14,3.14s-3.14-1.41-3.14-3.14,1.41-3.14,3.14-3.14,3.14,1.41,3.14,3.14"/><path class="cls-4" d="M47.63,17.12c2.1,0,3.8,1.7,3.8,3.8h.5c0-2.38-1.93-4.3-4.3-4.3s-4.31,1.93-4.31,4.3h.51c0-2.1,1.7-3.8,3.8-3.8"/><path class="cls-2" d="M47.63,17.12c2.1,0,3.8,1.7,3.8,3.8h.5c0-2.38-1.93-4.3-4.3-4.3s-4.31,1.93-4.31,4.3h.51c0-2.1,1.7-3.8,3.8-3.8Z"/><path class="cls-3" d="M59.9,20.92c0,1.74-1.4,3.14-3.14,3.14s-3.14-1.41-3.14-3.14,1.41-3.14,3.14-3.14,3.14,1.41,3.14,3.14"/><path class="cls-4" d="M56.76,17.12c2.1,0,3.8,1.7,3.8,3.8h.5c0-2.38-1.93-4.3-4.3-4.3s-4.3,1.93-4.3,4.3h.5c0-2.1,1.7-3.8,3.8-3.8"/><path class="cls-2" d="M56.76,17.12c2.1,0,3.8,1.7,3.8,3.8h.5c0-2.38-1.93-4.3-4.3-4.3s-4.3,1.93-4.3,4.3h.5c0-2.1,1.7-3.8,3.8-3.8Z"/><path class="cls-3" d="M22.41,20.92c0,1.74-1.41,3.14-3.14,3.14s-3.14-1.41-3.14-3.14,1.41-3.14,3.14-3.14,3.14,1.41,3.14,3.14"/><path class="cls-4" d="M19.26,17.12c2.1,0,3.8,1.7,3.8,3.8h.5c0-2.38-1.93-4.3-4.3-4.3s-4.3,1.93-4.3,4.3h.5c0-2.1,1.7-3.8,3.8-3.8"/><path class="cls-2" d="M19.26,17.12c2.1,0,3.8,1.7,3.8,3.8h.5c0-2.38-1.93-4.3-4.3-4.3s-4.3,1.93-4.3,4.3h.5c0-2.1,1.7-3.8,3.8-3.8Z"/></svg>