<?xml version="1.0" encoding="UTF-8"?><svg id="Capa_1" xmlns="http://www.w3.org/2000/svg" width="47.74" height="20.37" viewBox="0 0 47.74 20.37"><defs><style>.cls-1{stroke-linecap:round;}.cls-1,.cls-2{fill:none;stroke:#1d1d1b;stroke-width:.3px;}.cls-3{fill:#e30613;}.cls-3,.cls-4{stroke-width:0px;}.cls-4{fill:#fff;}</style></defs><path class="cls-4" d="M20.39,13.93V3.89c0-.57-.69-1.1-1.13-1.17,0,0-2.58-.48-6.21.22-.56.17-.56.48-.69.86l-1.04,3.23s-.11.24-.22.24c-.09,0-6.71,1.12-9.19,1.54-.57.1-.92.51-.92.97s0,5.47,0,5.47c0,0,6.87-1.42,7.82-.27h2.31v-.25l9.26-.8Z"/><path class="cls-2" d="M20.39,13.93V3.89c0-.57-.69-1.1-1.13-1.17,0,0-2.58-.48-6.21.22-.56.17-.56.48-.69.86l-1.04,3.23s-.11.24-.22.24c-.09,0-6.71,1.12-9.19,1.54-.57.1-.92.51-.92.97s0,5.47,0,5.47c0,0,6.87-1.42,7.82-.27h2.31v-.25l9.26-.8Z"/><polygon class="cls-4" points="46.97 15.49 46.97 14.63 45.41 13.93 11.13 13.93 11.13 15.49 46.97 15.49"/><polygon class="cls-2" points="46.97 15.49 46.97 14.63 45.41 13.93 11.13 13.93 11.13 15.49 46.97 15.49"/><path class="cls-4" d="M46.81,16.2s-.92-3.23-3.97-3.23-4.02,3.13-4.02,3.81h-1.13s-.78-3.79-4.05-3.79-4.04,3.58-4.04,3.58l9.03,1.1,8.18-1.48Z"/><path class="cls-4" d="M14.07,13.07c-.48,0-.87-.39-.87-.86v-5.28l.65-2.73c.13-.39.47-.39.82-.39h3.55c.48,0,.87.39.87.87v7.53c0,.48-.39.86-.87.86h-4.15Z"/><path class="cls-2" d="M14.07,13.07c-.48,0-.87-.39-.87-.86v-5.28l.65-2.73c.13-.39.47-.39.82-.39h3.55c.48,0,.87.39.87.87v7.53c0,.48-.39.86-.87.86h-4.15Z"/><path class="cls-4" d="M11.38,7.12h1.03c.12,0,.26-.04.35-.31l.64-2.56c.03-.17-.11-.33-.27-.33h-.78l-.96,3.19Z"/><path class="cls-2" d="M11.38,7.12h1.03c.12,0,.26-.04.35-.31l.64-2.56c.03-.17-.11-.33-.27-.33h-.78l-.96,3.19Z"/><path class="cls-4" d="M14.03,7.12c-.29,0-.5-.19-.43-.54l.48-2.06c.11-.41.43-.39.72-.39h3.42c.29,0,.52.23.52.52v2.16c0,.21-.02.31-.22.31h-4.48Z"/><path class="cls-2" d="M14.03,7.12c-.29,0-.5-.19-.43-.54l.48-2.06c.11-.41.43-.39.72-.39h3.42c.29,0,.52.23.52.52v2.16c0,.21-.02.31-.22.31h-4.48Z"/><line class="cls-2" x1="1.89" y1="8.83" x2="1.89" y2="14.6"/><polygon class="cls-4" points="2.27 14.18 2.27 15.81 2.25 15.91 2.19 15.99 2.11 16.04 2.02 16.04 .87 15.58 .77 15.55 .69 15.5 .64 15.45 .62 15.35 .62 14.18 2.27 14.18"/><polygon class="cls-2" points="2.27 14.18 2.27 15.81 2.25 15.91 2.19 15.99 2.11 16.04 2.02 16.04 .87 15.58 .77 15.55 .69 15.5 .64 15.45 .62 15.35 .62 14.18 2.27 14.18"/><path class="cls-4" d="M9.35,16.51s-.18-3.5-3.83-3.5c-2.5,0-3.54,1.41-3.9,2.44-.16.47-.38.92-.38.92l8.1.15Z"/><line class="cls-2" x1="1.89" y1="9.71" x2="11.14" y2="9.71"/><path class="cls-4" d="M10.8,17.95c.37,0,.39-.47.39-.47,0,0,.14-1.47.24-2.24.1-.77.65-.7.65-.7v-.36h-3.5c.74.9,1.12,2.05,1.12,3.31,0,.16,0,.31-.02.46h1.13Z"/><path class="cls-2" d="M10.8,17.95c.37,0,.39-.47.39-.47,0,0,.14-1.47.24-2.24.1-.77.65-.7.65-.7v-.36h-3.5c.74.9,1.12,2.05,1.12,3.31,0,.16,0,.31-.02.46h1.13Z"/><rect class="cls-4" x="13.9" y="15.02" width="5.19" height="2.98"/><rect class="cls-2" x="13.9" y="15.02" width="5.19" height="2.98"/><path class="cls-4" d="M21.05,18.41c-.23-.42-.38-1.06-.38-1.77s.15-1.36.39-1.78h7.34c.24.42.39,1.07.39,1.78s-.15,1.34-.38,1.77h-7.36Z"/><path class="cls-2" d="M21.05,18.41c-.23-.42-.38-1.06-.38-1.77s.15-1.36.39-1.78h7.34c.24.42.39,1.07.39,1.78s-.15,1.34-.38,1.77h-7.36Z"/><rect class="cls-4" x="22.22" y="14.74" width=".59" height="3.79"/><rect class="cls-2" x="22.22" y="14.74" width=".59" height="3.79"/><rect class="cls-4" x="26.82" y="14.74" width=".59" height="3.79"/><rect class="cls-2" x="26.82" y="14.74" width=".59" height="3.79"/><line class="cls-2" x1="11.13" y1="14.18" x2="11.13" y2="7.27"/><line class="cls-2" x1="15.26" y1="4.13" x2="15.26" y2="7.12"/><path class="cls-4" d="M20.39,14.18c0,.23-.2.47-.43.47s-.41-.19-.41-.41V.56s.83.41.83.41v13.2Z"/><path class="cls-1" d="M20.39,14.18c0,.23-.2.47-.43.47s-.41-.19-.41-.41V.56s.83.41.83.41v13.2Z"/><path class="cls-3" d="M36.83,17.07c0,1.74-1.41,3.14-3.14,3.14s-3.14-1.41-3.14-3.14,1.41-3.14,3.14-3.14,3.14,1.41,3.14,3.14"/><path class="cls-4" d="M33.69,13.27c2.1,0,3.8,1.7,3.8,3.8h.5c0-2.38-1.93-4.3-4.3-4.3s-4.31,1.93-4.31,4.3h.51c0-2.1,1.7-3.8,3.8-3.8"/><path class="cls-2" d="M33.69,13.27c2.1,0,3.8,1.7,3.8,3.8h.5c0-2.38-1.93-4.3-4.3-4.3s-4.31,1.93-4.31,4.3h.51c0-2.1,1.7-3.8,3.8-3.8Z"/><path class="cls-3" d="M45.96,17.07c0,1.74-1.4,3.14-3.14,3.14s-3.14-1.41-3.14-3.14,1.41-3.14,3.14-3.14,3.14,1.41,3.14,3.14"/><path class="cls-4" d="M42.82,13.27c2.1,0,3.8,1.7,3.8,3.8h.5c0-2.38-1.93-4.3-4.3-4.3s-4.3,1.93-4.3,4.3h.5c0-2.1,1.7-3.8,3.8-3.8"/><path class="cls-2" d="M42.82,13.27c2.1,0,3.8,1.7,3.8,3.8h.5c0-2.38-1.93-4.3-4.3-4.3s-4.3,1.93-4.3,4.3h.5c0-2.1,1.7-3.8,3.8-3.8Z"/><path class="cls-3" d="M8.46,17.07c0,1.74-1.41,3.14-3.14,3.14s-3.14-1.41-3.14-3.14,1.41-3.14,3.14-3.14,3.14,1.41,3.14,3.14"/><path class="cls-4" d="M5.32,13.27c2.1,0,3.8,1.7,3.8,3.8h.5c0-2.38-1.93-4.3-4.3-4.3s-4.3,1.93-4.3,4.3h.5c0-2.1,1.7-3.8,3.8-3.8"/><path class="cls-2" d="M5.32,13.27c2.1,0,3.8,1.7,3.8,3.8h.5c0-2.38-1.93-4.3-4.3-4.3s-4.3,1.93-4.3,4.3h.5c0-2.1,1.7-3.8,3.8-3.8Z"/></svg>