<?xml version="1.0" encoding="UTF-8"?><svg id="Capa_1" xmlns="http://www.w3.org/2000/svg" width="47.2" height="20.67" viewBox="0 0 47.2 20.67"><defs><style>.cls-1{fill:none;stroke:#1d1d1b;stroke-width:.3px;}.cls-2{fill:#e30613;}.cls-2,.cls-3,.cls-4{stroke-width:0px;}.cls-3{fill:#706f6f;}.cls-4{fill:#fff;}</style></defs><polygon class="cls-4" points="45.76 13.61 45.92 12.27 2.32 12.29 2.24 12.29 2.26 17.43 21.13 17.43 21.13 16.43 32.46 16.43 33.11 17.18 44.48 17.03 44.48 18.26 45.26 18.24 45.23 15.53 45.76 14.45 45.76 13.61"/><polygon class="cls-1" points="45.76 13.61 45.92 12.27 2.32 12.29 2.24 12.29 2.26 17.43 21.13 17.43 21.13 16.43 32.46 16.43 33.11 17.18 44.48 17.03 44.48 18.26 45.26 18.24 45.23 15.53 45.76 14.45 45.76 13.61"/><polygon class="cls-4" points="1.02 12.67 1.02 9.94 2.14 8.56 2.41 4.5 2.47 4.23 2.52 3.98 2.62 3.76 2.74 3.55 2.89 3.4 3.07 3.31 3.29 3.22 3.55 3.2 13.29 2.73 14.14 3.58 14.14 15.28 13.79 17.34 12.59 17.34 12.23 15.18 11.41 13.82 5.98 13.75 5.05 17.08 2.52 16.93 2.22 15.28 1.09 15.28 1.02 12.67"/><polygon class="cls-1" points="1.02 12.67 1.02 9.94 2.14 8.56 2.41 4.5 2.47 4.23 2.52 3.98 2.62 3.76 2.74 3.55 2.89 3.4 3.07 3.31 3.29 3.22 3.55 3.2 13.29 2.73 14.14 3.58 14.14 15.28 13.79 17.34 12.59 17.34 12.23 15.18 11.41 13.82 5.98 13.75 5.05 17.08 2.52 16.93 2.22 15.28 1.09 15.28 1.02 12.67"/><path class="cls-4" d="M3.21,4.23v.07s-.38,4.67-.4,5c0,.13-.14.23-.27.33-.16.12-.32.24-.32.44v7.05h3s.89-3.17.89-3.17l2.58-.18V4.24H3.21Z"/><path class="cls-1" d="M3.21,4.23v.07s-.38,4.67-.4,5c0,.13-.14.23-.27.33-.16.12-.32.24-.32.44v7.05h3s.89-3.17.89-3.17l2.58-.18V4.24H3.21Z"/><polygon class="cls-4" points="2.57 15.75 1.92 15.75 1.04 15.75 .86 15.73 .67 15.65 .52 15.5 .46 15.33 .46 12.99 .52 12.82 .64 12.67 .81 12.57 .99 12.54 2.14 12.54 2.29 12.59 2.45 12.75 2.52 12.92 2.57 13.04 2.57 15.75"/><polygon class="cls-1" points="2.57 15.75 1.92 15.75 1.04 15.75 .86 15.73 .67 15.65 .52 15.5 .46 15.33 .46 12.99 .52 12.82 .64 12.67 .81 12.57 .99 12.54 2.14 12.54 2.29 12.59 2.45 12.75 2.52 12.92 2.57 13.04 2.57 15.75"/><polygon class="cls-4" points="2.62 15.73 2.62 17.33 2.6 17.43 2.55 17.5 2.47 17.56 2.39 17.56 1.24 17.11 1.17 17.08 1.09 17.02 1.04 16.95 1.02 16.88 1.02 15.73 2.62 15.73"/><polygon class="cls-1" points="2.62 15.73 2.62 17.33 2.6 17.43 2.55 17.5 2.47 17.56 2.39 17.56 1.24 17.11 1.17 17.08 1.09 17.02 1.04 16.95 1.02 16.88 1.02 15.73 2.62 15.73"/><polygon class="cls-4" points="2.5 4.28 1.22 9.72 2.02 9.17 2.14 9.06 2.24 8.94 2.32 8.79 2.37 8.63 2.69 5.33 2.72 4.81 2.67 4.5 2.57 4.35 2.5 4.28"/><polygon class="cls-1" points="2.5 4.28 1.22 9.72 2.02 9.17 2.14 9.06 2.24 8.94 2.32 8.79 2.37 8.63 2.69 5.33 2.72 4.81 2.67 4.5 2.57 4.35 2.5 4.28"/><polygon class="cls-4" points="10.41 4.81 11.66 4.81 11.86 4.86 12.01 4.97 12.11 5.11 12.16 5.31 12.16 8.22 12.11 8.42 12.01 8.57 11.86 8.67 11.66 8.72 10.41 8.72 10.21 8.67 10.06 8.57 9.96 8.42 9.91 8.22 9.91 5.31 9.96 5.11 10.06 4.97 10.21 4.86 10.41 4.81"/><polygon class="cls-1" points="10.41 4.81 11.66 4.81 11.86 4.86 12.01 4.97 12.11 5.11 12.16 5.31 12.16 8.22 12.11 8.42 12.01 8.57 11.86 8.67 11.66 8.72 10.41 8.72 10.21 8.67 10.06 8.57 9.96 8.42 9.91 8.22 9.91 5.31 9.96 5.11 10.06 4.97 10.21 4.86 10.41 4.81"/><polygon class="cls-4" points="13.96 15.25 19.43 15.25 19.65 15.3 19.83 15.42 19.95 15.6 20 15.83 20 17.83 19.95 18.06 19.83 18.23 19.65 18.35 19.43 18.4 13.96 18.4 13.74 18.35 13.57 18.23 13.44 18.06 13.39 17.83 13.39 15.83 13.44 15.6 13.57 15.42 13.74 15.3 13.96 15.25"/><polygon class="cls-1" points="13.96 15.25 19.43 15.25 19.65 15.3 19.83 15.42 19.95 15.6 20 15.83 20 17.83 19.95 18.06 19.83 18.23 19.65 18.35 19.43 18.4 13.96 18.4 13.74 18.35 13.57 18.23 13.44 18.06 13.39 17.83 13.39 15.83 13.44 15.6 13.57 15.42 13.74 15.3 13.96 15.25"/><path class="cls-4" d="M12.6,17.88s.04-4.01-1.42-4.01-5.07.07-5.07.07l-1.34,4.16,7.84-.22Z"/><rect class="cls-4" x="14.84" y=".39" width="30.66" height="13.93"/><rect class="cls-1" x="14.84" y=".39" width="30.66" height="13.93"/><rect class="cls-4" x="14.84" y=".39" width="30.66" height=".92"/><rect class="cls-1" x="14.84" y=".39" width="30.66" height=".92"/><path class="cls-4" d="M42.51,17.5s-.46-3.56-3.55-3.56-3.86,3.33-3.86,3.33l7.41.22Z"/><polygon class="cls-4" points="46.74 .39 45.48 .39 45.48 14.32 45.49 14.32 45.96 16.55 46.71 16.55 46.71 14.32 46.74 14.32 46.74 .39"/><polygon class="cls-1" points="46.74 .39 45.48 .39 45.48 14.32 45.49 14.32 45.96 16.55 46.71 16.55 46.71 14.32 46.74 14.32 46.74 .39"/><polygon class="cls-4" points="7.73 8.72 3.55 9.22 3.46 9.17 3.36 9.1 3.31 8.95 3.28 8.82 3.64 5.66 3.66 5.54 3.71 5.41 3.81 5.26 3.91 5.11 4.01 4.97 4.14 4.86 4.26 4.79 4.38 4.76 7.82 4.76 7.92 4.79 8 4.89 8.07 4.99 8.1 5.09 8.1 8.27 8.07 8.42 8 8.57 7.87 8.67 7.73 8.72"/><polygon class="cls-1" points="7.73 8.72 3.55 9.22 3.46 9.17 3.36 9.1 3.31 8.95 3.28 8.82 3.64 5.66 3.66 5.54 3.71 5.41 3.81 5.26 3.91 5.11 4.01 4.97 4.14 4.86 4.26 4.79 4.38 4.76 7.82 4.76 7.92 4.79 8 4.89 8.07 4.99 8.1 5.09 8.1 8.27 8.07 8.42 8 8.57 7.87 8.67 7.73 8.72"/><line class="cls-4" x1="2.2" y1="10.83" x2="8.67" y2="10.33"/><line class="cls-1" x1="2.2" y1="10.83" x2="8.67" y2="10.33"/><line class="cls-1" x1="2.46" y1="4.23" x2="14.12" y2="4.23"/><path class="cls-3" d="M41.79,17.75c0,1.64-1.33,2.97-2.97,2.97s-2.97-1.33-2.97-2.97,1.33-2.97,2.97-2.97,2.97,1.33,2.97,2.97"/><path class="cls-4" d="M38.82,14.15c1.99,0,3.6,1.61,3.6,3.59h.48c0-2.25-1.82-4.07-4.07-4.07s-4.07,1.82-4.07,4.07h.48c0-1.99,1.61-3.59,3.59-3.59"/><path class="cls-1" d="M38.82,14.15c1.99,0,3.6,1.61,3.6,3.59h.48c0-2.25-1.82-4.07-4.07-4.07s-4.07,1.82-4.07,4.07h.48c0-1.99,1.61-3.59,3.59-3.59Z"/><path class="cls-2" d="M11.97,17.75c0,1.64-1.33,2.97-2.97,2.97s-2.97-1.33-2.97-2.97,1.33-2.97,2.97-2.97,2.97,1.33,2.97,2.97"/><path class="cls-4" d="M12.8,17.63h-.41c0-3.47-1.47-3.43-1.47-3.43h-4.2s-.25.05-.25.05l-.2.13-.15.22-.1.33-.68,2.91h-2.13l-.12-.03-.16-.02-.1-.05-.12-.06-.1-.07v-.93l.12.06.15.05.16.02.15.02.15.02h1.43l.47-1.83.05-.25.07-.23.08-.2.12-.2.12-.17.15-.15.2-.16.22-.12h4.79s1.74-.12,1.74,4.08"/><path class="cls-1" d="M12.8,17.63h-.41c0-3.47-1.47-3.43-1.47-3.43h-4.2s-.25.05-.25.05l-.2.13-.15.22-.1.33-.68,2.91h-2.13l-.12-.03-.16-.02-.1-.05-.12-.06-.1-.07v-.93l.12.06.15.05.16.02.15.02.15.02h1.43l.47-1.83.05-.25.07-.23.08-.2.12-.2.12-.17.15-.15.2-.16.22-.12h4.79s1.74-.12,1.74,4.08Z"/></svg>