<?xml version="1.0" encoding="UTF-8"?><svg id="Capa_1" xmlns="http://www.w3.org/2000/svg" width="75.62" height="24.22" viewBox="0 0 75.62 24.22"><defs><style>.cls-1{fill:#e30613;}.cls-1,.cls-2{stroke-width:0px;}.cls-2{fill:#fff;}.cls-3{fill:none;stroke:#1d1d1b;stroke-width:.3px;}</style></defs><polygon class="cls-2" points="59.98 17.16 60.13 15.82 16.53 15.85 16.45 15.85 16.47 20.99 35.34 20.99 35.34 19.99 46.66 19.99 47.32 20.74 58.69 20.59 58.69 21.82 59.47 21.79 59.44 19.09 59.98 18 59.98 17.16"/><polygon class="cls-3" points="59.98 17.16 60.13 15.82 16.53 15.85 16.45 15.85 16.47 20.99 35.34 20.99 35.34 19.99 46.66 19.99 47.32 20.74 58.69 20.59 58.69 21.82 59.47 21.79 59.44 19.09 59.98 18 59.98 17.16"/><polygon class="cls-2" points="15.23 16.23 15.23 13.49 16.35 12.11 16.62 8.06 16.68 7.79 16.73 7.53 16.83 7.31 16.95 7.11 17.1 6.96 17.28 6.86 17.5 6.78 17.76 6.75 27.5 6.28 28.35 7.13 28.35 18.83 28 20.9 26.8 20.9 26.44 18.73 25.62 17.38 20.19 17.3 19.26 20.64 16.73 20.48 16.43 18.83 15.3 18.83 15.23 16.23"/><polygon class="cls-3" points="15.23 16.23 15.23 13.49 16.35 12.11 16.62 8.06 16.68 7.79 16.73 7.53 16.83 7.31 16.95 7.11 17.1 6.96 17.28 6.86 17.5 6.78 17.76 6.75 27.5 6.28 28.35 7.13 28.35 18.83 28 20.9 26.8 20.9 26.44 18.73 25.62 17.38 20.19 17.3 19.26 20.64 16.73 20.48 16.43 18.83 15.3 18.83 15.23 16.23"/><path class="cls-2" d="M17.42,7.78v.07s-.38,4.67-.4,5c0,.13-.14.23-.27.33-.16.12-.32.24-.32.44v7.05h3s.89-3.17.89-3.17l2.58-.18V7.79h-5.48Z"/><path class="cls-3" d="M17.42,7.78v.07s-.38,4.67-.4,5c0,.13-.14.23-.27.33-.16.12-.32.24-.32.44v7.05h3s.89-3.17.89-3.17l2.58-.18V7.79h-5.48Z"/><polygon class="cls-2" points="16.78 19.31 16.13 19.31 15.25 19.31 15.07 19.28 14.88 19.21 14.73 19.05 14.67 18.88 14.67 16.55 14.73 16.38 14.85 16.23 15.02 16.12 15.2 16.1 16.35 16.1 16.5 16.15 16.66 16.3 16.73 16.47 16.78 16.6 16.78 19.31"/><polygon class="cls-3" points="16.78 19.31 16.13 19.31 15.25 19.31 15.07 19.28 14.88 19.21 14.73 19.05 14.67 18.88 14.67 16.55 14.73 16.38 14.85 16.23 15.02 16.12 15.2 16.1 16.35 16.1 16.5 16.15 16.66 16.3 16.73 16.47 16.78 16.6 16.78 19.31"/><polygon class="cls-2" points="16.83 19.28 16.83 20.88 16.81 20.98 16.76 21.06 16.68 21.11 16.6 21.11 15.45 20.66 15.38 20.64 15.3 20.58 15.25 20.51 15.23 20.43 15.23 19.28 16.83 19.28"/><polygon class="cls-3" points="16.83 19.28 16.83 20.88 16.81 20.98 16.76 21.06 16.68 21.11 16.6 21.11 15.45 20.66 15.38 20.64 15.3 20.58 15.25 20.51 15.23 20.43 15.23 19.28 16.83 19.28"/><polygon class="cls-2" points="16.71 7.84 15.43 13.27 16.23 12.72 16.35 12.62 16.45 12.49 16.53 12.34 16.58 12.19 16.9 8.89 16.93 8.36 16.88 8.06 16.78 7.91 16.71 7.84"/><polygon class="cls-3" points="16.71 7.84 15.43 13.27 16.23 12.72 16.35 12.62 16.45 12.49 16.53 12.34 16.58 12.19 16.9 8.89 16.93 8.36 16.88 8.06 16.78 7.91 16.71 7.84"/><polygon class="cls-2" points="24.62 8.36 25.87 8.36 26.07 8.42 26.22 8.52 26.32 8.67 26.37 8.87 26.37 11.77 26.32 11.98 26.22 12.13 26.07 12.22 25.87 12.27 24.62 12.27 24.42 12.22 24.27 12.13 24.17 11.98 24.12 11.77 24.12 8.87 24.17 8.67 24.27 8.52 24.42 8.42 24.62 8.36"/><polygon class="cls-3" points="24.62 8.36 25.87 8.36 26.07 8.42 26.22 8.52 26.32 8.67 26.37 8.87 26.37 11.77 26.32 11.98 26.22 12.13 26.07 12.22 25.87 12.27 24.62 12.27 24.42 12.22 24.27 12.13 24.17 11.98 24.12 11.77 24.12 8.87 24.17 8.67 24.27 8.52 24.42 8.42 24.62 8.36"/><polygon class="cls-2" points="28.17 18.81 33.64 18.81 33.86 18.86 34.04 18.98 34.16 19.16 34.21 19.38 34.21 21.38 34.16 21.61 34.04 21.78 33.86 21.91 33.64 21.96 28.17 21.96 27.95 21.91 27.78 21.78 27.65 21.61 27.6 21.38 27.6 19.38 27.65 19.16 27.78 18.98 27.95 18.86 28.17 18.81"/><polygon class="cls-3" points="28.17 18.81 33.64 18.81 33.86 18.86 34.04 18.98 34.16 19.16 34.21 19.38 34.21 21.38 34.16 21.61 34.04 21.78 33.86 21.91 33.64 21.96 28.17 21.96 27.95 21.91 27.78 21.78 27.65 21.61 27.6 21.38 27.6 19.38 27.65 19.16 27.78 18.98 27.95 18.86 28.17 18.81"/><path class="cls-2" d="M26.81,21.43s.04-4.01-1.42-4.01-5.07.07-5.07.07l-1.34,4.16,7.84-.22Z"/><rect class="cls-2" x="29.05" y="3.95" width="30.66" height="13.93"/><rect class="cls-3" x="29.05" y="3.95" width="30.66" height="13.93"/><rect class="cls-2" x="29.05" y="3.95" width="30.66" height=".92"/><rect class="cls-3" x="29.05" y="3.95" width="30.66" height=".92"/><path class="cls-2" d="M56.72,21.05s-.46-3.56-3.55-3.56-3.86,3.33-3.86,3.33l7.41.22Z"/><polygon class="cls-2" points="60.95 3.95 59.69 3.95 59.69 17.87 59.7 17.87 60.17 20.1 60.92 20.1 60.92 17.87 60.95 17.87 60.95 3.95"/><polygon class="cls-3" points="60.95 3.95 59.69 3.95 59.69 17.87 59.7 17.87 60.17 20.1 60.92 20.1 60.92 17.87 60.95 17.87 60.95 3.95"/><polygon class="cls-2" points="21.94 12.27 17.76 12.77 17.67 12.73 17.57 12.65 17.52 12.5 17.49 12.37 17.85 9.22 17.87 9.1 17.92 8.97 18.02 8.82 18.12 8.67 18.22 8.52 18.35 8.42 18.47 8.34 18.59 8.32 22.03 8.32 22.13 8.34 22.21 8.44 22.28 8.54 22.31 8.64 22.31 11.82 22.28 11.98 22.21 12.13 22.08 12.22 21.94 12.27"/><polygon class="cls-3" points="21.94 12.27 17.76 12.77 17.67 12.73 17.57 12.65 17.52 12.5 17.49 12.37 17.85 9.22 17.87 9.1 17.92 8.97 18.02 8.82 18.12 8.67 18.22 8.52 18.35 8.42 18.47 8.34 18.59 8.32 22.03 8.32 22.13 8.34 22.21 8.44 22.28 8.54 22.31 8.64 22.31 11.82 22.28 11.98 22.21 12.13 22.08 12.22 21.94 12.27"/><line class="cls-2" x1="16.41" y1="14.39" x2="22.88" y2="13.89"/><line class="cls-3" x1="16.41" y1="14.39" x2="22.88" y2="13.89"/><line class="cls-3" x1="16.67" y1="7.78" x2="28.33" y2="7.78"/><path class="cls-1" d="M56,21.3c0,1.64-1.33,2.97-2.97,2.97s-2.97-1.33-2.97-2.97,1.33-2.97,2.97-2.97,2.97,1.33,2.97,2.97"/><path class="cls-2" d="M53.03,17.71c1.99,0,3.6,1.61,3.6,3.59h.48c0-2.25-1.82-4.07-4.07-4.07s-4.07,1.82-4.07,4.07h.48c0-1.99,1.61-3.59,3.6-3.59"/><path class="cls-3" d="M53.03,17.71c1.99,0,3.6,1.61,3.6,3.59h.48c0-2.25-1.82-4.07-4.07-4.07s-4.07,1.82-4.07,4.07h.48c0-1.99,1.61-3.59,3.6-3.59Z"/><path class="cls-2" d="M26.18,21.3c0,1.64-1.33,2.97-2.97,2.97s-2.97-1.33-2.97-2.97,1.33-2.97,2.97-2.97,2.97,1.33,2.97,2.97"/><path class="cls-3" d="M26.18,21.3c0,1.64-1.33,2.97-2.97,2.97s-2.97-1.33-2.97-2.97,1.33-2.97,2.97-2.97,2.97,1.33,2.97,2.97Z"/><path class="cls-2" d="M27.02,21.19h-.41c0-3.47-1.47-3.43-1.47-3.43h-4.2s-.25.05-.25.05l-.2.13-.15.22-.1.33-.68,2.91h-2.13l-.13-.03-.16-.02-.1-.05-.12-.06-.1-.07v-.93l.12.06.15.05.16.02.15.02.15.02h1.43l.48-1.83.05-.25.07-.23.08-.2.12-.2.12-.17.15-.15.2-.16.22-.12h4.79s1.74-.12,1.74,4.08"/><path class="cls-3" d="M27.02,21.19h-.41c0-3.47-1.47-3.43-1.47-3.43h-4.2s-.25.05-.25.05l-.2.13-.15.22-.1.33-.68,2.91h-2.13l-.13-.03-.16-.02-.1-.05-.12-.06-.1-.07v-.93l.12.06.15.05.16.02.15.02.15.02h1.43l.48-1.83.05-.25.07-.23.08-.2.12-.2.12-.17.15-.15.2-.16.22-.12h4.79s1.74-.12,1.74,4.08Z"/></svg>