<?xml version="1.0" encoding="UTF-8"?><svg id="Capa_1" xmlns="http://www.w3.org/2000/svg" width="75.62" height="24.22" viewBox="0 0 75.62 24.22"><defs><style>.cls-1{fill:none;stroke:#1d1d1b;stroke-width:.3px;}.cls-2{fill:#e30613;}.cls-2,.cls-3{stroke-width:0px;}.cls-3{fill:#fff;}</style></defs><polyline class="cls-3" points="14.32 21.7 16.27 21.7 18.01 21.28 26.35 21.28 27.09 20.37 35.56 20.93 37.7 20.93 37.7 20.16 68.86 20.16 70.83 20.16 70.83 20.79 72.83 21.55 72.83 22.39 73.79 22.39 73.79 20.28 72.83 20.28 72.83 20.41 70.95 19.7 70.95 18.9 72.37 18.9 72.37 17.09 17.1 17.09 15.74 17.09 7.12 16.58"/><polyline class="cls-1" points="14.32 21.7 16.27 21.7 18.01 21.28 26.35 21.28 27.09 20.37 35.56 20.93 37.7 20.93 37.7 20.16 68.86 20.16 70.83 20.16 70.83 20.79 72.83 21.55 72.83 22.39 73.79 22.39 73.79 20.28 72.83 20.28 72.83 20.41 70.95 19.7 70.95 18.9 72.37 18.9 72.37 17.09 17.1 17.09 15.74 17.09 7.12 16.58"/><path class="cls-3" d="M69.33,20.86s-.33-3.52-3.32-3.52h-16.88s-2.72,1.33-2.72,3.39l-9.84.73s-.33-4.05-3.79-4.05-3.86,3.59-3.86,4.05h-1s0-4.05-3.79-4.05-3.75,4.15-3.75,4.15l8.84.8,40.11-1.5Z"/><polygon class="cls-3" points="1.18 16.63 1.18 14.03 2.26 12.71 2.55 8.83 2.57 8.56 2.64 8.33 2.72 8.12 2.84 7.92 2.98 7.78 3.15 7.68 3.36 7.61 3.61 7.59 12.92 7.13 13.74 7.94 13.74 19.13 1.25 19.13 1.18 16.63"/><polygon class="cls-1" points="1.18 16.63 1.18 14.03 2.26 12.71 2.55 8.83 2.57 8.56 2.64 8.33 2.72 8.12 2.84 7.92 2.98 7.78 3.15 7.68 3.36 7.61 3.61 7.59 12.92 7.13 13.74 7.94 13.74 19.13 1.25 19.13 1.18 16.63"/><polygon class="cls-3" points="2.46 14.1 2.28 19.12 9.4 19.12 9.4 8.62 3.54 8.62 2.91 13.8 2.46 14.1"/><polygon class="cls-1" points="2.46 14.1 2.28 19.12 9.4 19.12 9.4 8.62 3.54 8.62 2.91 13.8 2.46 14.1"/><path class="cls-3" d="M12.34,21.56s-.1-4.06-1.6-4.06-4.55.13-4.55.13l-.8,2.16,6.95,1.76Z"/><polygon class="cls-3" points="2.7 19.56 2.07 19.59 1.23 19.59 1.07 19.56 .87 19.46 .73 19.35 .68 19.17 .83 19.08 .83 16.98 .68 16.92 .73 16.76 .85 16.63 .99 16.55 1.16 16.52 2.26 16.52 2.43 16.57 2.55 16.72 2.64 16.85 2.7 17 2.7 19.56"/><polygon class="cls-1" points="2.7 19.56 2.07 19.59 1.23 19.59 1.07 19.56 .87 19.46 .73 19.35 .68 19.17 .83 19.08 .83 16.98 .68 16.92 .73 16.76 .85 16.63 .99 16.55 1.16 16.52 2.26 16.52 2.43 16.57 2.55 16.72 2.64 16.85 2.7 17 2.7 19.56"/><polygon class="cls-3" points="2.72 19.56 2.72 21.09 2.7 21.2 2.64 21.26 2.57 21.31 2.48 21.31 1.4 20.88 1.31 20.85 1.23 20.81 1.18 20.76 1.16 20.67 1.16 19.56 2.72 19.56"/><polygon class="cls-1" points="2.72 19.56 2.72 21.09 2.7 21.2 2.64 21.26 2.57 21.31 2.48 21.31 1.4 20.88 1.31 20.85 1.23 20.81 1.18 20.76 1.16 20.67 1.16 19.56 2.72 19.56"/><polygon class="cls-3" points="8.46 12.92 3.8 13.4 3.7 13.35 3.61 13.25 3.54 13.14 3.52 13.01 3.85 10 3.88 9.88 3.94 9.76 4.01 9.61 4.12 9.47 4.23 9.33 4.36 9.23 4.47 9.16 4.59 9.13 8.52 9.13 8.61 9.16 8.72 9.26 8.79 9.35 8.81 9.45 8.81 12.49 8.79 12.63 8.72 12.78 8.59 12.87 8.46 12.92"/><polygon class="cls-1" points="8.46 12.92 3.8 13.4 3.7 13.35 3.61 13.25 3.54 13.14 3.52 13.01 3.85 10 3.88 9.88 3.94 9.76 4.01 9.61 4.12 9.47 4.23 9.33 4.36 9.23 4.47 9.16 4.59 9.13 8.52 9.13 8.61 9.16 8.72 9.26 8.79 9.35 8.81 9.45 8.81 12.49 8.79 12.63 8.72 12.78 8.59 12.87 8.46 12.92"/><polygon class="cls-3" points="2.59 8.59 1.4 13.81 2.17 13.26 2.29 13.17 2.38 13.04 2.46 12.93 2.48 12.78 2.79 9.62 2.81 9.09 2.77 8.8 2.7 8.67 2.59 8.59"/><polygon class="cls-1" points="2.59 8.59 1.4 13.81 2.17 13.26 2.29 13.17 2.38 13.04 2.46 12.93 2.48 12.78 2.79 9.62 2.81 9.09 2.77 8.8 2.7 8.67 2.59 8.59"/><polygon class="cls-3" points="10.92 9.13 12.12 9.13 12.31 9.17 12.46 9.27 12.55 9.42 12.59 9.6 12.59 12.38 12.55 12.58 12.46 12.73 12.31 12.82 12.12 12.86 10.92 12.86 10.73 12.82 10.58 12.73 10.49 12.58 10.45 12.38 10.45 9.6 10.49 9.42 10.58 9.27 10.73 9.17 10.92 9.13"/><polygon class="cls-1" points="10.92 9.13 12.12 9.13 12.31 9.17 12.46 9.27 12.55 9.42 12.59 9.6 12.59 12.38 12.55 12.58 12.46 12.73 12.31 12.82 12.12 12.86 10.92 12.86 10.73 12.82 10.58 12.73 10.49 12.58 10.45 12.38 10.45 9.6 10.49 9.42 10.58 9.27 10.73 9.17 10.92 9.13"/><polygon class="cls-3" points="12.3 7.13 12.3 2.51 9.64 2.51 9.21 2.53 8.77 2.6 8.35 2.74 7.91 2.91 7.53 3.13 7.16 3.39 6.83 3.68 6.55 3.99 3.67 7.61 12.3 7.13"/><polygon class="cls-1" points="12.3 7.13 12.3 2.51 9.64 2.51 9.21 2.53 8.77 2.6 8.35 2.74 7.91 2.91 7.53 3.13 7.16 3.39 6.83 3.68 6.55 3.99 3.67 7.61 12.3 7.13"/><path class="cls-1" d="M2.46,14.86l6.95-.57h4.33M2.55,8.62h11.19"/><polygon class="cls-3" points="13.6 19.1 18.81 19.1 19.03 19.15 19.2 19.28 19.32 19.44 19.36 19.66 19.36 21.57 19.32 21.79 19.2 21.95 19.03 22.08 18.81 22.12 13.6 22.12 13.38 22.08 13.21 21.95 13.09 21.79 13.04 21.57 13.04 19.66 13.09 19.44 13.21 19.28 13.38 19.15 13.6 19.1"/><polygon class="cls-1" points="13.6 19.1 18.81 19.1 19.03 19.15 19.2 19.28 19.32 19.44 19.36 19.66 19.36 21.57 19.32 21.79 19.2 21.95 19.03 22.08 18.81 22.12 13.6 22.12 13.38 22.08 13.21 21.95 13.09 21.79 13.04 21.57 13.04 19.66 13.09 19.44 13.21 19.28 13.38 19.15 13.6 19.1"/><polygon class="cls-3" points="13.91 19.13 15.61 19.13 15.89 18.89 16.47 18.89 16.73 19.13 18.43 19.13 18.43 22.1 13.91 22.1 13.91 19.13"/><polygon class="cls-1" points="13.91 19.13 15.61 19.13 15.89 18.89 16.47 18.89 16.73 19.13 18.43 19.13 18.43 22.1 13.91 22.1 13.91 19.13"/><rect class="cls-3" x="15.76" y="2.24" width="59.69" height="14.85"/><rect class="cls-1" x="15.76" y="2.24" width="59.69" height="14.85"/><rect class="cls-3" x="74.26" y="2.24" width="1.2" height="14.85"/><rect class="cls-1" x="74.26" y="2.24" width="1.2" height="14.85"/><rect class="cls-3" x="15.76" y="2.24" width="59.69" height="1.1"/><rect class="cls-1" x="15.76" y="2.24" width="59.69" height="1.1"/><polygon class="cls-3" points="12.17 13.39 14.39 13.39 14.57 13.43 14.72 13.55 14.81 13.72 14.84 13.94 14.84 18.05 14.81 18.26 14.72 18.44 14.57 18.55 14.39 18.6 12.17 18.6 11.98 18.55 11.84 18.44 11.74 18.26 11.72 18.05 11.72 13.94 11.74 13.72 11.84 13.55 11.98 13.43 12.17 13.39"/><polygon class="cls-1" points="12.17 13.39 14.39 13.39 14.57 13.43 14.72 13.55 14.81 13.72 14.84 13.94 14.84 18.05 14.81 18.26 14.72 18.44 14.57 18.55 14.39 18.6 12.17 18.6 11.98 18.55 11.84 18.44 11.74 18.26 11.72 18.05 11.72 13.94 11.74 13.72 11.84 13.55 11.98 13.43 12.17 13.39"/><path class="cls-2" d="M11.75,21.21c0,1.63-1.32,2.96-2.96,2.96s-2.96-1.32-2.96-2.96,1.32-2.96,2.96-2.96,2.96,1.32,2.96,2.96"/><path class="cls-3" d="M12.48,21.21h-.4c0-3.33-1.41-3.3-1.41-3.3h-4.03s-.24.04-.24.04l-.2.12-.14.22-.09.31-.65,2.79h-2.04l-.12-.03-.15-.02-.09-.05-.12-.05-.09-.07v-.89l.12.05.14.05.15.02.14.02.14.02h1.37l.46-1.76.05-.24.07-.22.08-.19.12-.2.12-.17.14-.14.2-.15.21-.12h4.6s1.67-.11,1.67,3.92"/><path class="cls-1" d="M12.48,21.21h-.4c0-3.33-1.41-3.3-1.41-3.3h-4.03s-.24.04-.24.04l-.2.12-.14.22-.09.31-.65,2.79h-2.04l-.12-.03-.15-.02-.09-.05-.12-.05-.09-.07v-.89l.12.05.14.05.15.02.14.02.14.02h1.37l.46-1.76.05-.24.07-.22.08-.19.12-.2.12-.17.14-.14.2-.15.21-.12h4.6s1.67-.11,1.67,3.92Z"/><path class="cls-3" d="M68.96,20.41c-.28-1.39-1.39-2.77-2.81-2.81-.03,0-11.18,0-11.21,0s-5.22,0-5.26,0c-1.6,0-2.68,1.42-2.96,2.81-.02.12-.52.14-.5.03.32-1.6,1.62-3.23,3.24-3.28.03,0,5.45,0,5.48,0s11.35,0,11.39,0c1.62.05,2.79,1.57,3.11,3.16.02.12-.49.09-.49.09"/><path class="cls-1" d="M68.96,20.41c-.28-1.39-1.39-2.77-2.81-2.81-.03,0-11.18,0-11.21,0s-5.22,0-5.26,0c-1.6,0-2.68,1.42-2.96,2.81-.02.12-.52.14-.5.03.32-1.6,1.62-3.23,3.24-3.28.03,0,5.45,0,5.48,0s11.35,0,11.39,0c1.62.05,2.79,1.57,3.11,3.16.02.12-.49.09-.49.09Z"/><path class="cls-3" d="M53.55,21.21c0,1.63-1.32,2.96-2.96,2.96s-2.96-1.32-2.96-2.96,1.32-2.96,2.96-2.96,2.96,1.32,2.96,2.96"/><path class="cls-1" d="M53.55,21.21c0,1.63-1.32,2.96-2.96,2.96s-2.96-1.32-2.96-2.96,1.32-2.96,2.96-2.96,2.96,1.32,2.96,2.96Z"/><path class="cls-3" d="M60.7,21.21c0,1.63-1.32,2.96-2.96,2.96s-2.96-1.32-2.96-2.96,1.32-2.96,2.96-2.96,2.96,1.32,2.96,2.96"/><path class="cls-1" d="M60.7,21.21c0,1.63-1.32,2.96-2.96,2.96s-2.96-1.32-2.96-2.96,1.32-2.96,2.96-2.96,2.96,1.32,2.96,2.96Z"/><path class="cls-3" d="M67.86,21.21c0,1.63-1.32,2.96-2.96,2.96s-2.96-1.32-2.96-2.96,1.32-2.96,2.96-2.96,2.96,1.32,2.96,2.96"/><path class="cls-1" d="M67.86,21.21c0,1.63-1.32,2.96-2.96,2.96s-2.96-1.32-2.96-2.96,1.32-2.96,2.96-2.96,2.96,1.32,2.96,2.96Z"/><path class="cls-3" d="M27.09,21.21c0,1.63-1.32,2.96-2.96,2.96s-2.96-1.32-2.96-2.96,1.32-2.96,2.96-2.96,2.96,1.32,2.96,2.96"/><path class="cls-1" d="M27.09,21.21c0,1.63-1.32,2.96-2.96,2.96s-2.96-1.32-2.96-2.96,1.32-2.96,2.96-2.96,2.96,1.32,2.96,2.96Z"/><path class="cls-3" d="M24.14,17.64c1.98,0,3.58,1.6,3.58,3.58h.47c0-2.24-1.82-4.05-4.05-4.05s-4.05,1.82-4.05,4.05h.47c0-1.98,1.6-3.58,3.58-3.58"/><path class="cls-1" d="M24.14,17.64c1.98,0,3.58,1.6,3.58,3.58h.47c0-2.24-1.82-4.05-4.05-4.05s-4.05,1.82-4.05,4.05h.47c0-1.98,1.6-3.58,3.58-3.58Z"/><path class="cls-3" d="M35.69,21.21c0,1.63-1.32,2.96-2.96,2.96s-2.96-1.32-2.96-2.96,1.32-2.96,2.96-2.96,2.96,1.32,2.96,2.96"/><path class="cls-1" d="M35.69,21.21c0,1.63-1.32,2.96-2.96,2.96s-2.96-1.32-2.96-2.96,1.32-2.96,2.96-2.96,2.96,1.32,2.96,2.96Z"/><path class="cls-3" d="M32.73,17.64c1.98,0,3.58,1.6,3.58,3.58h.47c0-2.24-1.82-4.05-4.05-4.05s-4.05,1.82-4.05,4.05h.47c0-1.98,1.6-3.58,3.58-3.58"/><path class="cls-1" d="M32.73,17.64c1.98,0,3.58,1.6,3.58,3.58h.47c0-2.24-1.82-4.05-4.05-4.05s-4.05,1.82-4.05,4.05h.47c0-1.98,1.6-3.58,3.58-3.58Z"/></svg>