<?xml version="1.0" encoding="UTF-8"?><svg id="Capa_1" xmlns="http://www.w3.org/2000/svg" width="44.21" height="18.77" viewBox="0 0 44.21 18.77"><defs><style>.cls-1{fill:none;stroke:#1d1d1b;stroke-width:.3px;}.cls-2{fill:#e30613;}.cls-2,.cls-3{stroke-width:0px;}.cls-3{fill:#fff;}</style></defs><line class="cls-1" x1="5.2" y1="16.28" x2="40.03" y2="16.28"/><polygon class="cls-3" points="40.15 17.25 39.03 13.38 33.53 12.06 5.58 13.25 3.77 17.94 40.15 17.25"/><path class="cls-3" d="M.93,12.77v-.31s0-.04.04-.04h.06s.11-3.56.55-3.5c0,0,.07-.03.13-.06,0,0,2.81-6.2,3.74-7.37.61-.76.99-1.19,2.37-1.2h33.09c.22,0,.94,1.28.94,1.28,1.34,1.38,1.66,8.13,1.66,8.13v4.88h.38c.1,0,.09.09.09.09v.28s.01.09-.08.09l-.06.73v.09s.04.04.04.04v.27s-.04.04-.04.04h-.06l-.08.14-4.59.26c-.08,0-.08-.1-.08-.1,0,0,.08-3.73-3.54-3.73s-3.55,4.05-3.55,4.05c0,.17-.14.18-.14.18H12.75c-.19-.01-.2-.26-.2-.26-.06-2.64-1.41-3.72-2.8-3.92-1.5-.22-2.33.25-2.58.41-1.8,1.11-1.68,3.47-1.68,3.47H1.3c-.16-.36-.79-.37-.79-.37-.08-.01-.09-.1-.09-.1l-.19-.79c0-.18.15-.22.15-.22,0,0-.05-.26.13-.33l.42-.17v-.41"/><path class="cls-1" d="M.93,12.77v-.31s0-.04.04-.04h.06s.11-3.56.55-3.5c0,0,.07-.03.13-.06,0,0,2.81-6.2,3.74-7.37.61-.76.99-1.19,2.37-1.2h33.09c.22,0,.94,1.28.94,1.28,1.34,1.38,1.66,8.13,1.66,8.13v4.88h.38c.1,0,.09.09.09.09v.28s.01.09-.08.09l-.06.73v.09s.04.04.04.04v.27s-.04.04-.04.04h-.06l-.08.14-4.59.26c-.08,0-.08-.1-.08-.1,0,0,.08-3.73-3.54-3.73s-3.55,4.05-3.55,4.05c0,.17-.14.18-.14.18H12.75c-.19-.01-.2-.26-.2-.26-.06-2.64-1.41-3.72-2.8-3.92-1.5-.22-2.33.25-2.58.41-1.8,1.11-1.68,3.47-1.68,3.47H1.3c-.16-.36-.79-.37-.79-.37-.08-.01-.09-.1-.09-.1l-.19-.79c0-.18.15-.22.15-.22,0,0-.05-.26.13-.33l.42-.17v-.41"/><path class="cls-3" d="M3.48,8.99l3.03-6.8c.04-.1.2-.08.2-.08h34.43c.61,1.61.83,6.62.8,6.72-.04.15-.23.16-.23.16H3.48Z"/><path class="cls-1" d="M3.48,8.99l3.03-6.8c.04-.1.2-.08.2-.08h34.43c.61,1.61.83,6.62.8,6.72-.04.15-.23.16-.23.16H3.48Z"/><path class="cls-3" d="M4.91,2.36c.21-.09.4-.08.32.07-.33.61-2.72,5.59-2.72,5.59l-.2.36s-.56.45-.43.1c.52-1.14,2.09-4.51,3.04-6.13"/><path class="cls-1" d="M4.91,2.36c.21-.09.4-.08.32.07-.33.61-2.72,5.59-2.72,5.59l-.2.36s-.56.45-.43.1c.52-1.14,2.09-4.51,3.04-6.13Z"/><path class="cls-1" d="M41.85,1.55l-.27.11H6.78c-.59,0-.76.3-.76.3l-3.15,7.01v5.77s-.01,1.97-.01,1.97M2.88,16.16h2.03c.02-.63.29-2.34,1.83-3.29.22-.14,1.12-.66,2.26-.63h2.66s.13.02.13-.13v-3.39s.05-.52-.4-.52M5.19,14.73H.94"/><line class="cls-3" x1="43.91" y1="14.57" x2="38.63" y2="14.56"/><line class="cls-1" x1="43.91" y1="14.57" x2="38.63" y2="14.56"/><line class="cls-1" x1="32.42" y1="14.59" x2="12.13" y2="14.59"/><path class="cls-3" d="M11.41,2.53h-4.5l-2.24,5.02v1.1h1.18c.22,0,.39-.44.6-.44h4.95V2.53Z"/><path class="cls-1" d="M11.41,2.53h-4.5l-2.24,5.02v1.1h1.18c.22,0,.39-.44.6-.44h4.95V2.53Z"/><path class="cls-3" d="M12.4,8.47V2.53h28.23c.51,1.77.63,5.94.63,5.94H12.4Z"/><path class="cls-1" d="M12.4,8.47V2.53h28.23c.51,1.77.63,5.94.63,5.94H12.4Z"/><line class="cls-1" x1="20.46" y1="2.55" x2="20.46" y2="8.47"/><line class="cls-1" x1="29.6" y1="2.55" x2="29.6" y2="8.47"/><polygon class="cls-3" points="2.13 12.78 .95 12.78 .8 12.78 .74 12.9 .74 14.24 .91 14.36 2.13 14.36 2.13 12.78"/><polygon class="cls-1" points="2.13 12.78 .95 12.78 .8 12.78 .74 12.9 .74 14.24 .91 14.36 2.13 14.36 2.13 12.78"/><path class="cls-3" d="M42.82,16.36v-1.68s-.04-.15.13-.11h.92s.11-.02.11.11v.25s.02.1-.09.1l-.06.83s.04,0,.04.07v.22s.01.06-.06.06h-.04l-.08.14-.87.02Z"/><path class="cls-1" d="M42.82,16.36v-1.68s-.04-.15.13-.11h.92s.11-.02.11.11v.25s.02.1-.09.1l-.06.83s.04,0,.04.07v.22s.01.06-.06.06h-.04l-.08.14-.87.02Z"/><path class="cls-3" d="M11.72,16c0,1.53-1.25,2.78-2.78,2.78s-2.78-1.25-2.78-2.78,1.24-2.78,2.78-2.78,2.78,1.24,2.78,2.78"/><path class="cls-1" d="M11.72,16c0,1.53-1.25,2.78-2.78,2.78s-2.78-1.25-2.78-2.78,1.24-2.78,2.78-2.78,2.78,1.24,2.78,2.78Z"/><path class="cls-2" d="M38.28,16.14c0,1.54-1.25,2.78-2.78,2.78s-2.78-1.25-2.78-2.78,1.25-2.78,2.78-2.78,2.78,1.24,2.78,2.78"/></svg>