<?xml version="1.0" encoding="UTF-8"?><svg id="Capa_1" xmlns="http://www.w3.org/2000/svg" width="45.24" height="20.21" viewBox="0 0 45.24 20.21"><defs><style>.cls-1{fill:none;stroke:#1d1d1b;stroke-width:.3px;}.cls-2{fill:#e30613;}.cls-2,.cls-3{stroke-width:0px;}.cls-3{fill:#fff;}</style></defs><polygon class="cls-3" points="44.49 15.93 44.91 15.92 44.9 12 6.12 12.02 6.14 16.4 23 16.4 23 15.49 31.67 15.49 32.26 16.04 40.87 16.06 40.9 14.94 43.58 14.94 44.49 15.93"/><polygon class="cls-1" points="44.49 15.93 44.91 15.92 44.9 12 6.12 12.02 6.14 16.4 23 16.4 23 15.49 31.67 15.49 32.26 16.04 40.87 16.06 40.9 14.94 43.58 14.94 44.49 15.93"/><path class="cls-3" d="M36.07,16.5s-.43-2.82-3.3-2.82-3.58,2.64-3.58,2.64l6.88.18Z"/><path class="cls-3" d="M14.97,16.75s-.43-2.82-3.3-2.82-3.58,2.64-3.58,2.64l6.88.18Z"/><polygon class="cls-3" points=".42 12.31 .52 12.19 2.08 12.19 2.08 13.83 .52 13.83 .42 13.75 .42 12.31"/><polygon class="cls-1" points=".42 12.31 .52 12.19 2.08 12.19 2.08 13.83 .52 13.83 .42 13.75 .42 12.31"/><path class="cls-3" d="M.74,9.97l1.35.32v4.66l6.19.18,1.65-2,6.1-.19V2.5c0-.39-.1-.65-.52-.65s-6.42-.01-6.42-.01h-.46s-.38.05-.38.05l-.44.11-.33.08-.36.11-.26.14-.21.11-.2.2.04.03-.07.09L.78,8.37l-.04,1.6Z"/><path class="cls-1" d="M.74,9.97l1.35.32v4.66l6.19.18,1.65-2,6.1-.19V2.5c0-.39-.1-.65-.52-.65s-6.42-.01-6.42-.01h-.46s-.38.05-.38.05l-.44.11-.33.08-.36.11-.26.14-.21.11-.2.2.04.03-.07.09L.78,8.37l-.04,1.6Z"/><polygon class="cls-3" points="2.04 12.17 .52 12.17 .42 11.9 .42 9.47 .52 9.17 2.04 9.17 2.04 12.17"/><polygon class="cls-1" points="2.04 12.17 .52 12.17 .42 11.9 .42 9.47 .52 9.17 2.04 9.17 2.04 12.17"/><polygon class="cls-3" points=".69 8.43 2.09 8.43 1.92 9.16 .52 9.17 .69 8.43"/><polygon class="cls-1" points=".69 8.43 2.09 8.43 1.92 9.16 .52 9.17 .69 8.43"/><path class="cls-3" d="M.9,14.46h1.19s0,1.99,0,1.99l.84.34h4.2l.32-.34.84-.07s.62-2.61,3.5-2.61,3.34,2.65,3.34,2.65h.89v-4.47s-1.22,0-1.22,0h-7.33v2.23H.9v.29Z"/><path class="cls-1" d="M.9,14.46h1.19s0,1.99,0,1.99l.84.34h4.2l.32-.34.84-.07s.62-2.61,3.5-2.61,3.34,2.65,3.34,2.65h.89v-4.47s-1.22,0-1.22,0h-7.33v2.23H.9v.29Z"/><path class="cls-3" d="M14.59,12.29h-3.15c-2.1,0-3.2,1.88-3.2,1.88H2.04v-5L7.52,3.7s.58-.54.98-.54h6.11l-.02,9.12Z"/><path class="cls-1" d="M14.59,12.29h-3.15c-2.1,0-3.2,1.88-3.2,1.88H2.04v-5L7.52,3.7s.58-.54.98-.54h6.11l-.02,9.12Z"/><polygon class="cls-3" points=".28 14.31 .64 14.09 2.04 14.09 2.04 15.83 .85 15.83 .28 15.21 .28 14.31"/><polygon class="cls-1" points=".28 14.31 .64 14.09 2.04 14.09 2.04 15.83 .85 15.83 .28 15.21 .28 14.31"/><path class="cls-3" d="M5.15,7.99l-.12-.04-.1-.08-.1-.08-.04-.12-.04-.1v-.13l3.42-3.44s.29-.32.51-.32h5.27s.09.04.09.04l.08.1v.22s-.01,3.56-.01,3.56v.12s0,.08,0,.08l-.07.07-.11.09-.16.02H5.35s-.2,0-.2,0Z"/><path class="cls-1" d="M5.15,7.99l-.12-.04-.1-.08-.1-.08-.04-.12-.04-.1v-.13l3.42-3.44s.29-.32.51-.32h5.27s.09.04.09.04l.08.1v.22s-.01,3.56-.01,3.56v.12s0,.08,0,.08l-.07.07-.11.09-.16.02H5.35s-.2,0-.2,0Z"/><line class="cls-1" x1="9.23" y1="3.69" x2="9.23" y2="7.94"/><polygon class="cls-3" points=".77 8.43 2.1 8.43 7.08 3.24 7.08 3.11 7.08 3.01 7.03 2.89 6.97 2.81 6.89 2.76 6.77 2.69 6.65 2.68 6.53 2.68 6.45 2.68 .77 8.43"/><polygon class="cls-1" points=".77 8.43 2.1 8.43 7.08 3.24 7.08 3.11 7.08 3.01 7.03 2.89 6.97 2.81 6.89 2.76 6.77 2.69 6.65 2.68 6.53 2.68 6.45 2.68 .77 8.43"/><rect class="cls-3" x="16.45" y=".27" width=".5" height="12.24"/><rect class="cls-1" x="16.45" y=".27" width=".5" height="12.24"/><polygon class="cls-3" points="44.68 15.05 43.5 13.65 18.95 13.65 18.95 14.62 16.45 14.62 16.45 8.89 44.97 8.89 44.97 15.05 44.68 15.05"/><polygon class="cls-1" points="44.68 15.05 43.5 13.65 18.95 13.65 18.95 14.62 16.45 14.62 16.45 8.89 44.97 8.89 44.97 15.05 44.68 15.05"/><polygon class="cls-3" points="17.36 12.65 17.36 12.65 32.14 12.65 32.14 9.63 17.36 9.63 17.36 12.65"/><polygon class="cls-1" points="17.36 12.65 17.36 12.65 32.14 12.65 32.14 9.63 17.36 9.63 17.36 12.65"/><rect class="cls-3" x="33.6" y="9.63" width="9.91" height="3.02"/><rect class="cls-1" x="33.6" y="9.63" width="9.91" height="3.02"/><path class="cls-2" d="M14.39,17.27c0,1.52-1.23,2.76-2.76,2.76s-2.76-1.23-2.76-2.76,1.23-2.76,2.76-2.76,2.76,1.23,2.76,2.76"/><path class="cls-3" d="M11.64,13.94c1.84,0,3.34,1.49,3.34,3.34h.44c0-2.09-1.69-3.78-3.78-3.78s-3.78,1.69-3.78,3.78h.44c0-1.84,1.49-3.34,3.34-3.34"/><path class="cls-1" d="M11.64,13.94c1.84,0,3.34,1.49,3.34,3.34h.44c0-2.09-1.69-3.78-3.78-3.78s-3.78,1.69-3.78,3.78h.44c0-1.84,1.49-3.34,3.34-3.34Z"/><path class="cls-2" d="M35.41,17.27c0,1.52-1.23,2.76-2.76,2.76s-2.76-1.23-2.76-2.76,1.23-2.76,2.76-2.76,2.76,1.23,2.76,2.76"/><path class="cls-3" d="M32.65,13.94c1.84,0,3.34,1.49,3.34,3.34h.44c0-2.09-1.69-3.78-3.78-3.78s-3.78,1.69-3.78,3.78h.44c0-1.84,1.49-3.34,3.34-3.34"/><path class="cls-1" d="M32.65,13.94c1.84,0,3.34,1.49,3.34,3.34h.44c0-2.09-1.69-3.78-3.78-3.78s-3.78,1.69-3.78,3.78h.44c0-1.84,1.49-3.34,3.34-3.34Z"/></svg>