<?xml version="1.0" encoding="UTF-8"?><svg id="Capa_1" xmlns="http://www.w3.org/2000/svg" width="75.62" height="24.22" viewBox="0 0 75.62 24.22"><defs><style>.cls-1{stroke-linejoin:bevel;}.cls-1,.cls-2{fill:none;stroke:#1d1d1b;stroke-width:.3px;}.cls-3{fill:#e30613;}.cls-3,.cls-4{stroke-width:0px;}.cls-4{fill:#fff;}</style></defs><path class="cls-4" d="M32.41,9.67c-.55.51-.76,1.37-.5,2.16.26.79,2.89,8.91,2.89,8.91l6.08.83,6.7-1.47,6.29-2.74s3.75-3.58,3.99-3.81c.23-.23.43-.47.24-1.07-.67-2.06-2.73-8.4-2.85-8.8-.15-.47-.55-.78-1.04-.86-.49-.08-5.29-.72-5.29-.72l-6.7,1.47-6.29,2.74-3.52,3.36"/><path class="cls-1" d="M32.41,9.67c-.55.51-.76,1.37-.5,2.16.26.79,2.89,8.91,2.89,8.91l6.08.83,6.7-1.47,6.29-2.74s3.75-3.58,3.99-3.81c.23-.23.43-.47.24-1.07-.67-2.06-2.73-8.4-2.85-8.8-.15-.47-.55-.78-1.04-.86-.49-.08-5.29-.72-5.29-.72l-6.7,1.47-6.29,2.74-3.52,3.36"/><polygon class="cls-4" points="53.9 17.3 53.3 17.55 48.35 2.23 48.98 2.11 53.9 17.3"/><polygon class="cls-1" points="53.9 17.3 53.3 17.55 48.35 2.23 48.98 2.11 53.9 17.3"/><polygon class="cls-4" points="41.04 20.83 40.45 21.02 35.76 6.47 36.29 6.18 41.04 20.83"/><polygon class="cls-1" points="41.04 20.83 40.45 21.02 35.76 6.47 36.29 6.18 41.04 20.83"/><rect class="cls-4" x="34.87" y="19.5" width="14.14" height="2.16"/><rect class="cls-1" x="34.87" y="19.5" width="14.14" height="2.16"/><rect class="cls-4" x="19.72" y="19.66" width="15.15" height="1"/><rect class="cls-1" x="19.72" y="19.66" width="15.15" height="1"/><polygon class="cls-4" points="30.22 17.51 30.73 18.66 23.4 18.83 23.57 16.5 30.22 17.51"/><polygon class="cls-4" points="22.73 19.66 22.73 18.34 56.16 18.36 56.16 21.24 55.49 21.26 55.49 19.63 22.73 19.66"/><polyline class="cls-1" points="22.73 19.66 22.73 18.34 56.16 18.36 56.16 21.24 55.49 21.26 55.49 19.63 22.73 19.66"/><polygon class="cls-4" points="31.14 21.65 22.72 21.65 23.57 18.32 26.04 16.97 29.69 16.97 31.14 21.65"/><path class="cls-1" d="M17.88,14.18l1.35.32v4.66l3.84.18,1.65-1.99,4.34-.19V7.37l-.13-1.31s-4.39,0-6.37,0-2.54.55-2.69.93c-.14.38-1.96,5.59-1.96,5.59l-.04,1.6"/><path class="cls-4" d="M29.55,16.5c-.77,0-.13-.35-.13-.35h-6.21l-3.98,2.23v.28s0,1.99,0,1.99l.84.34h1.84l.33-.34h.85s.58-1.65,1.08-2.28c.51-.64.9-.87,2.03-.87.61,0,2.71-.02,3.22-.02s1.57,4.23,1.57,4.23h.72s-1.39-5.23-2.16-5.23"/><path class="cls-1" d="M29.55,16.5c-.77,0-.13-.35-.13-.35h-6.21l-3.98,2.23v.28s0,1.99,0,1.99l.84.34h1.84l.33-.34h.85s.58-1.65,1.08-2.28c.51-.64.9-.87,2.03-.87.61,0,2.71-.02,3.22-.02s1.57,4.23,1.57,4.23h.72s-1.39-5.23-2.16-5.23Z"/><polygon class="cls-4" points="27.06 7.39 29.06 7.39 29.57 14.02 29.57 16.49 27.06 16.49 27.06 7.39"/><polygon class="cls-1" points="27.06 7.39 29.06 7.39 29.57 14.02 29.57 16.49 27.06 16.49 27.06 7.39"/><path class="cls-4" d="M27.05,16.5V7.39s-5.33,0-5.33,0c-.39,0-.83.26-1,.83-.17.57-1.53,5.17-1.53,5.17v5h3.65s.69-.86,1.13-1.29c.45-.44.95-.6,2.03-.6h1.04Z"/><path class="cls-1" d="M17.9,12.64h1.14l1.37-4.83s.07-.58-.4-.58h-.22l-1.88,5.41M22.55,7.99v3.84M21.04,11.94l-.11-.04-.1-.07-.09-.08-.03-.11-.04-.09v-.13l.74-3.15s.13-.29.36-.29h4.34c.14,0,.27.12.27.33v2.94c0,.2-.18.36-.31.36-.12,0-4.86.33-4.86.33h-.18M17.8,18.2l-.36.21v.91l.57.61h1.19v-1.74h-1.41ZM27.05,16.5V7.39s-5.33,0-5.33,0c-.39,0-.83.26-1,.83-.17.57-1.53,5.17-1.53,5.17v5h3.65s.69-.86,1.13-1.29c.45-.44.95-.6,2.03-.6h1.04Z"/><path class="cls-3" d="M23.88,21.05c0,1.67,1.35,3.02,3.02,3.02s3.02-1.35,3.02-3.02-1.35-3.02-3.02-3.02-3.02,1.35-3.02,3.02"/><path class="cls-4" d="M41.99,17.3c3.36,0,3.62,3.1,3.62,3.1l1.64.05s.26-3.12,3.62-3.12,3.65,3.15,3.65,3.15h-16.18s.29-3.18,3.65-3.18"/><polygon class="cls-4" points="45.39 20.76 45.84 20.76 45.76 20.02 45.55 19.34 45.18 18.71 44.72 18.18 44.14 17.72 43.47 17.4 42.76 17.19 42 17.12 41.22 17.19 40.51 17.4 39.87 17.72 39.29 18.18 38.83 18.71 38.46 19.34 38.24 20.02 38.17 20.76 38.56 20.76 38.65 20.09 38.83 19.49 39.15 18.93 39.58 18.46 40.08 18.07 40.66 17.77 41.3 17.6 42 17.53 42.69 17.6 43.32 17.77 43.91 18.07 44.4 18.46 44.81 18.93 45.13 19.49 45.31 20.09 45.39 20.76"/><polygon class="cls-2" points="45.39 20.76 45.84 20.76 45.76 20.02 45.55 19.34 45.18 18.71 44.72 18.18 44.14 17.72 43.47 17.4 42.76 17.19 42 17.12 41.22 17.19 40.51 17.4 39.87 17.72 39.29 18.18 38.83 18.71 38.46 19.34 38.24 20.02 38.17 20.76 38.56 20.76 38.65 20.09 38.83 19.49 39.15 18.93 39.58 18.46 40.08 18.07 40.66 17.77 41.3 17.6 42 17.53 42.69 17.6 43.32 17.77 43.91 18.07 44.4 18.46 44.81 18.93 45.13 19.49 45.31 20.09 45.39 20.76"/><polygon class="cls-4" points="54.26 20.76 54.7 20.76 54.62 20.02 54.41 19.34 54.04 18.71 53.59 18.18 53 17.72 52.35 17.4 51.64 17.19 50.88 17.12 50.11 17.19 49.4 17.4 48.77 17.72 48.19 18.18 47.73 18.71 47.37 19.34 47.15 20.02 47.08 20.76 47.47 20.76 47.56 20.09 47.73 19.49 48.05 18.93 48.48 18.46 48.97 18.07 49.55 17.77 50.19 17.6 50.88 17.53 51.56 17.6 52.2 17.77 52.78 18.07 53.27 18.46 53.68 18.93 53.99 19.49 54.17 20.09 54.26 20.76"/><polygon class="cls-2" points="54.26 20.76 54.7 20.76 54.62 20.02 54.41 19.34 54.04 18.71 53.59 18.18 53 17.72 52.35 17.4 51.64 17.19 50.88 17.12 50.11 17.19 49.4 17.4 48.77 17.72 48.19 18.18 47.73 18.71 47.37 19.34 47.15 20.02 47.08 20.76 47.47 20.76 47.56 20.09 47.73 19.49 48.05 18.93 48.48 18.46 48.97 18.07 49.55 17.77 50.19 17.6 50.88 17.53 51.56 17.6 52.2 17.77 52.78 18.07 53.27 18.46 53.68 18.93 53.99 19.49 54.17 20.09 54.26 20.76"/><polygon class="cls-3" points="42.01 18.12 42.61 18.18 43.19 18.35 43.69 18.65 44.15 19 44.5 19.46 44.8 19.97 44.98 20.55 45.03 21.15 44.98 21.76 44.8 22.34 44.5 22.83 44.15 23.29 43.69 23.64 43.19 23.95 42.61 24.13 42.01 24.17 41.41 24.13 40.83 23.95 40.32 23.64 39.86 23.29 39.51 22.83 39.21 22.34 39.03 21.76 38.98 21.15 39.03 20.55 39.21 19.97 39.51 19.46 39.86 19 40.32 18.65 40.83 18.35 41.41 18.18 42.01 18.12"/><polygon class="cls-3" points="50.87 18.1 51.48 18.14 52.06 18.33 52.56 18.63 53.01 18.98 53.36 19.44 53.67 19.94 53.85 20.53 53.89 21.13 53.85 21.73 53.67 22.31 53.36 22.81 53.01 23.27 52.56 23.62 52.06 23.92 51.48 24.1 50.87 24.15 50.27 24.1 49.69 23.92 49.18 23.62 48.73 23.27 48.38 22.81 48.07 22.31 47.91 21.73 47.85 21.13 47.91 20.53 48.07 19.94 48.38 19.44 48.73 18.98 49.18 18.63 49.69 18.33 50.27 18.14 50.87 18.1"/><polygon class="cls-4" points="19.21 13.38 17.69 13.38 17.58 13.69 17.58 18.11 17.69 18.19 19.21 18.19 19.21 13.38"/><polygon class="cls-1" points="19.21 13.38 17.69 13.38 17.58 13.69 17.58 18.11 17.69 18.19 19.21 18.19 19.21 13.38"/></svg>