<?xml version="1.0" encoding="UTF-8"?><svg id="Capa_1" xmlns="http://www.w3.org/2000/svg" width="75.62" height="24.22" viewBox="0 0 75.62 24.22"><defs><style>.cls-1{fill:none;stroke:#1d1d1b;stroke-width:.3px;}.cls-2{fill:#e30613;}.cls-2,.cls-3{stroke-width:0px;}.cls-3{fill:#fff;}</style></defs><polyline class="cls-3" points="13.83 21.7 15.78 21.7 17.52 21.28 25.85 21.28 26.6 20.37 35.06 20.93 37.21 20.93 37.21 20.16 68.36 20.16 70.34 20.16 70.34 20.79 72.33 21.55 72.33 22.39 73.3 22.39 73.3 20.28 72.33 20.28 72.33 20.41 70.45 19.7 70.45 18.9 71.87 18.9 71.87 17.09 16.6 17.09 15.25 17.09 6.63 16.58"/><polyline class="cls-1" points="13.83 21.7 15.78 21.7 17.52 21.28 25.85 21.28 26.6 20.37 35.06 20.93 37.21 20.93 37.21 20.16 68.36 20.16 70.34 20.16 70.34 20.79 72.33 21.55 72.33 22.39 73.3 22.39 73.3 20.28 72.33 20.28 72.33 20.41 70.45 19.7 70.45 18.9 71.87 18.9 71.87 17.09 16.6 17.09 15.25 17.09 6.63 16.58"/><path class="cls-3" d="M68.84,20.86s-.33-3.52-3.32-3.52h-16.88s-2.72,1.33-2.72,3.39l-9.84.73s-.33-4.05-3.79-4.05-3.86,3.59-3.86,4.05h-1s0-4.05-3.79-4.05-3.75,4.15-3.75,4.15l8.84.8,40.11-1.5Z"/><polygon class="cls-3" points=".69 16.63 .69 14.03 1.77 12.71 2.05 8.83 2.08 8.56 2.15 8.33 2.23 8.12 2.34 7.92 2.49 7.78 2.65 7.68 2.87 7.61 3.11 7.59 12.43 7.13 13.24 7.94 13.24 19.13 .76 19.13 .69 16.63"/><polygon class="cls-1" points=".69 16.63 .69 14.03 1.77 12.71 2.05 8.83 2.08 8.56 2.15 8.33 2.23 8.12 2.34 7.92 2.49 7.78 2.65 7.68 2.87 7.61 3.11 7.59 12.43 7.13 13.24 7.94 13.24 19.13 .76 19.13 .69 16.63"/><polygon class="cls-3" points="1.97 14.1 1.79 19.12 8.9 19.12 8.9 8.62 3.04 8.62 2.42 13.8 1.97 14.1"/><polygon class="cls-1" points="1.97 14.1 1.79 19.12 8.9 19.12 8.9 8.62 3.04 8.62 2.42 13.8 1.97 14.1"/><path class="cls-3" d="M11.84,21.56s-.1-4.06-1.59-4.06-4.55.13-4.55.13l-.8,2.16,6.95,1.76Z"/><polygon class="cls-3" points="2.2 19.56 1.57 19.59 .73 19.59 .57 19.56 .38 19.46 .24 19.35 .18 19.17 .33 19.08 .33 16.98 .18 16.92 .24 16.76 .36 16.63 .49 16.55 .67 16.52 1.77 16.52 1.94 16.57 2.05 16.72 2.15 16.85 2.2 17 2.2 19.56"/><polygon class="cls-1" points="2.2 19.56 1.57 19.59 .73 19.59 .57 19.56 .38 19.46 .24 19.35 .18 19.17 .33 19.08 .33 16.98 .18 16.92 .24 16.76 .36 16.63 .49 16.55 .67 16.52 1.77 16.52 1.94 16.57 2.05 16.72 2.15 16.85 2.2 17 2.2 19.56"/><polygon class="cls-3" points="2.23 19.56 2.23 21.09 2.21 21.2 2.15 21.26 2.08 21.31 1.99 21.31 .91 20.88 .82 20.85 .73 20.81 .69 20.76 .67 20.67 .67 19.56 2.23 19.56"/><polygon class="cls-1" points="2.23 19.56 2.23 21.09 2.21 21.2 2.15 21.26 2.08 21.31 1.99 21.31 .91 20.88 .82 20.85 .73 20.81 .69 20.76 .67 20.67 .67 19.56 2.23 19.56"/><polygon class="cls-3" points="7.96 12.92 3.31 13.4 3.21 13.35 3.12 13.25 3.05 13.14 3.02 13.01 3.36 10 3.38 9.88 3.45 9.76 3.52 9.61 3.62 9.47 3.74 9.33 3.86 9.23 3.98 9.16 4.09 9.13 8.03 9.13 8.12 9.16 8.22 9.26 8.29 9.35 8.32 9.45 8.32 12.49 8.29 12.63 8.22 12.78 8.1 12.87 7.96 12.92"/><polygon class="cls-1" points="7.96 12.92 3.31 13.4 3.21 13.35 3.12 13.25 3.05 13.14 3.02 13.01 3.36 10 3.38 9.88 3.45 9.76 3.52 9.61 3.62 9.47 3.74 9.33 3.86 9.23 3.98 9.16 4.09 9.13 8.03 9.13 8.12 9.16 8.22 9.26 8.29 9.35 8.32 9.45 8.32 12.49 8.29 12.63 8.22 12.78 8.1 12.87 7.96 12.92"/><polygon class="cls-3" points="2.1 8.59 .91 13.81 1.68 13.26 1.79 13.17 1.88 13.04 1.96 12.93 1.99 12.78 2.3 9.62 2.32 9.09 2.27 8.8 2.2 8.67 2.1 8.59"/><polygon class="cls-1" points="2.1 8.59 .91 13.81 1.68 13.26 1.79 13.17 1.88 13.04 1.96 12.93 1.99 12.78 2.3 9.62 2.32 9.09 2.27 8.8 2.2 8.67 2.1 8.59"/><polygon class="cls-3" points="10.42 9.13 11.63 9.13 11.81 9.17 11.96 9.27 12.05 9.42 12.1 9.6 12.1 12.38 12.05 12.58 11.96 12.73 11.81 12.82 11.63 12.86 10.42 12.86 10.24 12.82 10.09 12.73 10 12.58 9.95 12.38 9.95 9.6 10 9.42 10.09 9.27 10.24 9.17 10.42 9.13"/><polygon class="cls-1" points="10.42 9.13 11.63 9.13 11.81 9.17 11.96 9.27 12.05 9.42 12.1 9.6 12.1 12.38 12.05 12.58 11.96 12.73 11.81 12.82 11.63 12.86 10.42 12.86 10.24 12.82 10.09 12.73 10 12.58 9.95 12.38 9.95 9.6 10 9.42 10.09 9.27 10.24 9.17 10.42 9.13"/><polygon class="cls-3" points="11.81 7.13 11.81 2.51 9.14 2.51 8.72 2.53 8.28 2.6 7.85 2.74 7.42 2.91 7.04 3.13 6.66 3.39 6.34 3.68 6.05 3.99 3.18 7.61 11.81 7.13"/><polygon class="cls-1" points="11.81 7.13 11.81 2.51 9.14 2.51 8.72 2.53 8.28 2.6 7.85 2.74 7.42 2.91 7.04 3.13 6.66 3.39 6.34 3.68 6.05 3.99 3.18 7.61 11.81 7.13"/><path class="cls-1" d="M1.96,14.86l6.95-.57h4.33M2.05,8.62h11.19"/><polygon class="cls-3" points="13.1 19.1 18.32 19.1 18.53 19.15 18.71 19.28 18.82 19.44 18.87 19.66 18.87 21.57 18.82 21.79 18.71 21.95 18.53 22.08 18.32 22.12 13.1 22.12 12.88 22.08 12.71 21.95 12.6 21.79 12.55 21.57 12.55 19.66 12.6 19.44 12.71 19.28 12.88 19.15 13.1 19.1"/><polygon class="cls-1" points="13.1 19.1 18.32 19.1 18.53 19.15 18.71 19.28 18.82 19.44 18.87 19.66 18.87 21.57 18.82 21.79 18.71 21.95 18.53 22.08 18.32 22.12 13.1 22.12 12.88 22.08 12.71 21.95 12.6 21.79 12.55 21.57 12.55 19.66 12.6 19.44 12.71 19.28 12.88 19.15 13.1 19.1"/><polygon class="cls-3" points="13.41 19.13 15.11 19.13 15.4 18.89 15.97 18.89 16.24 19.13 17.94 19.13 17.94 22.1 13.41 22.1 13.41 19.13"/><polygon class="cls-1" points="13.41 19.13 15.11 19.13 15.4 18.89 15.97 18.89 16.24 19.13 17.94 19.13 17.94 22.1 13.41 22.1 13.41 19.13"/><rect class="cls-3" x="15.27" y="2.24" width="59.69" height="14.85"/><rect class="cls-1" x="15.27" y="2.24" width="59.69" height="14.85"/><rect class="cls-3" x="73.76" y="2.24" width="1.2" height="14.85"/><rect class="cls-1" x="73.76" y="2.24" width="1.2" height="14.85"/><rect class="cls-3" x="15.27" y="2.24" width="59.69" height="1.1"/><rect class="cls-1" x="15.27" y="2.24" width="59.69" height="1.1"/><polygon class="cls-3" points="11.67 13.39 13.89 13.39 14.08 13.43 14.23 13.55 14.32 13.72 14.34 13.94 14.34 18.05 14.32 18.26 14.23 18.44 14.08 18.55 13.89 18.6 11.67 18.6 11.49 18.55 11.34 18.44 11.25 18.26 11.22 18.05 11.22 13.94 11.25 13.72 11.34 13.55 11.49 13.43 11.67 13.39"/><polygon class="cls-1" points="11.67 13.39 13.89 13.39 14.08 13.43 14.23 13.55 14.32 13.72 14.34 13.94 14.34 18.05 14.32 18.26 14.23 18.44 14.08 18.55 13.89 18.6 11.67 18.6 11.49 18.55 11.34 18.44 11.25 18.26 11.22 18.05 11.22 13.94 11.25 13.72 11.34 13.55 11.49 13.43 11.67 13.39"/><path class="cls-3" d="M11.25,21.21c0,1.63-1.32,2.96-2.96,2.96s-2.96-1.32-2.96-2.96,1.32-2.96,2.96-2.96,2.96,1.32,2.96,2.96"/><path class="cls-1" d="M11.25,21.21c0,1.63-1.32,2.96-2.96,2.96s-2.96-1.32-2.96-2.96,1.32-2.96,2.96-2.96,2.96,1.32,2.96,2.96Z"/><path class="cls-3" d="M11.98,21.21h-.4c0-3.33-1.41-3.3-1.41-3.3h-4.03s-.24.04-.24.04l-.2.12-.14.22-.09.31-.65,2.79h-2.04l-.12-.03-.15-.02-.09-.05-.12-.05-.09-.07v-.89l.12.05.14.05.15.02.14.02.14.02h1.37l.46-1.76.05-.24.07-.22.08-.19.12-.2.12-.17.14-.14.2-.15.21-.12h4.6s1.67-.11,1.67,3.92"/><path class="cls-1" d="M11.98,21.21h-.4c0-3.33-1.41-3.3-1.41-3.3h-4.03s-.24.04-.24.04l-.2.12-.14.22-.09.31-.65,2.79h-2.04l-.12-.03-.15-.02-.09-.05-.12-.05-.09-.07v-.89l.12.05.14.05.15.02.14.02.14.02h1.37l.46-1.76.05-.24.07-.22.08-.19.12-.2.12-.17.14-.14.2-.15.21-.12h4.6s1.67-.11,1.67,3.92Z"/><path class="cls-3" d="M68.46,20.41c-.28-1.39-1.39-2.77-2.81-2.81-.03,0-11.18,0-11.21,0s-5.22,0-5.26,0c-1.6,0-2.68,1.42-2.96,2.81-.02.12-.52.14-.5.03.32-1.6,1.62-3.23,3.24-3.28.03,0,5.45,0,5.48,0s11.35,0,11.39,0c1.62.05,2.79,1.57,3.11,3.16.02.12-.49.09-.49.09"/><path class="cls-1" d="M68.46,20.41c-.28-1.39-1.39-2.77-2.81-2.81-.03,0-11.18,0-11.21,0s-5.22,0-5.26,0c-1.6,0-2.68,1.42-2.96,2.81-.02.12-.52.14-.5.03.32-1.6,1.62-3.23,3.24-3.28.03,0,5.45,0,5.48,0s11.35,0,11.39,0c1.62.05,2.79,1.57,3.11,3.16.02.12-.49.09-.49.09Z"/><path class="cls-3" d="M53.05,21.21c0,1.63-1.32,2.96-2.96,2.96s-2.96-1.32-2.96-2.96,1.32-2.96,2.96-2.96,2.96,1.32,2.96,2.96"/><path class="cls-1" d="M53.05,21.21c0,1.63-1.32,2.96-2.96,2.96s-2.96-1.32-2.96-2.96,1.32-2.96,2.96-2.96,2.96,1.32,2.96,2.96Z"/><path class="cls-3" d="M60.21,21.21c0,1.63-1.32,2.96-2.96,2.96s-2.96-1.32-2.96-2.96,1.32-2.96,2.96-2.96,2.96,1.32,2.96,2.96"/><path class="cls-1" d="M60.21,21.21c0,1.63-1.32,2.96-2.96,2.96s-2.96-1.32-2.96-2.96,1.32-2.96,2.96-2.96,2.96,1.32,2.96,2.96Z"/><path class="cls-3" d="M67.36,21.21c0,1.63-1.32,2.96-2.96,2.96s-2.96-1.32-2.96-2.96,1.32-2.96,2.96-2.96,2.96,1.32,2.96,2.96"/><path class="cls-1" d="M67.36,21.21c0,1.63-1.32,2.96-2.96,2.96s-2.96-1.32-2.96-2.96,1.32-2.96,2.96-2.96,2.96,1.32,2.96,2.96Z"/><path class="cls-2" d="M26.6,21.21c0,1.63-1.32,2.96-2.96,2.96s-2.96-1.32-2.96-2.96,1.32-2.96,2.96-2.96,2.96,1.32,2.96,2.96"/><path class="cls-3" d="M23.64,17.64c1.98,0,3.58,1.6,3.58,3.58h.47c0-2.24-1.82-4.05-4.05-4.05s-4.05,1.82-4.05,4.05h.47c0-1.98,1.6-3.58,3.58-3.58"/><path class="cls-1" d="M23.64,17.64c1.98,0,3.58,1.6,3.58,3.58h.47c0-2.24-1.82-4.05-4.05-4.05s-4.05,1.82-4.05,4.05h.47c0-1.98,1.6-3.58,3.58-3.58Z"/><path class="cls-2" d="M35.19,21.21c0,1.63-1.32,2.96-2.96,2.96s-2.96-1.32-2.96-2.96,1.32-2.96,2.96-2.96,2.96,1.32,2.96,2.96"/><path class="cls-3" d="M32.24,17.64c1.98,0,3.58,1.6,3.58,3.58h.47c0-2.24-1.81-4.05-4.05-4.05s-4.06,1.82-4.06,4.05h.48c0-1.98,1.6-3.58,3.58-3.58"/><path class="cls-1" d="M32.24,17.64c1.98,0,3.58,1.6,3.58,3.58h.47c0-2.24-1.81-4.05-4.05-4.05s-4.06,1.82-4.06,4.05h.48c0-1.98,1.6-3.58,3.58-3.58Z"/></svg>