<?xml version="1.0" encoding="UTF-8"?><svg id="Capa_1" xmlns="http://www.w3.org/2000/svg" width="41.25" height="24.22" viewBox="0 0 41.25 24.22"><defs><style>.cls-1{stroke-linejoin:bevel;}.cls-1,.cls-2{fill:none;stroke:#1d1d1b;stroke-width:.3px;}.cls-3{fill:#e30613;}.cls-3,.cls-4{stroke-width:0px;}.cls-4{fill:#fff;}</style></defs><path class="cls-4" d="M15.23,9.67c-.55.51-.76,1.37-.5,2.16.26.79,2.89,8.91,2.89,8.91l6.08.83,6.7-1.47,6.29-2.74s3.75-3.58,3.99-3.81c.23-.23.43-.47.24-1.07-.67-2.06-2.73-8.4-2.85-8.8-.15-.47-.55-.78-1.04-.86-.49-.08-5.29-.72-5.29-.72l-6.7,1.47-6.29,2.74-3.52,3.36"/><path class="cls-1" d="M15.23,9.67c-.55.51-.76,1.37-.5,2.16.26.79,2.89,8.91,2.89,8.91l6.08.83,6.7-1.47,6.29-2.74s3.75-3.58,3.99-3.81c.23-.23.43-.47.24-1.07-.67-2.06-2.73-8.4-2.85-8.8-.15-.47-.55-.78-1.04-.86-.49-.08-5.29-.72-5.29-.72l-6.7,1.47-6.29,2.74-3.52,3.36"/><polygon class="cls-4" points="36.72 17.3 36.12 17.55 31.17 2.23 31.79 2.11 36.72 17.3"/><polygon class="cls-1" points="36.72 17.3 36.12 17.55 31.17 2.23 31.79 2.11 36.72 17.3"/><polygon class="cls-4" points="23.85 20.83 23.26 21.02 18.57 6.47 19.1 6.18 23.85 20.83"/><polygon class="cls-1" points="23.85 20.83 23.26 21.02 18.57 6.47 19.1 6.18 23.85 20.83"/><rect class="cls-4" x="17.69" y="19.5" width="14.14" height="2.16"/><rect class="cls-1" x="17.69" y="19.5" width="14.14" height="2.16"/><rect class="cls-4" x="2.53" y="19.66" width="15.15" height="1"/><rect class="cls-1" x="2.53" y="19.66" width="15.15" height="1"/><polygon class="cls-4" points="13.04 17.51 13.55 18.66 6.22 18.83 6.38 16.5 13.04 17.51"/><polygon class="cls-4" points="5.55 19.66 5.55 18.34 38.98 18.36 38.98 21.24 38.31 21.26 38.3 19.63 5.55 19.66"/><polyline class="cls-1" points="5.55 19.66 5.55 18.34 38.98 18.36 38.98 21.24 38.31 21.26 38.3 19.63 5.55 19.66"/><polygon class="cls-4" points="13.96 21.65 5.53 21.65 6.38 18.32 8.86 16.97 12.51 16.97 13.96 21.65"/><path class="cls-1" d="M.7,14.18l1.35.32v4.66l3.84.18,1.65-1.99,4.34-.19V7.37l-.13-1.31s-4.39,0-6.37,0-2.54.55-2.69.93c-.14.38-1.96,5.59-1.96,5.59l-.04,1.6"/><path class="cls-4" d="M12.36,16.5c-.77,0-.13-.35-.13-.35h-6.21l-3.98,2.23v.28s0,1.99,0,1.99l.84.34h1.84l.33-.34h.85s.58-1.65,1.08-2.28c.51-.64.9-.87,2.03-.87.61,0,2.71-.02,3.22-.02s1.57,4.23,1.57,4.23h.72s-1.39-5.23-2.16-5.23"/><path class="cls-1" d="M12.36,16.5c-.77,0-.13-.35-.13-.35h-6.21l-3.98,2.23v.28s0,1.99,0,1.99l.84.34h1.84l.33-.34h.85s.58-1.65,1.08-2.28c.51-.64.9-.87,2.03-.87.61,0,2.71-.02,3.22-.02s1.57,4.23,1.57,4.23h.72s-1.39-5.23-2.16-5.23Z"/><polygon class="cls-4" points="9.88 7.39 11.88 7.39 12.39 14.02 12.39 16.49 9.88 16.49 9.88 7.39"/><polygon class="cls-1" points="9.88 7.39 11.88 7.39 12.39 14.02 12.39 16.49 9.88 16.49 9.88 7.39"/><path class="cls-4" d="M9.87,16.5V7.39s-5.33,0-5.33,0c-.39,0-.83.26-1,.83-.17.57-1.53,5.17-1.53,5.17v5h3.65s.69-.86,1.13-1.29c.45-.44.95-.6,2.03-.6h1.04Z"/><path class="cls-1" d="M.72,12.64h1.14l1.37-4.83s.07-.58-.4-.58h-.22l-1.88,5.41M5.37,7.99v3.84M3.86,11.94l-.11-.04-.1-.07-.09-.08-.03-.11-.04-.09v-.13l.74-3.15s.13-.29.36-.29h4.34c.14,0,.27.12.27.33v2.94c0,.2-.18.36-.31.36-.12,0-4.86.33-4.86.33h-.18M.62,18.2l-.36.21v.91l.57.61h1.19v-1.74H.62ZM9.87,16.5V7.39s-5.33,0-5.33,0c-.39,0-.83.26-1,.83-.17.57-1.53,5.17-1.53,5.17v5h3.65s.69-.86,1.13-1.29c.45-.44.95-.6,2.03-.6h1.04Z"/><path class="cls-3" d="M6.7,21.05c0,1.67,1.35,3.02,3.02,3.02s3.02-1.35,3.02-3.02-1.35-3.02-3.02-3.02-3.02,1.35-3.02,3.02"/><path class="cls-4" d="M24.81,17.3c3.36,0,3.62,3.1,3.62,3.1l1.64.05s.26-3.12,3.62-3.12,3.65,3.15,3.65,3.15h-16.18s.29-3.18,3.65-3.18"/><polygon class="cls-4" points="28.21 20.76 28.66 20.76 28.58 20.02 28.37 19.34 27.99 18.71 27.54 18.18 26.95 17.72 26.29 17.4 25.58 17.19 24.81 17.12 24.04 17.19 23.33 17.4 22.69 17.72 22.1 18.18 21.64 18.71 21.28 19.34 21.06 20.02 20.98 20.76 21.38 20.76 21.47 20.09 21.64 19.49 21.96 18.93 22.4 18.46 22.89 18.07 23.48 17.77 24.11 17.6 24.81 17.53 25.5 17.6 26.14 17.77 26.72 18.07 27.22 18.46 27.63 18.93 27.94 19.49 28.12 20.09 28.21 20.76"/><polygon class="cls-2" points="28.21 20.76 28.66 20.76 28.58 20.02 28.37 19.34 27.99 18.71 27.54 18.18 26.95 17.72 26.29 17.4 25.58 17.19 24.81 17.12 24.04 17.19 23.33 17.4 22.69 17.72 22.1 18.18 21.64 18.71 21.28 19.34 21.06 20.02 20.98 20.76 21.38 20.76 21.47 20.09 21.64 19.49 21.96 18.93 22.4 18.46 22.89 18.07 23.48 17.77 24.11 17.6 24.81 17.53 25.5 17.6 26.14 17.77 26.72 18.07 27.22 18.46 27.63 18.93 27.94 19.49 28.12 20.09 28.21 20.76"/><polygon class="cls-4" points="37.07 20.76 37.52 20.76 37.44 20.02 37.22 19.34 36.86 18.71 36.4 18.18 35.82 17.72 35.16 17.4 34.46 17.19 33.7 17.12 32.93 17.19 32.22 17.4 31.59 17.72 31.01 18.18 30.55 18.71 30.18 19.34 29.97 20.02 29.89 20.76 30.29 20.76 30.37 20.09 30.55 19.49 30.87 18.93 31.3 18.46 31.79 18.07 32.37 17.77 33 17.6 33.7 17.53 34.38 17.6 35.01 17.77 35.59 18.07 36.08 18.46 36.49 18.93 36.81 19.49 36.98 20.09 37.07 20.76"/><polygon class="cls-2" points="37.07 20.76 37.52 20.76 37.44 20.02 37.22 19.34 36.86 18.71 36.4 18.18 35.82 17.72 35.16 17.4 34.46 17.19 33.7 17.12 32.93 17.19 32.22 17.4 31.59 17.72 31.01 18.18 30.55 18.71 30.18 19.34 29.97 20.02 29.89 20.76 30.29 20.76 30.37 20.09 30.55 19.49 30.87 18.93 31.3 18.46 31.79 18.07 32.37 17.77 33 17.6 33.7 17.53 34.38 17.6 35.01 17.77 35.59 18.07 36.08 18.46 36.49 18.93 36.81 19.49 36.98 20.09 37.07 20.76"/><polygon class="cls-3" points="24.82 18.12 25.43 18.18 26.01 18.35 26.5 18.65 26.96 19 27.31 19.46 27.62 19.97 27.8 20.55 27.85 21.15 27.8 21.76 27.62 22.34 27.31 22.83 26.96 23.29 26.5 23.64 26.01 23.95 25.43 24.13 24.82 24.17 24.22 24.13 23.64 23.95 23.13 23.64 22.67 23.29 22.32 22.83 22.02 22.34 21.84 21.76 21.79 21.15 21.84 20.55 22.02 19.97 22.32 19.46 22.67 19 23.13 18.65 23.64 18.35 24.22 18.18 24.82 18.12"/><polygon class="cls-3" points="33.69 18.1 34.3 18.14 34.88 18.33 35.37 18.63 35.83 18.98 36.18 19.44 36.48 19.94 36.66 20.53 36.71 21.13 36.66 21.73 36.48 22.31 36.18 22.81 35.83 23.27 35.37 23.62 34.88 23.92 34.3 24.1 33.69 24.15 33.09 24.1 32.51 23.92 32 23.62 31.54 23.27 31.19 22.81 30.89 22.31 30.72 21.73 30.66 21.13 30.72 20.53 30.89 19.94 31.19 19.44 31.54 18.98 32 18.63 32.51 18.33 33.09 18.14 33.69 18.1"/><polygon class="cls-4" points="2.03 13.38 .5 13.38 .4 13.69 .4 18.11 .5 18.19 2.03 18.19 2.03 13.38"/><polygon class="cls-1" points="2.03 13.38 .5 13.38 .4 13.69 .4 18.11 .5 18.19 2.03 18.19 2.03 13.38"/></svg>