<?xml version="1.0" encoding="UTF-8"?><svg id="Capa_1" xmlns="http://www.w3.org/2000/svg" width="75.62" height="24.22" viewBox="0 0 75.62 24.22"><defs><style>.cls-1{fill:none;stroke:#1d1d1b;stroke-width:.3px;}.cls-2{fill:#e30613;}.cls-2,.cls-3{stroke-width:0px;}.cls-3{fill:#fff;}</style></defs><polyline class="cls-3" points="13.67 21.7 15.62 21.7 17.37 21.28 25.7 21.28 26.44 20.37 34.91 20.93 37.05 20.93 37.05 20.16 68.21 20.16 70.19 20.16 70.19 20.79 72.18 21.55 72.18 22.39 73.15 22.39 73.15 20.28 72.18 20.28 72.18 20.41 70.3 19.7 70.3 18.9 71.72 18.9 71.72 17.09 16.45 17.09 15.1 17.09 6.47 16.58"/><polyline class="cls-1" points="13.67 21.7 15.62 21.7 17.37 21.28 25.7 21.28 26.44 20.37 34.91 20.93 37.05 20.93 37.05 20.16 68.21 20.16 70.19 20.16 70.19 20.79 72.18 21.55 72.18 22.39 73.15 22.39 73.15 20.28 72.18 20.28 72.18 20.41 70.3 19.7 70.3 18.9 71.72 18.9 71.72 17.09 16.45 17.09 15.1 17.09 6.47 16.58"/><path class="cls-3" d="M68.68,20.86s-.33-3.52-3.32-3.52h-16.88s-2.72,1.33-2.72,3.39l-9.84.73s-.33-4.05-3.79-4.05-3.85,3.59-3.85,4.05h-1s0-4.05-3.79-4.05-3.75,4.15-3.75,4.15l8.84.8,40.11-1.5Z"/><polygon class="cls-3" points=".53 16.63 .53 14.03 1.61 12.71 1.9 8.83 1.92 8.56 1.99 8.33 2.07 8.12 2.19 7.92 2.34 7.78 2.5 7.68 2.72 7.61 2.96 7.59 12.27 7.13 13.09 7.94 13.09 19.13 .6 19.13 .53 16.63"/><polygon class="cls-1" points=".53 16.63 .53 14.03 1.61 12.71 1.9 8.83 1.92 8.56 1.99 8.33 2.07 8.12 2.19 7.92 2.34 7.78 2.5 7.68 2.72 7.61 2.96 7.59 12.27 7.13 13.09 7.94 13.09 19.13 .6 19.13 .53 16.63"/><polygon class="cls-3" points="1.82 14.1 1.64 19.12 8.75 19.12 8.75 8.62 2.89 8.62 2.27 13.8 1.82 14.1"/><polygon class="cls-1" points="1.82 14.1 1.64 19.12 8.75 19.12 8.75 8.62 2.89 8.62 2.27 13.8 1.82 14.1"/><path class="cls-3" d="M11.69,21.56s-.1-4.06-1.59-4.06-4.55.13-4.55.13l-.8,2.16,6.95,1.76Z"/><polygon class="cls-3" points="2.05 19.56 1.42 19.59 .58 19.59 .42 19.56 .22 19.46 .09 19.35 .03 19.17 .18 19.08 .18 16.98 .03 16.92 .09 16.76 .2 16.63 .34 16.55 .51 16.52 1.61 16.52 1.79 16.57 1.9 16.72 1.99 16.85 2.05 17 2.05 19.56"/><polygon class="cls-1" points="2.05 19.56 1.42 19.59 .58 19.59 .42 19.56 .22 19.46 .09 19.35 .03 19.17 .18 19.08 .18 16.98 .03 16.92 .09 16.76 .2 16.63 .34 16.55 .51 16.52 1.61 16.52 1.79 16.57 1.9 16.72 1.99 16.85 2.05 17 2.05 19.56"/><polygon class="cls-3" points="2.07 19.56 2.07 21.09 2.05 21.2 1.99 21.26 1.92 21.31 1.83 21.31 .75 20.88 .66 20.85 .58 20.81 .53 20.76 .51 20.67 .51 19.56 2.07 19.56"/><polygon class="cls-1" points="2.07 19.56 2.07 21.09 2.05 21.2 1.99 21.26 1.92 21.31 1.83 21.31 .75 20.88 .66 20.85 .58 20.81 .53 20.76 .51 20.67 .51 19.56 2.07 19.56"/><polygon class="cls-3" points="7.81 12.92 3.16 13.4 3.06 13.35 2.96 13.25 2.89 13.14 2.87 13.01 3.2 10 3.23 9.88 3.3 9.76 3.36 9.61 3.47 9.47 3.58 9.33 3.71 9.23 3.82 9.16 3.94 9.13 7.87 9.13 7.97 9.16 8.07 9.26 8.14 9.35 8.16 9.45 8.16 12.49 8.14 12.63 8.07 12.78 7.94 12.87 7.81 12.92"/><polygon class="cls-1" points="7.81 12.92 3.16 13.4 3.06 13.35 2.96 13.25 2.89 13.14 2.87 13.01 3.2 10 3.23 9.88 3.3 9.76 3.36 9.61 3.47 9.47 3.58 9.33 3.71 9.23 3.82 9.16 3.94 9.13 7.87 9.13 7.97 9.16 8.07 9.26 8.14 9.35 8.16 9.45 8.16 12.49 8.14 12.63 8.07 12.78 7.94 12.87 7.81 12.92"/><polygon class="cls-3" points="1.95 8.59 .75 13.81 1.52 13.26 1.64 13.17 1.73 13.04 1.81 12.93 1.83 12.78 2.14 9.62 2.16 9.09 2.12 8.8 2.05 8.67 1.95 8.59"/><polygon class="cls-1" points="1.95 8.59 .75 13.81 1.52 13.26 1.64 13.17 1.73 13.04 1.81 12.93 1.83 12.78 2.14 9.62 2.16 9.09 2.12 8.8 2.05 8.67 1.95 8.59"/><polygon class="cls-3" points="10.27 9.13 11.47 9.13 11.66 9.17 11.81 9.27 11.9 9.42 11.94 9.6 11.94 12.38 11.9 12.58 11.81 12.73 11.66 12.82 11.47 12.86 10.27 12.86 10.08 12.82 9.94 12.73 9.84 12.58 9.8 12.38 9.8 9.6 9.84 9.42 9.94 9.27 10.08 9.17 10.27 9.13"/><polygon class="cls-1" points="10.27 9.13 11.47 9.13 11.66 9.17 11.81 9.27 11.9 9.42 11.94 9.6 11.94 12.38 11.9 12.58 11.81 12.73 11.66 12.82 11.47 12.86 10.27 12.86 10.08 12.82 9.94 12.73 9.84 12.58 9.8 12.38 9.8 9.6 9.84 9.42 9.94 9.27 10.08 9.17 10.27 9.13"/><polygon class="cls-3" points="11.65 7.13 11.65 2.51 8.99 2.51 8.56 2.53 8.12 2.6 7.7 2.74 7.26 2.91 6.89 3.13 6.51 3.39 6.19 3.68 5.9 3.99 3.03 7.61 11.65 7.13"/><polygon class="cls-1" points="11.65 7.13 11.65 2.51 8.99 2.51 8.56 2.53 8.12 2.6 7.7 2.74 7.26 2.91 6.89 3.13 6.51 3.39 6.19 3.68 5.9 3.99 3.03 7.61 11.65 7.13"/><path class="cls-1" d="M1.81,14.86l6.95-.57h4.33M1.9,8.62h11.19"/><polygon class="cls-3" points="12.95 19.1 18.16 19.1 18.38 19.15 18.55 19.28 18.67 19.44 18.71 19.66 18.71 21.57 18.67 21.79 18.55 21.95 18.38 22.08 18.16 22.12 12.95 22.12 12.73 22.08 12.56 21.95 12.45 21.79 12.4 21.57 12.4 19.66 12.45 19.44 12.56 19.28 12.73 19.15 12.95 19.1"/><polygon class="cls-1" points="12.95 19.1 18.16 19.1 18.38 19.15 18.55 19.28 18.67 19.44 18.71 19.66 18.71 21.57 18.67 21.79 18.55 21.95 18.38 22.08 18.16 22.12 12.95 22.12 12.73 22.08 12.56 21.95 12.45 21.79 12.4 21.57 12.4 19.66 12.45 19.44 12.56 19.28 12.73 19.15 12.95 19.1"/><polygon class="cls-3" points="13.26 19.13 14.96 19.13 15.24 18.89 15.82 18.89 16.08 19.13 17.79 19.13 17.79 22.1 13.26 22.1 13.26 19.13"/><polygon class="cls-1" points="13.26 19.13 14.96 19.13 15.24 18.89 15.82 18.89 16.08 19.13 17.79 19.13 17.79 22.1 13.26 22.1 13.26 19.13"/><rect class="cls-3" x="15.11" y="2.24" width="59.69" height="14.85"/><rect class="cls-1" x="15.11" y="2.24" width="59.69" height="14.85"/><rect class="cls-3" x="73.61" y="2.24" width="1.2" height="14.85"/><rect class="cls-1" x="73.61" y="2.24" width="1.2" height="14.85"/><rect class="cls-3" x="15.11" y="2.24" width="59.69" height="1.1"/><rect class="cls-1" x="15.11" y="2.24" width="59.69" height="1.1"/><polygon class="cls-3" points="11.52 13.39 13.74 13.39 13.92 13.43 14.07 13.55 14.16 13.72 14.19 13.94 14.19 18.05 14.16 18.26 14.07 18.44 13.92 18.55 13.74 18.6 11.52 18.6 11.34 18.55 11.19 18.44 11.09 18.26 11.07 18.05 11.07 13.94 11.09 13.72 11.19 13.55 11.34 13.43 11.52 13.39"/><polygon class="cls-1" points="11.52 13.39 13.74 13.39 13.92 13.43 14.07 13.55 14.16 13.72 14.19 13.94 14.19 18.05 14.16 18.26 14.07 18.44 13.92 18.55 13.74 18.6 11.52 18.6 11.34 18.55 11.19 18.44 11.09 18.26 11.07 18.05 11.07 13.94 11.09 13.72 11.19 13.55 11.34 13.43 11.52 13.39"/><path class="cls-3" d="M11.1,21.21c0,1.63-1.32,2.96-2.96,2.96s-2.96-1.32-2.96-2.96,1.32-2.96,2.96-2.96,2.96,1.32,2.96,2.96"/><path class="cls-1" d="M11.1,21.21c0,1.63-1.32,2.96-2.96,2.96s-2.96-1.32-2.96-2.96,1.32-2.96,2.96-2.96,2.96,1.32,2.96,2.96Z"/><path class="cls-3" d="M11.83,21.21h-.4c0-3.33-1.41-3.3-1.41-3.3h-4.03s-.24.04-.24.04l-.2.12-.14.22-.09.31-.65,2.79h-2.04l-.12-.03-.15-.02-.09-.05-.12-.05-.09-.07v-.89l.12.05.14.05.15.02.14.02.14.02h1.37l.46-1.76.05-.24.07-.22.08-.19.12-.2.12-.17.14-.14.2-.15.21-.12h4.6s1.67-.11,1.67,3.92"/><path class="cls-1" d="M11.83,21.21h-.4c0-3.33-1.41-3.3-1.41-3.3h-4.03s-.24.04-.24.04l-.2.12-.14.22-.09.31-.65,2.79h-2.04l-.12-.03-.15-.02-.09-.05-.12-.05-.09-.07v-.89l.12.05.14.05.15.02.14.02.14.02h1.37l.46-1.76.05-.24.07-.22.08-.19.12-.2.12-.17.14-.14.2-.15.21-.12h4.6s1.67-.11,1.67,3.92Z"/><path class="cls-3" d="M68.31,20.41c-.28-1.39-1.39-2.77-2.81-2.81-.03,0-11.18,0-11.21,0-.03,0-5.22,0-5.26,0-1.6,0-2.68,1.42-2.96,2.81-.02.12-.52.14-.5.03.32-1.6,1.62-3.23,3.24-3.28.03,0,5.45,0,5.48,0,.03,0,11.35,0,11.39,0,1.62.05,2.79,1.57,3.11,3.16.02.12-.49.09-.49.09"/><path class="cls-1" d="M68.31,20.41c-.28-1.39-1.39-2.77-2.81-2.81-.03,0-11.18,0-11.21,0-.03,0-5.22,0-5.26,0-1.6,0-2.68,1.42-2.96,2.81-.02.12-.52.14-.5.03.32-1.6,1.62-3.23,3.24-3.28.03,0,5.45,0,5.48,0,.03,0,11.35,0,11.39,0,1.62.05,2.79,1.57,3.11,3.16.02.12-.49.09-.49.09Z"/><path class="cls-2" d="M52.9,21.21c0,1.63-1.32,2.96-2.96,2.96s-2.96-1.32-2.96-2.96,1.32-2.96,2.96-2.96,2.96,1.32,2.96,2.96"/><path class="cls-2" d="M60.05,21.21c0,1.63-1.32,2.96-2.96,2.96s-2.96-1.32-2.96-2.96,1.32-2.96,2.96-2.96,2.96,1.32,2.96,2.96"/><path class="cls-2" d="M67.21,21.21c0,1.63-1.32,2.96-2.96,2.96s-2.96-1.32-2.96-2.96,1.32-2.96,2.96-2.96,2.96,1.32,2.96,2.96"/><path class="cls-3" d="M26.44,21.21c0,1.63-1.32,2.96-2.96,2.96s-2.96-1.32-2.96-2.96,1.32-2.96,2.96-2.96,2.96,1.32,2.96,2.96"/><path class="cls-1" d="M26.44,21.21c0,1.63-1.32,2.96-2.96,2.96s-2.96-1.32-2.96-2.96,1.32-2.96,2.96-2.96,2.96,1.32,2.96,2.96Z"/><path class="cls-3" d="M23.49,17.64c1.98,0,3.58,1.6,3.58,3.58h.47c0-2.24-1.82-4.05-4.06-4.05s-4.05,1.82-4.05,4.05h.48c0-1.98,1.6-3.58,3.58-3.58"/><path class="cls-1" d="M23.49,17.64c1.98,0,3.58,1.6,3.58,3.58h.47c0-2.24-1.82-4.05-4.06-4.05s-4.05,1.82-4.05,4.05h.48c0-1.98,1.6-3.58,3.58-3.58Z"/><path class="cls-3" d="M35.04,21.21c0,1.63-1.32,2.96-2.96,2.96s-2.96-1.32-2.96-2.96,1.32-2.96,2.96-2.96,2.96,1.32,2.96,2.96"/><path class="cls-1" d="M35.04,21.21c0,1.63-1.32,2.96-2.96,2.96s-2.96-1.32-2.96-2.96,1.32-2.96,2.96-2.96,2.96,1.32,2.96,2.96Z"/><path class="cls-3" d="M32.08,17.64c1.98,0,3.58,1.6,3.58,3.58h.47c0-2.24-1.81-4.05-4.05-4.05s-4.05,1.82-4.05,4.05h.47c0-1.98,1.6-3.58,3.58-3.58"/><path class="cls-1" d="M32.08,17.64c1.98,0,3.58,1.6,3.58,3.58h.47c0-2.24-1.81-4.05-4.05-4.05s-4.05,1.82-4.05,4.05h.47c0-1.98,1.6-3.58,3.58-3.58Z"/></svg>