<?xml version="1.0" encoding="UTF-8"?><svg id="Capa_1" xmlns="http://www.w3.org/2000/svg" width="59.51" height="24.22" viewBox="0 0 59.51 24.22"><defs><style>.cls-1{fill:none;stroke:#1d1d1b;stroke-width:.3px;}.cls-2{fill:#e30613;}.cls-2,.cls-3{stroke-width:0px;}.cls-3{fill:#fff;}</style></defs><rect class="cls-3" x="23.01" y="15.67" width="35.11" height="2.04"/><rect class="cls-1" x="23.01" y="15.67" width="35.11" height="2.04"/><polygon class="cls-3" points=".91 16.26 .91 13.65 2 12.31 2.27 8.4 2.29 8.29 2.35 8.12 2.45 7.91 2.55 7.69 2.7 7.48 2.89 7.29 3.1 7.17 3.34 7.12 12.72 7.14 13.55 7.97 13.55 18.76 .98 18.76 .91 16.26"/><polygon class="cls-1" points=".91 16.26 .91 13.65 2 12.31 2.27 8.4 2.29 8.29 2.35 8.12 2.45 7.91 2.55 7.69 2.7 7.48 2.89 7.29 3.1 7.17 3.34 7.12 12.72 7.14 13.55 7.97 13.55 18.76 .98 18.76 .91 16.26"/><path class="cls-3" d="M2.13,13.53v4.83h5.77v-5.35H2.65c-.37,0-.52.41-.52.52"/><path class="cls-1" d="M2.13,13.53v4.83h5.77v-5.35H2.65c-.37,0-.52.41-.52.52Z"/><rect class="cls-3" x="14.81" y="1.03" width="43.31" height="14.95"/><rect class="cls-1" x="14.81" y="1.03" width="43.31" height="14.95"/><polygon class="cls-3" points="11.73 20.77 8.62 20.77 7.6 20.77 6.56 20.77 5.53 20.77 4.51 20.77 3.47 20.77 2.45 20.77 2.45 19.22 .97 19.22 .86 19.21 .76 19.17 .67 19.14 .57 19.07 .5 18.98 .44 18.9 .39 18.82 .38 18.73 .38 16.66 .39 16.57 .44 16.47 .48 16.39 .55 16.32 .63 16.25 .7 16.2 .81 16.16 .9 16.14 2.02 16.14 2.17 16.2 2.31 16.32 2.42 16.47 2.45 16.64 2.45 17.77 2.46 17.89 2.52 18 2.6 18.11 2.7 18.2 2.81 18.27 2.94 18.33 3.07 18.36 3.19 18.39 4.61 18.39 4.72 18.36 4.85 18.35 4.95 18.3 5.04 18.23 5.13 18.16 5.2 18.05 5.25 17.96 5.26 17.86 5.26 17.26 5.29 17.09 5.35 16.94 5.46 16.84 5.6 16.76 5.78 16.72 5.99 16.67 6.24 16.66 6.49 16.66 11.73 16.66 12.74 18.2 18.03 18.2 19.04 16.66 27.82 16.66 28.33 17.18 58.24 17.18 58.24 17.65 57.72 18.7 57.72 21.52 57.16 21.52 57.16 20.27 42.65 20.27 35.84 20.27 36.36 19.22 29.24 19.22 29.24 20.77 14.81 20.76 11.73 20.77"/><polygon class="cls-1" points="11.73 20.77 8.62 20.77 7.6 20.77 6.56 20.77 5.53 20.77 4.51 20.77 3.47 20.77 2.45 20.77 2.45 19.22 .97 19.22 .86 19.21 .76 19.17 .67 19.14 .57 19.07 .5 18.98 .44 18.9 .39 18.82 .38 18.73 .38 16.66 .39 16.57 .44 16.47 .48 16.39 .55 16.32 .63 16.25 .7 16.2 .81 16.16 .9 16.14 2.02 16.14 2.17 16.2 2.31 16.32 2.42 16.47 2.45 16.64 2.45 17.77 2.46 17.89 2.52 18 2.6 18.11 2.7 18.2 2.81 18.27 2.94 18.33 3.07 18.36 3.19 18.39 4.61 18.39 4.72 18.36 4.85 18.35 4.95 18.3 5.04 18.23 5.13 18.16 5.2 18.05 5.25 17.96 5.26 17.86 5.26 17.26 5.29 17.09 5.35 16.94 5.46 16.84 5.6 16.76 5.78 16.72 5.99 16.67 6.24 16.66 6.49 16.66 11.73 16.66 12.74 18.2 18.03 18.2 19.04 16.66 27.82 16.66 28.33 17.18 58.24 17.18 58.24 17.65 57.72 18.7 57.72 21.52 57.16 21.52 57.16 20.27 42.65 20.27 35.84 20.27 36.36 19.22 29.24 19.22 29.24 20.77 14.81 20.76 11.73 20.77"/><path class="cls-3" d="M54.8,21.23s-.31-3.89-3.89-3.89-3.8,3.5-3.8,3.5h-.96s-.35-3.5-3.58-3.5-3.89,3.45-3.89,3.45l-26.01.48s-.31-3.98-3.8-3.98-3.76,3.98-3.76,3.98l49.71-.04Z"/><polygon class="cls-3" points="2.45 19.22 2.45 21.08 2.43 21.17 2.38 21.24 2.31 21.29 2.23 21.31 1.12 21.31 1.03 21.29 .97 21.24 .91 21.17 .9 21.08 .9 19.22 2.45 19.22"/><polygon class="cls-1" points="2.45 19.22 2.45 21.08 2.43 21.17 2.38 21.24 2.31 21.29 2.23 21.31 1.12 21.31 1.03 21.29 .97 21.24 .91 21.17 .9 21.08 .9 19.22 2.45 19.22"/><polygon class="cls-3" points="12.41 12.48 14.92 12.48 15.1 12.51 15.25 12.63 15.34 12.81 15.37 13.03 15.37 17.71 15.34 17.93 15.25 18.11 15.1 18.23 14.92 18.26 12.41 18.26 12.25 18.23 12.09 18.11 12 17.93 11.97 17.71 11.97 13.03 12 12.81 12.09 12.63 12.25 12.51 12.41 12.48"/><polygon class="cls-1" points="12.41 12.48 14.92 12.48 15.1 12.51 15.25 12.63 15.34 12.81 15.37 13.03 15.37 17.71 15.34 17.93 15.25 18.11 15.1 18.23 14.92 18.26 12.41 18.26 12.25 18.23 12.09 18.11 12 17.93 11.97 17.71 11.97 13.03 12 12.81 12.09 12.63 12.25 12.51 12.41 12.48"/><path class="cls-3" d="M3.02,9.33c-.02.19-.34,3.68-.34,3.68h5.23v-4.51s-3.65-.05-4.15-.05-.72.69-.74.88"/><path class="cls-1" d="M3.02,9.33c-.02.19-.34,3.68-.34,3.68h5.23v-4.51s-3.65-.05-4.15-.05-.72.69-.74.88Z"/><polygon class="cls-3" points="2.33 8.19 1.1 13.44 1.87 12.9 2 12.78 2.11 12.66 2.17 12.53 2.21 12.41 2.52 9.21 2.54 8.69 2.5 8.41 2.42 8.28 2.33 8.19"/><polygon class="cls-1" points="2.33 8.19 1.1 13.44 1.87 12.9 2 12.78 2.11 12.66 2.17 12.53 2.21 12.41 2.52 9.21 2.54 8.69 2.5 8.41 2.42 8.28 2.33 8.19"/><rect class="cls-3" x="8.42" y="8.5" width="2.42" height="4.24"/><rect class="cls-1" x="8.42" y="8.5" width="2.42" height="4.24"/><polygon class="cls-3" points="12.25 7.12 12.25 2.05 9.42 2.05 9.21 2.05 8.99 2.08 8.77 2.11 8.56 2.15 8.34 2.21 8.13 2.28 7.93 2.37 7.72 2.46 7.51 2.55 7.3 2.67 7.11 2.79 6.94 2.92 6.77 3.06 6.59 3.22 6.43 3.37 6.3 3.53 3.25 7.12 12.25 7.12"/><polygon class="cls-1" points="12.25 7.12 12.25 2.05 9.42 2.05 9.21 2.05 8.99 2.08 8.77 2.11 8.56 2.15 8.34 2.21 8.13 2.28 7.93 2.37 7.72 2.46 7.51 2.55 7.3 2.67 7.11 2.79 6.94 2.92 6.77 3.06 6.59 3.22 6.43 3.37 6.3 3.53 3.25 7.12 12.25 7.12"/><rect class="cls-3" x="14.81" y=".15" width="44.32" height=".99"/><rect class="cls-1" x="14.81" y=".15" width="44.32" height=".99"/><polygon class="cls-3" points="59.13 .15 57.79 .15 57.79 16.54 58.3 18.94 59.13 18.94 59.13 .15"/><polygon class="cls-1" points="59.13 .15 57.79 .15 57.79 16.54 58.3 18.94 59.13 18.94 59.13 .15"/><path class="cls-2" d="M45.39,21.12c0,1.61-1.31,2.92-2.92,2.92s-2.92-1.3-2.92-2.92,1.31-2.92,2.92-2.92,2.92,1.31,2.92,2.92"/><path class="cls-3" d="M42.47,17.58c1.95,0,3.53,1.58,3.53,3.53h.47c0-2.21-1.79-4-4-4s-4,1.79-4,4h.47c0-1.95,1.58-3.53,3.53-3.53"/><path class="cls-1" d="M42.47,17.58c1.95,0,3.53,1.58,3.53,3.53h.47c0-2.21-1.79-4-4-4s-4,1.79-4,4h.47c0-1.95,1.58-3.53,3.53-3.53Z"/><path class="cls-2" d="M53.88,21.12c0,1.61-1.31,2.92-2.92,2.92s-2.92-1.3-2.92-2.92,1.31-2.92,2.92-2.92,2.92,1.31,2.92,2.92"/><path class="cls-3" d="M50.96,17.58c1.95,0,3.53,1.58,3.53,3.53h.47c0-2.21-1.79-4-4-4s-4,1.79-4,4h.47c0-1.95,1.58-3.53,3.53-3.53"/><path class="cls-1" d="M50.96,17.58c1.95,0,3.53,1.58,3.53,3.53h.47c0-2.21-1.79-4-4-4s-4,1.79-4,4h.47c0-1.95,1.58-3.53,3.53-3.53Z"/><path class="cls-3" d="M11.78,21.12c0,1.61-1.31,2.92-2.92,2.92s-2.92-1.3-2.92-2.92,1.31-2.92,2.92-2.92,2.92,1.31,2.92,2.92"/><path class="cls-1" d="M11.78,21.12c0,1.61-1.31,2.92-2.92,2.92s-2.92-1.3-2.92-2.92,1.31-2.92,2.92-2.92,2.92,1.31,2.92,2.92Z"/><path class="cls-3" d="M8.86,17.58c1.95,0,3.53,1.58,3.53,3.53h.47c0-2.21-1.79-4-4-4s-4,1.79-4,4h.47c0-1.95,1.58-3.53,3.53-3.53"/><path class="cls-1" d="M8.86,17.58c1.95,0,3.53,1.58,3.53,3.53h.47c0-2.21-1.79-4-4-4s-4,1.79-4,4h.47c0-1.95,1.58-3.53,3.53-3.53Z"/></svg>