<?xml version="1.0" encoding="UTF-8"?><svg id="Capa_1" xmlns="http://www.w3.org/2000/svg" width="59.67" height="24.22" viewBox="0 0 59.67 24.22"><defs><style>.cls-1{fill:none;stroke:#1d1d1b;stroke-width:.3px;}.cls-2{fill:#e30613;}.cls-2,.cls-3,.cls-4{stroke-width:0px;}.cls-3{fill:#706f6f;}.cls-4{fill:#fff;}</style></defs><rect class="cls-4" x="23.08" y="15.67" width="35.11" height="2.04"/><rect class="cls-1" x="23.08" y="15.67" width="35.11" height="2.04"/><polygon class="cls-4" points=".99 16.26 .99 13.65 2.07 12.31 2.35 8.4 2.37 8.29 2.43 8.12 2.53 7.91 2.62 7.69 2.78 7.48 2.97 7.29 3.18 7.17 3.42 7.12 12.8 7.14 13.63 7.97 13.63 18.76 1.06 18.76 .99 16.26"/><polygon class="cls-1" points=".99 16.26 .99 13.65 2.07 12.31 2.35 8.4 2.37 8.29 2.43 8.12 2.53 7.91 2.62 7.69 2.78 7.48 2.97 7.29 3.18 7.17 3.42 7.12 12.8 7.14 13.63 7.97 13.63 18.76 1.06 18.76 .99 16.26"/><path class="cls-4" d="M2.21,13.53v4.83h5.77v-5.35H2.73c-.37,0-.52.41-.52.52"/><path class="cls-1" d="M2.21,13.53v4.83h5.77v-5.35H2.73c-.37,0-.52.41-.52.52Z"/><rect class="cls-4" x="14.89" y="1.03" width="43.31" height="14.95"/><rect class="cls-1" x="14.89" y="1.03" width="43.31" height="14.95"/><polygon class="cls-4" points="11.81 20.77 8.7 20.77 7.67 20.77 6.64 20.77 5.61 20.77 4.59 20.77 3.55 20.77 2.53 20.77 2.53 19.22 1.05 19.22 .94 19.21 .84 19.17 .75 19.14 .65 19.07 .58 18.98 .51 18.9 .47 18.82 .46 18.73 .46 16.66 .47 16.57 .51 16.47 .56 16.39 .63 16.32 .7 16.25 .78 16.2 .89 16.16 .98 16.14 2.1 16.14 2.25 16.2 2.38 16.32 2.49 16.47 2.53 16.64 2.53 17.77 2.54 17.89 2.59 18 2.68 18.11 2.78 18.2 2.89 18.27 3.02 18.33 3.15 18.36 3.27 18.39 4.69 18.39 4.8 18.36 4.92 18.35 5.02 18.3 5.12 18.23 5.21 18.16 5.28 18.05 5.33 17.96 5.34 17.86 5.34 17.26 5.37 17.09 5.43 16.94 5.54 16.84 5.67 16.76 5.86 16.72 6.07 16.67 6.31 16.66 6.57 16.66 11.81 16.66 12.82 18.2 18.11 18.2 19.12 16.66 27.9 16.66 28.41 17.18 58.32 17.18 58.32 17.65 57.8 18.7 57.8 21.52 57.24 21.52 57.24 20.27 42.73 20.27 35.92 20.27 36.44 19.22 29.32 19.22 29.32 20.77 14.89 20.76 11.81 20.77"/><polygon class="cls-1" points="11.81 20.77 8.7 20.77 7.67 20.77 6.64 20.77 5.61 20.77 4.59 20.77 3.55 20.77 2.53 20.77 2.53 19.22 1.05 19.22 .94 19.21 .84 19.17 .75 19.14 .65 19.07 .58 18.98 .51 18.9 .47 18.82 .46 18.73 .46 16.66 .47 16.57 .51 16.47 .56 16.39 .63 16.32 .7 16.25 .78 16.2 .89 16.16 .98 16.14 2.1 16.14 2.25 16.2 2.38 16.32 2.49 16.47 2.53 16.64 2.53 17.77 2.54 17.89 2.59 18 2.68 18.11 2.78 18.2 2.89 18.27 3.02 18.33 3.15 18.36 3.27 18.39 4.69 18.39 4.8 18.36 4.92 18.35 5.02 18.3 5.12 18.23 5.21 18.16 5.28 18.05 5.33 17.96 5.34 17.86 5.34 17.26 5.37 17.09 5.43 16.94 5.54 16.84 5.67 16.76 5.86 16.72 6.07 16.67 6.31 16.66 6.57 16.66 11.81 16.66 12.82 18.2 18.11 18.2 19.12 16.66 27.9 16.66 28.41 17.18 58.32 17.18 58.32 17.65 57.8 18.7 57.8 21.52 57.24 21.52 57.24 20.27 42.73 20.27 35.92 20.27 36.44 19.22 29.32 19.22 29.32 20.77 14.89 20.76 11.81 20.77"/><path class="cls-4" d="M54.88,21.23s-.31-3.89-3.89-3.89-3.8,3.5-3.8,3.5h-.96s-.35-3.5-3.59-3.5-3.89,3.45-3.89,3.45l-26.01.48s-.31-3.98-3.8-3.98-3.76,3.98-3.76,3.98l49.71-.04Z"/><polygon class="cls-4" points="2.53 19.22 2.53 21.08 2.51 21.17 2.46 21.24 2.38 21.29 2.31 21.31 1.2 21.31 1.11 21.29 1.05 21.24 .99 21.17 .98 21.08 .98 19.22 2.53 19.22"/><polygon class="cls-1" points="2.53 19.22 2.53 21.08 2.51 21.17 2.46 21.24 2.38 21.29 2.31 21.31 1.2 21.31 1.11 21.29 1.05 21.24 .99 21.17 .98 21.08 .98 19.22 2.53 19.22"/><polygon class="cls-4" points="12.49 12.48 15 12.48 15.17 12.51 15.33 12.63 15.41 12.81 15.45 13.03 15.45 17.71 15.41 17.93 15.33 18.11 15.17 18.23 15 18.26 12.49 18.26 12.33 18.23 12.17 18.11 12.08 17.93 12.05 17.71 12.05 13.03 12.08 12.81 12.17 12.63 12.33 12.51 12.49 12.48"/><polygon class="cls-1" points="12.49 12.48 15 12.48 15.17 12.51 15.33 12.63 15.41 12.81 15.45 13.03 15.45 17.71 15.41 17.93 15.33 18.11 15.17 18.23 15 18.26 12.49 18.26 12.33 18.23 12.17 18.11 12.08 17.93 12.05 17.71 12.05 13.03 12.08 12.81 12.17 12.63 12.33 12.51 12.49 12.48"/><path class="cls-4" d="M3.1,9.33c-.02.19-.34,3.68-.34,3.68h5.23v-4.51s-3.65-.05-4.15-.05-.72.69-.74.88"/><path class="cls-1" d="M3.1,9.33c-.02.19-.34,3.68-.34,3.68h5.23v-4.51s-3.65-.05-4.15-.05-.72.69-.74.88Z"/><polygon class="cls-4" points="2.41 8.19 1.18 13.44 1.95 12.9 2.07 12.78 2.19 12.66 2.25 12.53 2.28 12.41 2.59 9.21 2.61 8.69 2.58 8.41 2.49 8.28 2.41 8.19"/><polygon class="cls-1" points="2.41 8.19 1.18 13.44 1.95 12.9 2.07 12.78 2.19 12.66 2.25 12.53 2.28 12.41 2.59 9.21 2.61 8.69 2.58 8.41 2.49 8.28 2.41 8.19"/><rect class="cls-4" x="8.5" y="8.5" width="2.42" height="4.24"/><rect class="cls-1" x="8.5" y="8.5" width="2.42" height="4.24"/><polygon class="cls-4" points="12.33 7.12 12.33 2.05 9.5 2.05 9.29 2.05 9.07 2.08 8.85 2.11 8.64 2.15 8.41 2.21 8.21 2.28 8.01 2.37 7.8 2.46 7.59 2.55 7.38 2.67 7.19 2.79 7.02 2.92 6.84 3.06 6.67 3.22 6.51 3.37 6.38 3.53 3.33 7.12 12.33 7.12"/><polygon class="cls-1" points="12.33 7.12 12.33 2.05 9.5 2.05 9.29 2.05 9.07 2.08 8.85 2.11 8.64 2.15 8.41 2.21 8.21 2.28 8.01 2.37 7.8 2.46 7.59 2.55 7.38 2.67 7.19 2.79 7.02 2.92 6.84 3.06 6.67 3.22 6.51 3.37 6.38 3.53 3.33 7.12 12.33 7.12"/><rect class="cls-4" x="14.89" y=".15" width="44.32" height=".99"/><rect class="cls-1" x="14.89" y=".15" width="44.32" height=".99"/><polygon class="cls-4" points="59.21 .15 57.86 .15 57.86 16.54 58.38 18.94 59.21 18.94 59.21 .15"/><polygon class="cls-1" points="59.21 .15 57.86 .15 57.86 16.54 58.38 18.94 59.21 18.94 59.21 .15"/><path class="cls-3" d="M45.47,21.12c0,1.61-1.31,2.92-2.92,2.92s-2.92-1.3-2.92-2.92,1.31-2.92,2.92-2.92,2.92,1.31,2.92,2.92"/><path class="cls-4" d="M42.55,17.58c1.95,0,3.53,1.58,3.53,3.53h.47c0-2.21-1.79-4-4-4s-4,1.79-4,4h.47c0-1.95,1.58-3.53,3.53-3.53"/><path class="cls-1" d="M42.55,17.58c1.95,0,3.53,1.58,3.53,3.53h.47c0-2.21-1.79-4-4-4s-4,1.79-4,4h.47c0-1.95,1.58-3.53,3.53-3.53Z"/><path class="cls-3" d="M53.95,21.12c0,1.61-1.31,2.92-2.92,2.92s-2.92-1.3-2.92-2.92,1.31-2.92,2.92-2.92,2.92,1.31,2.92,2.92"/><path class="cls-4" d="M51.04,17.58c1.95,0,3.53,1.58,3.53,3.53h.47c0-2.21-1.79-4-4-4s-4,1.79-4,4h.47c0-1.95,1.58-3.53,3.53-3.53"/><path class="cls-1" d="M51.04,17.58c1.95,0,3.53,1.58,3.53,3.53h.47c0-2.21-1.79-4-4-4s-4,1.79-4,4h.47c0-1.95,1.58-3.53,3.53-3.53Z"/><path class="cls-2" d="M11.86,21.12c0,1.61-1.31,2.92-2.92,2.92s-2.92-1.3-2.92-2.92,1.31-2.92,2.92-2.92,2.92,1.31,2.92,2.92"/><path class="cls-4" d="M8.94,17.58c1.95,0,3.53,1.58,3.53,3.53h.47c0-2.21-1.79-4-4-4s-4,1.79-4,4h.47c0-1.95,1.58-3.53,3.53-3.53"/><path class="cls-1" d="M8.94,17.58c1.95,0,3.53,1.58,3.53,3.53h.47c0-2.21-1.79-4-4-4s-4,1.79-4,4h.47c0-1.95,1.58-3.53,3.53-3.53Z"/></svg>