<?xml version="1.0" encoding="UTF-8"?><svg id="Capa_1" xmlns="http://www.w3.org/2000/svg" width="75.62" height="24.22" viewBox="0 0 75.62 24.22"><defs><style>.cls-1{fill:#e30613;}.cls-1,.cls-2{stroke-width:0px;}.cls-2{fill:#fff;}.cls-3{fill:none;stroke:#1d1d1b;stroke-width:.3px;}</style></defs><polygon class="cls-2" points="14.47 1.42 14.47 4.84 12.84 4.84 12.84 14.5 14.47 14.5 14.47 17.92 62.78 17.92 62.78 1.42 14.47 1.42"/><polygon class="cls-3" points="14.47 1.42 14.47 4.84 12.84 4.84 12.84 14.5 14.47 14.5 14.47 17.92 62.78 17.92 62.78 1.42 14.47 1.42"/><polygon class="cls-2" points="62.78 22.09 62.76 16.37 57.89 16.35 57.42 15.21 49.86 15.21 49.24 16.46 31.56 16.46 19.04 16.47 19.04 17.9 27.09 17.9 27.12 19.73 30.31 19.73 30.31 23.41 29.33 23.41 29.33 23.98 31.86 23.98 31.86 23.41 30.88 23.41 30.88 19.73 62.01 19.73 62.01 22.09 62.78 22.09"/><polygon class="cls-3" points="62.78 22.09 62.76 16.37 57.89 16.35 57.42 15.21 49.86 15.21 49.24 16.46 31.56 16.46 19.04 16.47 19.04 17.9 27.09 17.9 27.12 19.73 30.31 19.73 30.31 23.41 29.33 23.41 29.33 23.98 31.86 23.98 31.86 23.41 30.88 23.41 30.88 19.73 62.01 19.73 62.01 22.09 62.78 22.09"/><rect class="cls-2" x="43.58" y="19.29" width="7.54" height=".94"/><rect class="cls-2" x="52.64" y="19.35" width="7.51" height=".66"/><polygon class="cls-2" points="32.33 17.77 39.73 17.77 40.04 17.84 40.29 18.01 40.45 18.24 40.52 18.55 40.52 19.87 40.45 20.19 40.29 20.41 40.04 20.59 39.73 20.66 32.33 20.66 32.02 20.59 31.77 20.41 31.61 20.19 31.54 19.87 31.54 18.55 31.61 18.24 31.77 18.01 32.02 17.84 32.33 17.77"/><polygon class="cls-3" points="32.33 17.77 39.73 17.77 40.04 17.84 40.29 18.01 40.45 18.24 40.52 18.55 40.52 19.87 40.45 20.19 40.29 20.41 40.04 20.59 39.73 20.66 32.33 20.66 32.02 20.59 31.77 20.41 31.61 20.19 31.54 19.87 31.54 18.55 31.61 18.24 31.77 18.01 32.02 17.84 32.33 17.77"/><path class="cls-1" d="M50.44,21.02c0,1.71-1.39,3.1-3.1,3.1s-3.1-1.39-3.1-3.1,1.39-3.1,3.1-3.1,3.1,1.39,3.1,3.1"/><path class="cls-2" d="M47.35,17.28c2.07,0,3.75,1.68,3.75,3.75h.5c0-2.35-1.9-4.25-4.25-4.25s-4.25,1.9-4.25,4.25h.5c0-2.07,1.68-3.75,3.75-3.75"/><path class="cls-3" d="M47.35,17.28c2.07,0,3.75,1.68,3.75,3.75h.5c0-2.35-1.9-4.25-4.25-4.25s-4.25,1.9-4.25,4.25h.5c0-2.07,1.68-3.75,3.75-3.75Z"/><path class="cls-1" d="M59.45,21.02c0,1.71-1.39,3.1-3.1,3.1s-3.1-1.39-3.1-3.1,1.39-3.1,3.1-3.1,3.1,1.39,3.1,3.1"/><path class="cls-2" d="M56.36,17.28c2.07,0,3.75,1.68,3.75,3.75h.5c0-2.35-1.9-4.25-4.25-4.25s-4.25,1.9-4.25,4.25h.5c0-2.07,1.68-3.75,3.75-3.75"/><path class="cls-3" d="M56.36,17.28c2.07,0,3.75,1.68,3.75,3.75h.5c0-2.35-1.9-4.25-4.25-4.25s-4.25,1.9-4.25,4.25h.5c0-2.07,1.68-3.75,3.75-3.75Z"/></svg>