<?xml version="1.0" encoding="UTF-8"?><svg id="Capa_1" xmlns="http://www.w3.org/2000/svg" width="42.34" height="15.28" viewBox="0 0 42.34 15.28"><defs><style>.cls-1{fill:none;stroke:#1d1d1b;stroke-width:.3px;}.cls-2{fill:#e30613;}.cls-2,.cls-3{stroke-width:0px;}.cls-3{fill:#fff;}</style></defs><polyline class="cls-3" points="3.34 11.5 14.67 11.5 21.54 10.58 27.76 11.34 37.53 11.34"/><polyline class="cls-1" points="3.34 11.5 14.67 11.5 21.54 10.58 27.76 11.34 37.53 11.34"/><path class="cls-3" d="M35.92,11.75s-.42-2.74-3.21-2.74-3.48,2.57-3.48,2.57l6.69.17Z"/><path class="cls-3" d="M11.52,11.75s-.42-2.74-3.21-2.74-3.48,2.57-3.48,2.57l6.69.17Z"/><polygon class="cls-3" points="22.61 8.84 22.91 8.84 22.91 11.49 22.6 11.49 22.6 8.89 22.61 8.84"/><polygon class="cls-1" points="22.61 8.84 22.91 8.84 22.91 11.49 22.6 11.49 22.6 8.89 22.61 8.84"/><path class="cls-3" d="M8.46,9c-3.4,0-3.54,3.45-3.54,3.45h-2.71s-.56,0-.56-.37c0-.27.22-.49.22-.49l.04-.18-.48-1.48v-.8s0-2.51,0-2.51c0-.43.54-.63.54-.63l.64-.22.72-.2.79-.19.85-.18.84-.15.82-.12,1.41-.2,3.09-.33.28.08.4.07.37.06h.44s.33-.01.33-.01l.22-.09,3.45-3.72-1-.03s.19-.15.25-.2c.22-.18.85-.28,1.2-.29.36,0,.91-.02.91-.02h1.88s.08,0,.75.02c.68.02,1.17.09,1.22.41.05.31.57,3.75.57,3.75l.12.34.06.28.02.28.02.3v.65s-.02,5.37-.02,5.37l-.02.24-.12.17-.24.04h-10.42s-.47-3.1-3.33-3.1"/><path class="cls-1" d="M8.46,9c-3.4,0-3.54,3.45-3.54,3.45h-2.71s-.56,0-.56-.37c0-.27.22-.49.22-.49l.04-.18-.48-1.48v-.8s0-2.51,0-2.51c0-.43.54-.63.54-.63l.64-.22.72-.2.79-.19.85-.18.84-.15.82-.12,1.41-.2,3.09-.33.28.08.4.07.37.06h.44s.33-.01.33-.01l.22-.09,3.45-3.72-1-.03s.19-.15.25-.2c.22-.18.85-.28,1.2-.29.36,0,.91-.02.91-.02h1.88s.08,0,.75.02c.68.02,1.17.09,1.22.41.05.31.57,3.75.57,3.75l.12.34.06.28.02.28.02.3v.65s-.02,5.37-.02,5.37l-.02.24-.12.17-.24.04h-10.42s-.47-3.1-3.33-3.1Z"/><path class="cls-3" d="M35.98,11.44l5.01-.13.3-.14.21-.29.16-2.02.14-.28v-.25l.06-2.39v-.27l-.03-.2-.04-.18-.06-.19-.1-.17-.13-.14-.13-.08-.14-.04-.12-.02h-18.06l-.09.06-.04.12v7.03l.05.16.15.07.11.02h.1s5.81.01,5.81.01c0,0,.52-3.1,3.59-3.1,2.56,0,3.26,2.43,3.26,2.43"/><path class="cls-1" d="M35.98,11.44l5.01-.13.3-.14.21-.29.16-2.02.14-.28v-.25l.06-2.39v-.27l-.03-.2-.04-.18-.06-.19-.1-.17-.13-.14-.13-.08-.14-.04-.12-.02h-18.06l-.09.06-.04.12v7.03l.05.16.15.07.11.02h.1s5.81.01,5.81.01c0,0,.52-3.1,3.59-3.1,2.56,0,3.26,2.43,3.26,2.43Z"/><polygon class="cls-3" points="23.18 5.66 40.77 5.66 40.77 6.19 23.18 6.19 23.14 5.7 23.18 5.66"/><polygon class="cls-1" points="23.18 5.66 40.77 5.66 40.77 6.19 23.18 6.19 23.14 5.7 23.18 5.66"/><polyline class="cls-3" points="1.83 6.64 1.88 6.5 1.98 6.39 2.16 6.28 2.39 6.2 2.85 6.07 3.46 5.93 4.23 5.77 5.12 5.63 6.11 5.49 7.13 5.37 8.31 5.25 9.35 5.15 10.1 5.1 10.8 5.03 11.46 4.99 12.1 4.92 12.49 4.85 12.74 4.77 12.93 4.67 13.12 4.54"/><polyline class="cls-1" points="1.83 6.64 1.88 6.5 1.98 6.39 2.16 6.28 2.39 6.2 2.85 6.07 3.46 5.93 4.23 5.77 5.12 5.63 6.11 5.49 7.13 5.37 8.31 5.25 9.35 5.15 10.1 5.1 10.8 5.03 11.46 4.99 12.1 4.92 12.49 4.85 12.74 4.77 12.93 4.67 13.12 4.54"/><polygon class="cls-3" points="11.11 4.39 15.58 .77 16.57 .8 13.18 4.47 13.06 4.56 12.91 4.6 12.7 4.62 12.46 4.62 12.16 4.61 11.9 4.58 11.6 4.52 11.33 4.47 11.11 4.39"/><polygon class="cls-1" points="11.11 4.39 15.58 .77 16.57 .8 13.18 4.47 13.06 4.56 12.91 4.6 12.7 4.62 12.46 4.62 12.16 4.61 11.9 4.58 11.6 4.52 11.33 4.47 11.11 4.39"/><path class="cls-3" d="M16.84.88c-.1.12-3.5,3.94-3.5,3.94l-.13.1-.19.1-.22.09-.28.07-.11.8-.04.75.02.88.04.77.09.79.19,1.09.4,1.17h8.12l.05-6.27-.12-.4s-.14-3.27-.16-3.56c-.01-.29-.27-.53-.7-.54-.43,0-1.96-.02-1.96-.02,0,0-.94.04-1.12.04-.17,0-.31.06-.41.18"/><path class="cls-1" d="M16.84.88c-.1.12-3.5,3.94-3.5,3.94l-.13.1-.19.1-.22.09-.28.07-.11.8-.04.75.02.88.04.77.09.79.19,1.09.4,1.17h8.12l.05-6.27-.12-.4s-.14-3.27-.16-3.56c-.01-.29-.27-.53-.7-.54-.43,0-1.96-.02-1.96-.02,0,0-.94.04-1.12.04-.17,0-.31.06-.41.18Z"/><path class="cls-3" d="M1.39,9.53s-.13-.02-.6-.02c-.47,0-.58.16-.58.24s.01.49.01.61.22.17.22.17c0,0,.15.37.25.56.1.19.26.36.52.39.26.03,2.27.16,2.27.16l.1-.02.08-.15-.17-1.61-.03-.13-.09-.11-.11-.06h-1.87Z"/><path class="cls-1" d="M1.39,9.53s-.13-.02-.6-.02c-.47,0-.58.16-.58.24s.01.49.01.61.22.17.22.17c0,0,.15.37.25.56.1.19.26.36.52.39.26.03,2.27.16,2.27.16l.1-.02.08-.15-.17-1.61-.03-.13-.09-.11-.11-.06h-1.87Z"/><polygon class="cls-3" points="1.42 6.51 1.26 6.59 1.19 6.74 1.19 8.81 1.21 8.92 1.32 9.08 1.45 9.15 1.59 9.18 1.71 9.19 1.82 9.2 2.97 9.2 3.07 9.2 3.2 9.19 3.3 9.18 3.4 9.16 3.51 9.08 3.56 8.88 3.55 8.7 3.18 7.03 3.13 6.91 3.05 6.77 2.93 6.7 2.76 6.65 1.62 6.65 1.53 6.64 1.42 6.51"/><polygon class="cls-1" points="1.42 6.51 1.26 6.59 1.19 6.74 1.19 8.81 1.21 8.92 1.32 9.08 1.45 9.15 1.59 9.18 1.71 9.19 1.82 9.2 2.97 9.2 3.07 9.2 3.2 9.19 3.3 9.18 3.4 9.16 3.51 9.08 3.56 8.88 3.55 8.7 3.18 7.03 3.13 6.91 3.05 6.77 2.93 6.7 2.76 6.65 1.62 6.65 1.53 6.64 1.42 6.51"/><polygon class="cls-3" points="41.32 5.68 41.24 5.7 41.13 5.77 41.06 8.18 41.09 8.26 41.15 8.35 41.81 8.36 41.83 8.22 41.86 5.89 41.86 5.68 41.74 5.68 41.32 5.68"/><polygon class="cls-1" points="41.32 5.68 41.24 5.7 41.13 5.77 41.06 8.18 41.09 8.26 41.15 8.35 41.81 8.36 41.83 8.22 41.86 5.89 41.86 5.68 41.74 5.68 41.32 5.68"/><path class="cls-3" d="M41.97,9.25c.12,0,.15.19.15.26v.46c0,.15-.19.23-.27.4-.07.17-.18.47-.25.63-.07.16-.22.4-.52.43-.3.02-2.12.19-2.26.2-.14.01-.19-.05-.18-.2.01-.15.14-1.61.16-1.83.02-.22.07-.35.22-.35s2.83.01,2.95.01"/><path class="cls-1" d="M41.97,9.25c.12,0,.15.19.15.26v.46c0,.15-.19.23-.27.4-.07.17-.18.47-.25.63-.07.16-.22.4-.52.43-.3.02-2.12.19-2.26.2-.14.01-.19-.05-.18-.2.01-.15.14-1.61.16-1.83.02-.22.07-.35.22-.35s2.83.01,2.95.01Z"/><path class="cls-3" d="M14.18,4.68l.12-.21,2.67-3.17.12-.16.11-.1.17-.05h2.79c.38,0,.51.38.51.66v3.18l-.09.05h-6.11l-.25-.02-.04-.18Z"/><path class="cls-1" d="M14.18,4.68l.12-.21,2.67-3.17.12-.16.11-.1.17-.05h2.79c.38,0,.51.38.51.66v3.18l-.09.05h-6.11l-.25-.02-.04-.18Z"/><path class="cls-2" d="M11.05,12.46c0,1.48-1.2,2.68-2.68,2.68s-2.68-1.2-2.68-2.68,1.2-2.68,2.68-2.68,2.68,1.2,2.68,2.68"/><path class="cls-3" d="M8.37,9.21c1.79,0,3.25,1.45,3.25,3.24h.43c0-2.03-1.65-3.68-3.68-3.68s-3.68,1.65-3.68,3.68h.43c0-1.79,1.45-3.24,3.25-3.24"/><path class="cls-1" d="M8.37,9.21c1.79,0,3.25,1.45,3.25,3.24h.43c0-2.03-1.65-3.68-3.68-3.68s-3.68,1.65-3.68,3.68h.43c0-1.79,1.45-3.24,3.25-3.24Z"/><path class="cls-2" d="M35.3,12.46c0,1.48-1.2,2.68-2.68,2.68s-2.68-1.2-2.68-2.68,1.2-2.68,2.68-2.68,2.68,1.2,2.68,2.68"/><path class="cls-3" d="M32.62,9.21c1.79,0,3.24,1.45,3.24,3.24h.43c0-2.03-1.65-3.68-3.68-3.68s-3.68,1.65-3.68,3.68h.43c0-1.79,1.46-3.24,3.25-3.24"/><path class="cls-1" d="M32.62,9.21c1.79,0,3.24,1.45,3.24,3.24h.43c0-2.03-1.65-3.68-3.68-3.68s-3.68,1.65-3.68,3.68h.43c0-1.79,1.46-3.24,3.25-3.24Z"/></svg>