<?xml version="1.0" encoding="UTF-8"?><svg id="Capa_1" xmlns="http://www.w3.org/2000/svg" width="75.62" height="24.22" viewBox="0 0 75.62 24.22"><defs><style>.cls-1{fill:#e30613;}.cls-1,.cls-2,.cls-3{stroke-width:0px;}.cls-2{fill:#706f6f;}.cls-3{fill:#fff;}.cls-4{fill:none;stroke:#1d1d1b;stroke-width:.3px;}</style></defs><line class="cls-4" x1="20.91" y1="21.73" x2="55.73" y2="21.73"/><polygon class="cls-3" points="55.86 22.7 54.73 18.82 49.23 17.51 21.29 18.7 19.47 23.39 55.86 22.7"/><path class="cls-3" d="M16.64,18.21v-.31s0-.04.04-.04h.06s.11-3.56.55-3.5c0,0,.07-.03.13-.06,0,0,2.81-6.2,3.74-7.37.6-.76.99-1.19,2.37-1.2h33.1c.22,0,.93,1.28.93,1.28,1.34,1.38,1.67,8.13,1.67,8.13v4.88h.38c.1,0,.09.09.09.09v.28s.01.09-.08.09l-.06.73v.09s.04.04.04.04v.27s-.04.04-.04.04h-.06l-.08.14-4.59.26c-.08,0-.08-.1-.08-.1,0,0,.08-3.73-3.54-3.73s-3.55,4.05-3.55,4.05c0,.17-.14.18-.14.18h-19.05c-.19-.01-.2-.26-.2-.26-.06-2.64-1.41-3.72-2.8-3.92-1.5-.22-2.33.25-2.58.41-1.8,1.11-1.68,3.47-1.68,3.47h-4.18c-.16-.36-.79-.37-.79-.37-.08-.01-.09-.1-.09-.1l-.19-.79c0-.18.15-.22.15-.22,0,0-.05-.26.13-.33l.42-.17v-.41"/><path class="cls-4" d="M16.64,18.21v-.31s0-.04.04-.04h.06s.11-3.56.55-3.5c0,0,.07-.03.13-.06,0,0,2.81-6.2,3.74-7.37.6-.76.99-1.19,2.37-1.2h33.1c.22,0,.93,1.28.93,1.28,1.34,1.38,1.67,8.13,1.67,8.13v4.88h.38c.1,0,.09.09.09.09v.28s.01.09-.08.09l-.06.73v.09s.04.04.04.04v.27s-.04.04-.04.04h-.06l-.08.14-4.59.26c-.08,0-.08-.1-.08-.1,0,0,.08-3.73-3.54-3.73s-3.55,4.05-3.55,4.05c0,.17-.14.18-.14.18h-19.05c-.19-.01-.2-.26-.2-.26-.06-2.64-1.41-3.72-2.8-3.92-1.5-.22-2.33.25-2.58.41-1.8,1.11-1.68,3.47-1.68,3.47h-4.18c-.16-.36-.79-.37-.79-.37-.08-.01-.09-.1-.09-.1l-.19-.79c0-.18.15-.22.15-.22,0,0-.05-.26.13-.33l.42-.17v-.41"/><path class="cls-3" d="M19.19,14.43l3.03-6.8c.04-.1.2-.08.2-.08h34.43c.62,1.61.83,6.62.8,6.72-.04.15-.23.16-.23.16H19.19Z"/><path class="cls-4" d="M19.19,14.43l3.03-6.8c.04-.1.2-.08.2-.08h34.43c.62,1.61.83,6.62.8,6.72-.04.15-.23.16-.23.16H19.19Z"/><path class="cls-3" d="M20.62,7.8c.21-.09.4-.08.31.07-.32.61-2.72,5.59-2.72,5.59l-.2.36s-.56.45-.43.1c.52-1.14,2.09-4.51,3.04-6.13"/><path class="cls-4" d="M20.62,7.8c.21-.09.4-.08.31.07-.32.61-2.72,5.59-2.72,5.59l-.2.36s-.56.45-.43.1c.52-1.14,2.09-4.51,3.04-6.13Z"/><path class="cls-4" d="M57.56,7l-.27.11H22.48c-.59,0-.77.3-.77.3l-3.15,7.01-.02,5.77v1.97M18.59,21.61h2.03c.02-.63.29-2.34,1.83-3.29.22-.14,1.12-.66,2.26-.63h2.66s.13.02.13-.13v-3.39s.04-.52-.4-.52M20.9,20.17h-4.25"/><line class="cls-3" x1="59.62" y1="20.01" x2="54.34" y2="20.01"/><line class="cls-4" x1="59.62" y1="20.01" x2="54.34" y2="20.01"/><line class="cls-4" x1="48.13" y1="20.04" x2="27.83" y2="20.04"/><path class="cls-3" d="M27.11,7.98h-4.5l-2.24,5.02v1.1h1.18c.23,0,.39-.44.6-.44h4.95v-5.67Z"/><path class="cls-4" d="M27.11,7.98h-4.5l-2.24,5.02v1.1h1.18c.23,0,.39-.44.6-.44h4.95v-5.67Z"/><path class="cls-3" d="M28.1,13.92v-5.94h28.23c.51,1.77.63,5.94.63,5.94h-28.86Z"/><path class="cls-4" d="M28.1,13.92v-5.94h28.23c.51,1.77.63,5.94.63,5.94h-28.86Z"/><line class="cls-4" x1="36.16" y1="8" x2="36.16" y2="13.92"/><line class="cls-4" x1="45.31" y1="8" x2="45.31" y2="13.92"/><polygon class="cls-3" points="17.84 18.23 16.66 18.23 16.51 18.23 16.44 18.35 16.44 19.68 16.61 19.8 17.84 19.8 17.84 18.23"/><polygon class="cls-4" points="17.84 18.23 16.66 18.23 16.51 18.23 16.44 18.35 16.44 19.68 16.61 19.8 17.84 19.8 17.84 18.23"/><path class="cls-3" d="M58.52,21.81v-1.68s-.04-.15.13-.11h.92s.11-.02.11.11v.25s.02.1-.09.1l-.06.83s.04,0,.04.07v.22s.01.06-.06.06h-.04l-.08.14-.87.02Z"/><path class="cls-4" d="M58.52,21.81v-1.68s-.04-.15.13-.11h.92s.11-.02.11.11v.25s.02.1-.09.1l-.06.83s.04,0,.04.07v.22s.01.06-.06.06h-.04l-.08.14-.87.02Z"/><path class="cls-1" d="M27.42,21.45c0,1.53-1.24,2.78-2.78,2.78s-2.78-1.25-2.78-2.78,1.24-2.78,2.78-2.78,2.78,1.24,2.78,2.78"/><path class="cls-2" d="M53.99,21.59c0,1.54-1.25,2.78-2.78,2.78s-2.78-1.25-2.78-2.78,1.25-2.78,2.78-2.78,2.78,1.24,2.78,2.78"/></svg>