<?xml version="1.0" encoding="UTF-8"?><svg id="Capa_1" xmlns="http://www.w3.org/2000/svg" width="75.62" height="24.22" viewBox="0 0 75.62 24.22"><defs><style>.cls-1{fill:#e30613;}.cls-1,.cls-2{stroke-width:0px;}.cls-2{fill:#fff;}.cls-3{fill:none;stroke:#1d1d1b;stroke-width:.3px;}</style></defs><polyline class="cls-2" points="14.05 21.7 16 21.7 17.75 21.28 26.07 21.28 26.83 20.37 35.29 20.93 37.43 20.93 37.43 20.16 68.59 20.16 70.57 20.16 70.57 20.79 72.56 21.55 72.56 22.39 73.52 22.39 73.52 20.28 72.56 20.28 72.56 20.41 70.68 19.7 70.68 18.9 72.1 18.9 72.1 17.09 16.83 17.09 15.47 17.09 6.85 16.58"/><polyline class="cls-3" points="14.05 21.7 16 21.7 17.75 21.28 26.07 21.28 26.83 20.37 35.29 20.93 37.43 20.93 37.43 20.16 68.59 20.16 70.57 20.16 70.57 20.79 72.56 21.55 72.56 22.39 73.52 22.39 73.52 20.28 72.56 20.28 72.56 20.41 70.68 19.7 70.68 18.9 72.1 18.9 72.1 17.09 16.83 17.09 15.47 17.09 6.85 16.58"/><path class="cls-2" d="M69.06,20.86s-.33-3.52-3.33-3.52h-16.88s-2.72,1.33-2.72,3.39l-9.84.73s-.33-4.05-3.79-4.05-3.86,3.59-3.86,4.05h-1s0-4.05-3.79-4.05-3.75,4.15-3.75,4.15l8.84.8,40.11-1.5Z"/><polygon class="cls-2" points=".91 16.63 .91 14.03 1.99 12.71 2.28 8.83 2.3 8.56 2.37 8.33 2.45 8.12 2.57 7.92 2.71 7.78 2.87 7.68 3.09 7.61 3.33 7.59 12.65 7.13 13.47 7.94 13.47 19.13 .98 19.13 .91 16.63"/><polygon class="cls-3" points=".91 16.63 .91 14.03 1.99 12.71 2.28 8.83 2.3 8.56 2.37 8.33 2.45 8.12 2.57 7.92 2.71 7.78 2.87 7.68 3.09 7.61 3.33 7.59 12.65 7.13 13.47 7.94 13.47 19.13 .98 19.13 .91 16.63"/><polygon class="cls-2" points="2.19 14.1 2.01 19.12 9.13 19.12 9.13 8.62 3.27 8.62 2.64 13.8 2.19 14.1"/><polygon class="cls-3" points="2.19 14.1 2.01 19.12 9.13 19.12 9.13 8.62 3.27 8.62 2.64 13.8 2.19 14.1"/><path class="cls-2" d="M12.07,21.56s-.1-4.06-1.6-4.06-4.55.13-4.55.13l-.8,2.16,6.95,1.76Z"/><polygon class="cls-2" points="2.43 19.56 1.8 19.59 .96 19.59 .8 19.56 .6 19.46 .46 19.35 .41 19.17 .56 19.08 .56 16.98 .41 16.92 .46 16.76 .58 16.63 .72 16.55 .89 16.52 1.99 16.52 2.17 16.57 2.28 16.72 2.37 16.85 2.43 17 2.43 19.56"/><polygon class="cls-3" points="2.43 19.56 1.8 19.59 .96 19.59 .8 19.56 .6 19.46 .46 19.35 .41 19.17 .56 19.08 .56 16.98 .41 16.92 .46 16.76 .58 16.63 .72 16.55 .89 16.52 1.99 16.52 2.17 16.57 2.28 16.72 2.37 16.85 2.43 17 2.43 19.56"/><polygon class="cls-2" points="2.45 19.56 2.45 21.09 2.43 21.2 2.37 21.26 2.3 21.31 2.21 21.31 1.13 20.88 1.04 20.85 .96 20.81 .91 20.76 .89 20.67 .89 19.56 2.45 19.56"/><polygon class="cls-3" points="2.45 19.56 2.45 21.09 2.43 21.2 2.37 21.26 2.3 21.31 2.21 21.31 1.13 20.88 1.04 20.85 .96 20.81 .91 20.76 .89 20.67 .89 19.56 2.45 19.56"/><polygon class="cls-2" points="8.18 12.92 3.54 13.4 3.43 13.35 3.34 13.25 3.27 13.14 3.25 13.01 3.58 10 3.6 9.88 3.67 9.76 3.74 9.61 3.85 9.47 3.96 9.33 4.09 9.23 4.2 9.16 4.32 9.13 8.25 9.13 8.35 9.16 8.45 9.26 8.52 9.35 8.54 9.45 8.54 12.49 8.52 12.63 8.45 12.78 8.32 12.87 8.18 12.92"/><polygon class="cls-3" points="8.18 12.92 3.54 13.4 3.43 13.35 3.34 13.25 3.27 13.14 3.25 13.01 3.58 10 3.6 9.88 3.67 9.76 3.74 9.61 3.85 9.47 3.96 9.33 4.09 9.23 4.2 9.16 4.32 9.13 8.25 9.13 8.35 9.16 8.45 9.26 8.52 9.35 8.54 9.45 8.54 12.49 8.52 12.63 8.45 12.78 8.32 12.87 8.18 12.92"/><polygon class="cls-2" points="2.32 8.59 1.13 13.81 1.9 13.26 2.01 13.17 2.11 13.04 2.19 12.93 2.21 12.78 2.52 9.62 2.54 9.09 2.5 8.8 2.43 8.67 2.32 8.59"/><polygon class="cls-3" points="2.32 8.59 1.13 13.81 1.9 13.26 2.01 13.17 2.11 13.04 2.19 12.93 2.21 12.78 2.52 9.62 2.54 9.09 2.5 8.8 2.43 8.67 2.32 8.59"/><polygon class="cls-2" points="10.65 9.13 11.85 9.13 12.04 9.17 12.19 9.27 12.28 9.42 12.32 9.6 12.32 12.38 12.28 12.58 12.19 12.73 12.04 12.82 11.85 12.86 10.65 12.86 10.46 12.82 10.31 12.73 10.22 12.58 10.18 12.38 10.18 9.6 10.22 9.42 10.31 9.27 10.46 9.17 10.65 9.13"/><polygon class="cls-3" points="10.65 9.13 11.85 9.13 12.04 9.17 12.19 9.27 12.28 9.42 12.32 9.6 12.32 12.38 12.28 12.58 12.19 12.73 12.04 12.82 11.85 12.86 10.65 12.86 10.46 12.82 10.31 12.73 10.22 12.58 10.18 12.38 10.18 9.6 10.22 9.42 10.31 9.27 10.46 9.17 10.65 9.13"/><polygon class="cls-2" points="12.03 7.13 12.03 2.51 9.37 2.51 8.94 2.53 8.5 2.6 8.08 2.74 7.64 2.91 7.26 3.13 6.89 3.39 6.56 3.68 6.28 3.99 3.4 7.61 12.03 7.13"/><polygon class="cls-3" points="12.03 7.13 12.03 2.51 9.37 2.51 8.94 2.53 8.5 2.6 8.08 2.74 7.64 2.91 7.26 3.13 6.89 3.39 6.56 3.68 6.28 3.99 3.4 7.61 12.03 7.13"/><path class="cls-3" d="M2.19,14.86l6.95-.57h4.33M2.28,8.62h11.18"/><polygon class="cls-2" points="13.33 19.1 18.54 19.1 18.76 19.15 18.93 19.28 19.05 19.44 19.09 19.66 19.09 21.57 19.05 21.79 18.93 21.95 18.76 22.08 18.54 22.12 13.33 22.12 13.11 22.08 12.94 21.95 12.82 21.79 12.78 21.57 12.78 19.66 12.82 19.44 12.94 19.28 13.11 19.15 13.33 19.1"/><polygon class="cls-3" points="13.33 19.1 18.54 19.1 18.76 19.15 18.93 19.28 19.05 19.44 19.09 19.66 19.09 21.57 19.05 21.79 18.93 21.95 18.76 22.08 18.54 22.12 13.33 22.12 13.11 22.08 12.94 21.95 12.82 21.79 12.78 21.57 12.78 19.66 12.82 19.44 12.94 19.28 13.11 19.15 13.33 19.1"/><polygon class="cls-2" points="13.64 19.13 15.34 19.13 15.63 18.89 16.2 18.89 16.46 19.13 18.16 19.13 18.16 22.1 13.64 22.1 13.64 19.13"/><polygon class="cls-3" points="13.64 19.13 15.34 19.13 15.63 18.89 16.2 18.89 16.46 19.13 18.16 19.13 18.16 22.1 13.64 22.1 13.64 19.13"/><rect class="cls-2" x="15.49" y="2.24" width="59.69" height="14.85"/><rect class="cls-3" x="15.49" y="2.24" width="59.69" height="14.85"/><rect class="cls-2" x="73.99" y="2.24" width="1.2" height="14.85"/><rect class="cls-3" x="73.99" y="2.24" width="1.2" height="14.85"/><rect class="cls-2" x="15.49" y="2.24" width="59.69" height="1.1"/><rect class="cls-3" x="15.49" y="2.24" width="59.69" height="1.1"/><polygon class="cls-2" points="11.9 13.39 14.12 13.39 14.3 13.43 14.45 13.55 14.54 13.72 14.57 13.94 14.57 18.05 14.54 18.26 14.45 18.44 14.3 18.55 14.12 18.6 11.9 18.6 11.71 18.55 11.57 18.44 11.47 18.26 11.45 18.05 11.45 13.94 11.47 13.72 11.57 13.55 11.71 13.43 11.9 13.39"/><polygon class="cls-3" points="11.9 13.39 14.12 13.39 14.3 13.43 14.45 13.55 14.54 13.72 14.57 13.94 14.57 18.05 14.54 18.26 14.45 18.44 14.3 18.55 14.12 18.6 11.9 18.6 11.71 18.55 11.57 18.44 11.47 18.26 11.45 18.05 11.45 13.94 11.47 13.72 11.57 13.55 11.71 13.43 11.9 13.39"/><path class="cls-1" d="M11.48,21.21c0,1.63-1.32,2.96-2.96,2.96s-2.96-1.32-2.96-2.96,1.32-2.96,2.96-2.96,2.96,1.32,2.96,2.96"/><path class="cls-2" d="M12.21,21.21h-.39c0-3.33-1.41-3.3-1.41-3.3h-4.03s-.23.04-.23.04l-.2.12-.14.22-.09.31-.65,2.79h-2.04l-.12-.03-.15-.02-.09-.05-.12-.05-.09-.07v-.89l.12.05.14.05.15.02.14.02.14.02h1.37l.46-1.76.05-.24.07-.22.08-.19.12-.2.12-.17.14-.14.19-.15.22-.12h4.6s1.67-.11,1.67,3.92"/><path class="cls-3" d="M12.21,21.21h-.39c0-3.33-1.41-3.3-1.41-3.3h-4.03s-.23.04-.23.04l-.2.12-.14.22-.09.31-.65,2.79h-2.04l-.12-.03-.15-.02-.09-.05-.12-.05-.09-.07v-.89l.12.05.14.05.15.02.14.02.14.02h1.37l.46-1.76.05-.24.07-.22.08-.19.12-.2.12-.17.14-.14.19-.15.22-.12h4.6s1.67-.11,1.67,3.92Z"/><path class="cls-2" d="M68.69,20.41c-.28-1.39-1.39-2.77-2.81-2.81-.03,0-11.18,0-11.21,0-.03,0-5.22,0-5.26,0-1.6,0-2.68,1.42-2.96,2.81-.02.12-.52.14-.49.03.32-1.6,1.62-3.23,3.24-3.28.03,0,5.45,0,5.48,0,.04,0,11.35,0,11.39,0,1.62.05,2.79,1.57,3.11,3.16.02.12-.48.09-.48.09"/><path class="cls-3" d="M68.69,20.41c-.28-1.39-1.39-2.77-2.81-2.81-.03,0-11.18,0-11.21,0-.03,0-5.22,0-5.26,0-1.6,0-2.68,1.42-2.96,2.81-.02.12-.52.14-.49.03.32-1.6,1.62-3.23,3.24-3.28.03,0,5.45,0,5.48,0,.04,0,11.35,0,11.39,0,1.62.05,2.79,1.57,3.11,3.16.02.12-.48.09-.48.09Z"/><path class="cls-1" d="M53.28,21.21c0,1.63-1.33,2.96-2.96,2.96s-2.96-1.32-2.96-2.96,1.32-2.96,2.96-2.96,2.96,1.32,2.96,2.96"/><path class="cls-1" d="M60.43,21.21c0,1.63-1.32,2.96-2.96,2.96s-2.96-1.32-2.96-2.96,1.33-2.96,2.96-2.96,2.96,1.32,2.96,2.96"/><path class="cls-1" d="M67.59,21.21c0,1.63-1.32,2.96-2.96,2.96s-2.96-1.32-2.96-2.96,1.33-2.96,2.96-2.96,2.96,1.32,2.96,2.96"/><path class="cls-1" d="M26.82,21.21c0,1.63-1.33,2.96-2.96,2.96s-2.96-1.32-2.96-2.96,1.32-2.96,2.96-2.96,2.96,1.32,2.96,2.96"/><path class="cls-2" d="M23.86,17.64c1.98,0,3.58,1.6,3.58,3.58h.47c0-2.24-1.81-4.05-4.05-4.05s-4.05,1.82-4.05,4.05h.48c0-1.98,1.6-3.58,3.58-3.58"/><path class="cls-3" d="M23.86,17.64c1.98,0,3.58,1.6,3.58,3.58h.47c0-2.24-1.81-4.05-4.05-4.05s-4.05,1.82-4.05,4.05h.48c0-1.98,1.6-3.58,3.58-3.58Z"/><path class="cls-1" d="M35.42,21.21c0,1.63-1.32,2.96-2.96,2.96s-2.96-1.32-2.96-2.96,1.32-2.96,2.96-2.96,2.96,1.32,2.96,2.96"/><path class="cls-2" d="M32.46,17.64c1.98,0,3.58,1.6,3.58,3.58h.47c0-2.24-1.81-4.05-4.05-4.05s-4.05,1.82-4.05,4.05h.48c0-1.98,1.6-3.58,3.58-3.58"/><path class="cls-3" d="M32.46,17.64c1.98,0,3.58,1.6,3.58,3.58h.47c0-2.24-1.81-4.05-4.05-4.05s-4.05,1.82-4.05,4.05h.48c0-1.98,1.6-3.58,3.58-3.58Z"/></svg>