<?xml version="1.0" encoding="UTF-8"?><svg id="Capa_1" xmlns="http://www.w3.org/2000/svg" width="47.26" height="20.7" viewBox="0 0 47.26 20.7"><defs><style>.cls-1{fill:none;stroke:#1d1d1b;stroke-width:.3px;}.cls-2{fill:#e30613;}.cls-2,.cls-3{stroke-width:0px;}.cls-3{fill:#fff;}</style></defs><polygon class="cls-3" points="45.8 13.64 45.96 12.3 2.35 12.32 2.27 12.32 2.3 17.46 21.16 17.46 21.16 16.46 32.49 16.46 33.14 17.22 44.51 17.06 44.51 18.29 45.29 18.27 45.26 15.57 45.8 14.48 45.8 13.64"/><polygon class="cls-1" points="45.8 13.64 45.96 12.3 2.35 12.32 2.27 12.32 2.3 17.46 21.16 17.46 21.16 16.46 32.49 16.46 33.14 17.22 44.51 17.06 44.51 18.29 45.29 18.27 45.26 15.57 45.8 14.48 45.8 13.64"/><polygon class="cls-3" points="1.05 12.7 1.05 9.97 2.18 8.59 2.45 4.54 2.5 4.26 2.55 4.01 2.65 3.79 2.78 3.59 2.92 3.44 3.1 3.34 3.33 3.26 3.58 3.23 13.32 2.76 14.17 3.61 14.17 15.31 13.82 17.37 12.62 17.37 12.27 15.21 11.44 13.86 6.01 13.78 5.08 17.11 2.55 16.96 2.25 15.31 1.13 15.31 1.05 12.7"/><polygon class="cls-1" points="1.05 12.7 1.05 9.97 2.18 8.59 2.45 4.54 2.5 4.26 2.55 4.01 2.65 3.79 2.78 3.59 2.92 3.44 3.1 3.34 3.33 3.26 3.58 3.23 13.32 2.76 14.17 3.61 14.17 15.31 13.82 17.37 12.62 17.37 12.27 15.21 11.44 13.86 6.01 13.78 5.08 17.11 2.55 16.96 2.25 15.31 1.13 15.31 1.05 12.7"/><path class="cls-3" d="M3.24,4.26v.07s-.38,4.67-.4,5c0,.13-.14.23-.27.33-.16.12-.32.24-.32.44v7.05h3s.89-3.17.89-3.17l2.58-.18V4.27H3.24Z"/><path class="cls-1" d="M3.24,4.26v.07s-.38,4.67-.4,5c0,.13-.14.23-.27.33-.16.12-.32.24-.32.44v7.05h3s.89-3.17.89-3.17l2.58-.18V4.27H3.24Z"/><polygon class="cls-3" points="2.6 15.78 1.95 15.78 1.07 15.78 .9 15.76 .7 15.68 .55 15.53 .49 15.36 .49 13.03 .55 12.85 .67 12.7 .85 12.6 1.03 12.58 2.18 12.58 2.32 12.62 2.48 12.78 2.55 12.95 2.6 13.08 2.6 15.78"/><polygon class="cls-1" points="2.6 15.78 1.95 15.78 1.07 15.78 .9 15.76 .7 15.68 .55 15.53 .49 15.36 .49 13.03 .55 12.85 .67 12.7 .85 12.6 1.03 12.58 2.18 12.58 2.32 12.62 2.48 12.78 2.55 12.95 2.6 13.08 2.6 15.78"/><polygon class="cls-3" points="2.65 15.76 2.65 17.36 2.63 17.46 2.58 17.53 2.5 17.59 2.42 17.59 1.27 17.14 1.2 17.11 1.13 17.06 1.07 16.98 1.05 16.91 1.05 15.76 2.65 15.76"/><polygon class="cls-1" points="2.65 15.76 2.65 17.36 2.63 17.46 2.58 17.53 2.5 17.59 2.42 17.59 1.27 17.14 1.2 17.11 1.13 17.06 1.07 16.98 1.05 16.91 1.05 15.76 2.65 15.76"/><polygon class="cls-3" points="2.53 4.31 1.25 9.75 2.05 9.2 2.18 9.09 2.27 8.97 2.35 8.82 2.4 8.67 2.73 5.36 2.75 4.84 2.7 4.54 2.6 4.39 2.53 4.31"/><polygon class="cls-1" points="2.53 4.31 1.25 9.75 2.05 9.2 2.18 9.09 2.27 8.97 2.35 8.82 2.4 8.67 2.73 5.36 2.75 4.84 2.7 4.54 2.6 4.39 2.53 4.31"/><polygon class="cls-3" points="10.44 4.84 11.69 4.84 11.9 4.89 12.05 5 12.14 5.15 12.19 5.34 12.19 8.25 12.14 8.45 12.05 8.6 11.9 8.7 11.69 8.75 10.44 8.75 10.24 8.7 10.09 8.6 9.99 8.45 9.94 8.25 9.94 5.34 9.99 5.15 10.09 5 10.24 4.89 10.44 4.84"/><polygon class="cls-1" points="10.44 4.84 11.69 4.84 11.9 4.89 12.05 5 12.14 5.15 12.19 5.34 12.19 8.25 12.14 8.45 12.05 8.6 11.9 8.7 11.69 8.75 10.44 8.75 10.24 8.7 10.09 8.6 9.99 8.45 9.94 8.25 9.94 5.34 9.99 5.15 10.09 5 10.24 4.89 10.44 4.84"/><polygon class="cls-3" points="14 15.28 19.46 15.28 19.68 15.33 19.86 15.46 19.99 15.64 20.03 15.86 20.03 17.86 19.99 18.09 19.86 18.26 19.68 18.39 19.46 18.44 14 18.44 13.77 18.39 13.6 18.26 13.47 18.09 13.42 17.86 13.42 15.86 13.47 15.64 13.6 15.46 13.77 15.33 14 15.28"/><polygon class="cls-1" points="14 15.28 19.46 15.28 19.68 15.33 19.86 15.46 19.99 15.64 20.03 15.86 20.03 17.86 19.99 18.09 19.86 18.26 19.68 18.39 19.46 18.44 14 18.44 13.77 18.39 13.6 18.26 13.47 18.09 13.42 17.86 13.42 15.86 13.47 15.64 13.6 15.46 13.77 15.33 14 15.28"/><path class="cls-3" d="M12.63,17.91s.04-4.01-1.42-4.01-5.07.07-5.07.07l-1.34,4.16,7.84-.22Z"/><rect class="cls-3" x="14.88" y=".43" width="30.66" height="13.93"/><rect class="cls-1" x="14.88" y=".43" width="30.66" height="13.93"/><rect class="cls-3" x="14.88" y=".43" width="30.66" height=".92"/><rect class="cls-1" x="14.88" y=".43" width="30.66" height=".92"/><path class="cls-3" d="M42.54,17.53s-.46-3.56-3.55-3.56-3.86,3.33-3.86,3.33l7.41.22Z"/><polygon class="cls-3" points="46.77 .43 45.52 .43 45.52 14.35 45.52 14.35 45.99 16.58 46.75 16.58 46.75 14.35 46.77 14.35 46.77 .43"/><polygon class="cls-1" points="46.77 .43 45.52 .43 45.52 14.35 45.52 14.35 45.99 16.58 46.75 16.58 46.75 14.35 46.77 14.35 46.77 .43"/><polygon class="cls-3" points="7.76 8.75 3.59 9.25 3.49 9.2 3.39 9.13 3.34 8.98 3.31 8.85 3.67 5.7 3.69 5.57 3.74 5.44 3.84 5.29 3.94 5.15 4.04 5 4.17 4.89 4.29 4.82 4.42 4.79 7.86 4.79 7.96 4.82 8.03 4.92 8.1 5.02 8.13 5.12 8.13 8.3 8.1 8.45 8.03 8.6 7.91 8.7 7.76 8.75"/><polygon class="cls-1" points="7.76 8.75 3.59 9.25 3.49 9.2 3.39 9.13 3.34 8.98 3.31 8.85 3.67 5.7 3.69 5.57 3.74 5.44 3.84 5.29 3.94 5.15 4.04 5 4.17 4.89 4.29 4.82 4.42 4.79 7.86 4.79 7.96 4.82 8.03 4.92 8.1 5.02 8.13 5.12 8.13 8.3 8.1 8.45 8.03 8.6 7.91 8.7 7.76 8.75"/><line class="cls-3" x1="2.23" y1="10.87" x2="8.71" y2="10.37"/><line class="cls-1" x1="2.23" y1="10.87" x2="8.71" y2="10.37"/><line class="cls-1" x1="2.49" y1="4.26" x2="14.15" y2="4.26"/><path class="cls-2" d="M41.83,17.78c0,1.64-1.33,2.97-2.97,2.97s-2.97-1.33-2.97-2.97,1.33-2.97,2.97-2.97,2.97,1.33,2.97,2.97"/><path class="cls-3" d="M38.85,14.19c1.99,0,3.6,1.61,3.6,3.59h.48c0-2.25-1.82-4.07-4.07-4.07s-4.07,1.82-4.07,4.07h.48c0-1.99,1.61-3.59,3.59-3.59"/><path class="cls-1" d="M38.85,14.19c1.99,0,3.6,1.61,3.6,3.59h.48c0-2.25-1.82-4.07-4.07-4.07s-4.07,1.82-4.07,4.07h.48c0-1.99,1.61-3.59,3.59-3.59Z"/><path class="cls-2" d="M12,17.78c0,1.64-1.33,2.97-2.97,2.97s-2.97-1.33-2.97-2.97,1.33-2.97,2.97-2.97,2.97,1.33,2.97,2.97"/><path class="cls-3" d="M12.84,17.66h-.41c0-3.47-1.47-3.43-1.47-3.43h-4.2s-.25.05-.25.05l-.2.13-.15.22-.1.33-.68,2.91h-2.13l-.12-.03-.16-.02-.1-.05-.12-.06-.1-.07v-.93l.12.06.15.05.16.02.15.02.15.02h1.43l.48-1.83.05-.25.07-.23.08-.2.12-.2.12-.17.15-.15.2-.16.22-.12h4.79s1.74-.12,1.74,4.08"/><path class="cls-1" d="M12.84,17.66h-.41c0-3.47-1.47-3.43-1.47-3.43h-4.2s-.25.05-.25.05l-.2.13-.15.22-.1.33-.68,2.91h-2.13l-.12-.03-.16-.02-.1-.05-.12-.06-.1-.07v-.93l.12.06.15.05.16.02.15.02.15.02h1.43l.48-1.83.05-.25.07-.23.08-.2.12-.2.12-.17.15-.15.2-.16.22-.12h4.79s1.74-.12,1.74,4.08Z"/></svg>