<?xml version="1.0" encoding="UTF-8"?><svg id="Capa_1" xmlns="http://www.w3.org/2000/svg" width="59.58" height="24.22" viewBox="0 0 59.58 24.22"><defs><style>.cls-1{fill:none;stroke:#1d1d1b;stroke-width:.3px;}.cls-2{fill:#e30613;}.cls-2,.cls-3{stroke-width:0px;}.cls-3{fill:#fff;}</style></defs><rect class="cls-3" x="23.04" y="15.67" width="35.11" height="2.04"/><rect class="cls-1" x="23.04" y="15.67" width="35.11" height="2.04"/><polygon class="cls-3" points=".94 16.26 .94 13.65 2.03 12.31 2.3 8.4 2.33 8.29 2.38 8.12 2.48 7.91 2.58 7.69 2.74 7.48 2.92 7.29 3.13 7.17 3.38 7.12 12.75 7.14 13.58 7.97 13.58 18.76 1.01 18.76 .94 16.26"/><polygon class="cls-1" points=".94 16.26 .94 13.65 2.03 12.31 2.3 8.4 2.33 8.29 2.38 8.12 2.48 7.91 2.58 7.69 2.74 7.48 2.92 7.29 3.13 7.17 3.38 7.12 12.75 7.14 13.58 7.97 13.58 18.76 1.01 18.76 .94 16.26"/><path class="cls-3" d="M2.17,13.53v4.83h5.77v-5.35H2.69c-.37,0-.52.41-.52.52"/><path class="cls-1" d="M2.17,13.53v4.83h5.77v-5.35H2.69c-.37,0-.52.41-.52.52Z"/><rect class="cls-3" x="14.84" y="1.03" width="43.31" height="14.95"/><rect class="cls-1" x="14.84" y="1.03" width="43.31" height="14.95"/><polygon class="cls-3" points="11.76 20.77 8.65 20.77 7.63 20.77 6.59 20.77 5.56 20.77 4.55 20.77 3.51 20.77 2.48 20.77 2.48 19.22 1 19.22 .89 19.21 .79 19.17 .7 19.14 .6 19.07 .54 18.98 .47 18.9 .43 18.82 .41 18.73 .41 16.66 .43 16.57 .47 16.47 .51 16.39 .58 16.32 .66 16.25 .74 16.2 .84 16.16 .94 16.14 2.05 16.14 2.2 16.2 2.34 16.32 2.45 16.47 2.48 16.64 2.48 17.77 2.49 17.89 2.55 18 2.64 18.11 2.74 18.2 2.84 18.27 2.98 18.33 3.1 18.36 3.22 18.39 4.65 18.39 4.76 18.36 4.88 18.35 4.98 18.3 5.07 18.23 5.16 18.16 5.23 18.05 5.29 17.96 5.3 17.86 5.3 17.26 5.32 17.09 5.38 16.94 5.5 16.84 5.63 16.76 5.82 16.72 6.03 16.67 6.27 16.66 6.52 16.66 11.76 16.66 12.78 18.2 18.07 18.2 19.07 16.66 27.86 16.66 28.36 17.18 58.27 17.18 58.27 17.65 57.75 18.7 57.75 21.52 57.19 21.52 57.19 20.27 42.68 20.27 35.88 20.27 36.4 19.22 29.27 19.22 29.27 20.77 14.84 20.76 11.76 20.77"/><polygon class="cls-1" points="11.76 20.77 8.65 20.77 7.63 20.77 6.59 20.77 5.56 20.77 4.55 20.77 3.51 20.77 2.48 20.77 2.48 19.22 1 19.22 .89 19.21 .79 19.17 .7 19.14 .6 19.07 .54 18.98 .47 18.9 .43 18.82 .41 18.73 .41 16.66 .43 16.57 .47 16.47 .51 16.39 .58 16.32 .66 16.25 .74 16.2 .84 16.16 .94 16.14 2.05 16.14 2.2 16.2 2.34 16.32 2.45 16.47 2.48 16.64 2.48 17.77 2.49 17.89 2.55 18 2.64 18.11 2.74 18.2 2.84 18.27 2.98 18.33 3.1 18.36 3.22 18.39 4.65 18.39 4.76 18.36 4.88 18.35 4.98 18.3 5.07 18.23 5.16 18.16 5.23 18.05 5.29 17.96 5.3 17.86 5.3 17.26 5.32 17.09 5.38 16.94 5.5 16.84 5.63 16.76 5.82 16.72 6.03 16.67 6.27 16.66 6.52 16.66 11.76 16.66 12.78 18.2 18.07 18.2 19.07 16.66 27.86 16.66 28.36 17.18 58.27 17.18 58.27 17.65 57.75 18.7 57.75 21.52 57.19 21.52 57.19 20.27 42.68 20.27 35.88 20.27 36.4 19.22 29.27 19.22 29.27 20.77 14.84 20.76 11.76 20.77"/><path class="cls-3" d="M54.84,21.23s-.31-3.89-3.89-3.89-3.8,3.5-3.8,3.5h-.96s-.35-3.5-3.58-3.5-3.89,3.45-3.89,3.45l-26.01.48s-.31-3.98-3.8-3.98-3.76,3.98-3.76,3.98l49.71-.04Z"/><polygon class="cls-3" points="2.48 19.22 2.48 21.08 2.46 21.17 2.41 21.24 2.34 21.29 2.26 21.31 1.15 21.31 1.07 21.29 1 21.24 .94 21.17 .94 21.08 .94 19.22 2.48 19.22"/><polygon class="cls-1" points="2.48 19.22 2.48 21.08 2.46 21.17 2.41 21.24 2.34 21.29 2.26 21.31 1.15 21.31 1.07 21.29 1 21.24 .94 21.17 .94 21.08 .94 19.22 2.48 19.22"/><polygon class="cls-3" points="12.45 12.48 14.95 12.48 15.13 12.51 15.28 12.63 15.37 12.81 15.4 13.03 15.4 17.71 15.37 17.93 15.28 18.11 15.13 18.23 14.95 18.26 12.45 18.26 12.28 18.23 12.12 18.11 12.04 17.93 12 17.71 12 13.03 12.04 12.81 12.12 12.63 12.28 12.51 12.45 12.48"/><polygon class="cls-1" points="12.45 12.48 14.95 12.48 15.13 12.51 15.28 12.63 15.37 12.81 15.4 13.03 15.4 17.71 15.37 17.93 15.28 18.11 15.13 18.23 14.95 18.26 12.45 18.26 12.28 18.23 12.12 18.11 12.04 17.93 12 17.71 12 13.03 12.04 12.81 12.12 12.63 12.28 12.51 12.45 12.48"/><path class="cls-3" d="M3.05,9.33c-.02.19-.34,3.68-.34,3.68h5.23v-4.51s-3.65-.05-4.15-.05-.72.69-.74.88"/><path class="cls-1" d="M3.05,9.33c-.02.19-.34,3.68-.34,3.68h5.23v-4.51s-3.65-.05-4.15-.05-.72.69-.74.88Z"/><polygon class="cls-3" points="2.36 8.19 1.13 13.44 1.91 12.9 2.03 12.78 2.14 12.66 2.2 12.53 2.24 12.41 2.55 9.21 2.57 8.69 2.53 8.41 2.45 8.28 2.36 8.19"/><polygon class="cls-1" points="2.36 8.19 1.13 13.44 1.91 12.9 2.03 12.78 2.14 12.66 2.2 12.53 2.24 12.41 2.55 9.21 2.57 8.69 2.53 8.41 2.45 8.28 2.36 8.19"/><rect class="cls-3" x="8.46" y="8.5" width="2.42" height="4.24"/><rect class="cls-1" x="8.46" y="8.5" width="2.42" height="4.24"/><polygon class="cls-3" points="12.28 7.12 12.28 2.05 9.45 2.05 9.24 2.05 9.02 2.08 8.8 2.11 8.59 2.15 8.37 2.21 8.16 2.28 7.96 2.37 7.75 2.46 7.54 2.55 7.33 2.67 7.14 2.79 6.98 2.92 6.8 3.06 6.62 3.22 6.47 3.37 6.33 3.53 3.29 7.12 12.28 7.12"/><polygon class="cls-1" points="12.28 7.12 12.28 2.05 9.45 2.05 9.24 2.05 9.02 2.08 8.8 2.11 8.59 2.15 8.37 2.21 8.16 2.28 7.96 2.37 7.75 2.46 7.54 2.55 7.33 2.67 7.14 2.79 6.98 2.92 6.8 3.06 6.62 3.22 6.47 3.37 6.33 3.53 3.29 7.12 12.28 7.12"/><rect class="cls-3" x="14.84" y=".15" width="44.32" height=".99"/><rect class="cls-1" x="14.84" y=".15" width="44.32" height=".99"/><polygon class="cls-3" points="59.16 .15 57.82 .15 57.82 16.54 58.33 18.94 59.16 18.94 59.16 .15"/><polygon class="cls-1" points="59.16 .15 57.82 .15 57.82 16.54 58.33 18.94 59.16 18.94 59.16 .15"/><path class="cls-2" d="M45.43,21.12c0,1.61-1.31,2.92-2.92,2.92s-2.92-1.3-2.92-2.92,1.31-2.92,2.92-2.92,2.92,1.31,2.92,2.92"/><path class="cls-3" d="M42.51,17.58c1.95,0,3.53,1.58,3.53,3.53h.47c0-2.21-1.79-4-4-4s-4,1.79-4,4h.47c0-1.95,1.58-3.53,3.53-3.53"/><path class="cls-1" d="M42.51,17.58c1.95,0,3.53,1.58,3.53,3.53h.47c0-2.21-1.79-4-4-4s-4,1.79-4,4h.47c0-1.95,1.58-3.53,3.53-3.53Z"/><path class="cls-2" d="M53.91,21.12c0,1.61-1.31,2.92-2.92,2.92s-2.92-1.3-2.92-2.92,1.31-2.92,2.92-2.92,2.92,1.31,2.92,2.92"/><path class="cls-3" d="M50.99,17.58c1.95,0,3.53,1.58,3.53,3.53h.47c0-2.21-1.79-4-4-4s-4,1.79-4,4h.47c0-1.95,1.58-3.53,3.53-3.53"/><path class="cls-1" d="M50.99,17.58c1.95,0,3.53,1.58,3.53,3.53h.47c0-2.21-1.79-4-4-4s-4,1.79-4,4h.47c0-1.95,1.58-3.53,3.53-3.53Z"/><path class="cls-2" d="M11.81,21.12c0,1.61-1.31,2.92-2.92,2.92s-2.92-1.3-2.92-2.92,1.31-2.92,2.92-2.92,2.92,1.31,2.92,2.92"/><path class="cls-3" d="M8.89,17.58c1.95,0,3.53,1.58,3.53,3.53h.47c0-2.21-1.79-4-4-4s-4,1.79-4,4h.47c0-1.95,1.58-3.53,3.53-3.53"/><path class="cls-1" d="M8.89,17.58c1.95,0,3.53,1.58,3.53,3.53h.47c0-2.21-1.79-4-4-4s-4,1.79-4,4h.47c0-1.95,1.58-3.53,3.53-3.53Z"/></svg>