<?xml version="1.0" encoding="UTF-8"?><svg id="Capa_1" xmlns="http://www.w3.org/2000/svg" width="75.62" height="24.22" viewBox="0 0 75.62 24.22"><defs><style>.cls-1{fill:#e30613;}.cls-1,.cls-2,.cls-3{stroke-width:0px;}.cls-2{fill:#706f6f;}.cls-3{fill:#fff;}.cls-4{fill:none;stroke:#1d1d1b;stroke-width:.3px;}</style></defs><rect class="cls-3" x="31.06" y="15.67" width="35.11" height="2.04"/><rect class="cls-4" x="31.06" y="15.67" width="35.11" height="2.04"/><polygon class="cls-3" points="8.96 16.26 8.96 13.65 10.05 12.31 10.32 8.4 10.35 8.29 10.4 8.12 10.5 7.91 10.6 7.69 10.76 7.48 10.94 7.29 11.15 7.17 11.4 7.12 20.77 7.14 21.6 7.97 21.6 18.76 9.03 18.76 8.96 16.26"/><polygon class="cls-4" points="8.96 16.26 8.96 13.65 10.05 12.31 10.32 8.4 10.35 8.29 10.4 8.12 10.5 7.91 10.6 7.69 10.76 7.48 10.94 7.29 11.15 7.17 11.4 7.12 20.77 7.14 21.6 7.97 21.6 18.76 9.03 18.76 8.96 16.26"/><path class="cls-3" d="M10.19,13.53v4.83h5.77v-5.35h-5.25c-.37,0-.52.41-.52.52"/><path class="cls-4" d="M10.19,13.53v4.83h5.77v-5.35h-5.25c-.37,0-.52.41-.52.52Z"/><rect class="cls-3" x="22.86" y="1.03" width="43.31" height="14.95"/><rect class="cls-4" x="22.86" y="1.03" width="43.31" height="14.95"/><polygon class="cls-3" points="19.78 20.77 16.68 20.77 15.65 20.77 14.61 20.77 13.58 20.77 12.57 20.77 11.53 20.77 10.5 20.77 10.5 19.22 9.02 19.22 8.91 19.21 8.81 19.17 8.72 19.14 8.62 19.07 8.56 18.98 8.49 18.9 8.45 18.82 8.43 18.73 8.43 16.66 8.45 16.57 8.49 16.47 8.54 16.39 8.6 16.32 8.68 16.25 8.76 16.2 8.87 16.16 8.96 16.14 10.07 16.14 10.22 16.2 10.36 16.32 10.47 16.47 10.5 16.64 10.5 17.77 10.51 17.89 10.57 18 10.66 18.11 10.76 18.2 10.86 18.27 11 18.33 11.12 18.36 11.24 18.39 12.67 18.39 12.78 18.36 12.9 18.35 13 18.3 13.1 18.23 13.19 18.16 13.25 18.05 13.31 17.96 13.32 17.86 13.32 17.26 13.34 17.09 13.4 16.94 13.52 16.84 13.65 16.76 13.84 16.72 14.05 16.67 14.29 16.66 14.55 16.66 19.78 16.66 20.8 18.2 26.09 18.2 27.09 16.66 35.88 16.66 36.38 17.18 66.29 17.18 66.29 17.65 65.77 18.7 65.77 21.52 65.21 21.52 65.21 20.27 50.7 20.27 43.9 20.27 44.42 19.22 37.29 19.22 37.29 20.77 22.86 20.76 19.78 20.77"/><polygon class="cls-4" points="19.78 20.77 16.68 20.77 15.65 20.77 14.61 20.77 13.58 20.77 12.57 20.77 11.53 20.77 10.5 20.77 10.5 19.22 9.02 19.22 8.91 19.21 8.81 19.17 8.72 19.14 8.62 19.07 8.56 18.98 8.49 18.9 8.45 18.82 8.43 18.73 8.43 16.66 8.45 16.57 8.49 16.47 8.54 16.39 8.6 16.32 8.68 16.25 8.76 16.2 8.87 16.16 8.96 16.14 10.07 16.14 10.22 16.2 10.36 16.32 10.47 16.47 10.5 16.64 10.5 17.77 10.51 17.89 10.57 18 10.66 18.11 10.76 18.2 10.86 18.27 11 18.33 11.12 18.36 11.24 18.39 12.67 18.39 12.78 18.36 12.9 18.35 13 18.3 13.1 18.23 13.19 18.16 13.25 18.05 13.31 17.96 13.32 17.86 13.32 17.26 13.34 17.09 13.4 16.94 13.52 16.84 13.65 16.76 13.84 16.72 14.05 16.67 14.29 16.66 14.55 16.66 19.78 16.66 20.8 18.2 26.09 18.2 27.09 16.66 35.88 16.66 36.38 17.18 66.29 17.18 66.29 17.65 65.77 18.7 65.77 21.52 65.21 21.52 65.21 20.27 50.7 20.27 43.9 20.27 44.42 19.22 37.29 19.22 37.29 20.77 22.86 20.76 19.78 20.77"/><path class="cls-3" d="M62.86,21.23s-.31-3.89-3.89-3.89-3.8,3.5-3.8,3.5h-.96s-.35-3.5-3.59-3.5-3.89,3.45-3.89,3.45l-26.01.48s-.31-3.98-3.8-3.98-3.76,3.98-3.76,3.98l49.71-.04Z"/><polygon class="cls-3" points="10.5 19.22 10.5 21.08 10.48 21.17 10.43 21.24 10.36 21.29 10.28 21.31 9.17 21.31 9.09 21.29 9.02 21.24 8.96 21.17 8.96 21.08 8.96 19.22 10.5 19.22"/><polygon class="cls-4" points="10.5 19.22 10.5 21.08 10.48 21.17 10.43 21.24 10.36 21.29 10.28 21.31 9.17 21.31 9.09 21.29 9.02 21.24 8.96 21.17 8.96 21.08 8.96 19.22 10.5 19.22"/><polygon class="cls-3" points="20.47 12.48 22.97 12.48 23.15 12.51 23.3 12.63 23.39 12.81 23.42 13.03 23.42 17.71 23.39 17.93 23.3 18.11 23.15 18.23 22.97 18.26 20.47 18.26 20.3 18.23 20.14 18.11 20.06 17.93 20.02 17.71 20.02 13.03 20.06 12.81 20.14 12.63 20.3 12.51 20.47 12.48"/><polygon class="cls-4" points="20.47 12.48 22.97 12.48 23.15 12.51 23.3 12.63 23.39 12.81 23.42 13.03 23.42 17.71 23.39 17.93 23.3 18.11 23.15 18.23 22.97 18.26 20.47 18.26 20.3 18.23 20.14 18.11 20.06 17.93 20.02 17.71 20.02 13.03 20.06 12.81 20.14 12.63 20.3 12.51 20.47 12.48"/><path class="cls-3" d="M11.07,9.33c-.02.19-.34,3.68-.34,3.68h5.23v-4.51s-3.65-.05-4.15-.05-.72.69-.74.88"/><path class="cls-4" d="M11.07,9.33c-.02.19-.34,3.68-.34,3.68h5.23v-4.51s-3.65-.05-4.15-.05-.72.69-.74.88Z"/><polygon class="cls-3" points="10.38 8.19 9.15 13.44 9.93 12.9 10.05 12.78 10.16 12.66 10.22 12.53 10.26 12.41 10.57 9.21 10.59 8.69 10.56 8.41 10.47 8.28 10.38 8.19"/><polygon class="cls-4" points="10.38 8.19 9.15 13.44 9.93 12.9 10.05 12.78 10.16 12.66 10.22 12.53 10.26 12.41 10.57 9.21 10.59 8.69 10.56 8.41 10.47 8.28 10.38 8.19"/><rect class="cls-3" x="16.48" y="8.5" width="2.42" height="4.24"/><rect class="cls-4" x="16.48" y="8.5" width="2.42" height="4.24"/><polygon class="cls-3" points="20.3 7.12 20.3 2.05 17.47 2.05 17.26 2.05 17.04 2.08 16.82 2.11 16.61 2.15 16.39 2.21 16.18 2.28 15.98 2.37 15.77 2.46 15.56 2.55 15.35 2.67 15.16 2.79 15 2.92 14.82 3.06 14.64 3.22 14.49 3.37 14.36 3.53 11.31 7.12 20.3 7.12"/><polygon class="cls-4" points="20.3 7.12 20.3 2.05 17.47 2.05 17.26 2.05 17.04 2.08 16.82 2.11 16.61 2.15 16.39 2.21 16.18 2.28 15.98 2.37 15.77 2.46 15.56 2.55 15.35 2.67 15.16 2.79 15 2.92 14.82 3.06 14.64 3.22 14.49 3.37 14.36 3.53 11.31 7.12 20.3 7.12"/><rect class="cls-3" x="22.86" y=".15" width="44.32" height=".99"/><rect class="cls-4" x="22.86" y=".15" width="44.32" height=".99"/><polygon class="cls-3" points="67.18 .15 65.84 .15 65.84 16.54 66.35 18.94 67.18 18.94 67.18 .15"/><polygon class="cls-4" points="67.18 .15 65.84 .15 65.84 16.54 66.35 18.94 67.18 18.94 67.18 .15"/><path class="cls-2" d="M53.45,21.12c0,1.61-1.31,2.92-2.92,2.92s-2.92-1.3-2.92-2.92,1.31-2.92,2.92-2.92,2.92,1.31,2.92,2.92"/><path class="cls-3" d="M50.53,17.58c1.95,0,3.53,1.58,3.53,3.53h.47c0-2.21-1.79-4-4-4s-4,1.79-4,4h.47c0-1.95,1.58-3.53,3.53-3.53"/><path class="cls-4" d="M50.53,17.58c1.95,0,3.53,1.58,3.53,3.53h.47c0-2.21-1.79-4-4-4s-4,1.79-4,4h.47c0-1.95,1.58-3.53,3.53-3.53Z"/><path class="cls-2" d="M61.93,21.12c0,1.61-1.31,2.92-2.92,2.92s-2.92-1.3-2.92-2.92,1.31-2.92,2.92-2.92,2.92,1.31,2.92,2.92"/><path class="cls-3" d="M59.01,17.58c1.95,0,3.53,1.58,3.53,3.53h.47c0-2.21-1.79-4-4-4s-4,1.79-4,4h.47c0-1.95,1.58-3.53,3.53-3.53"/><path class="cls-4" d="M59.01,17.58c1.95,0,3.53,1.58,3.53,3.53h.47c0-2.21-1.79-4-4-4s-4,1.79-4,4h.47c0-1.95,1.58-3.53,3.53-3.53Z"/><path class="cls-1" d="M19.83,21.12c0,1.61-1.31,2.92-2.92,2.92s-2.92-1.3-2.92-2.92,1.31-2.92,2.92-2.92,2.92,1.31,2.92,2.92"/><path class="cls-3" d="M16.91,17.58c1.95,0,3.53,1.58,3.53,3.53h.47c0-2.21-1.79-4-4-4s-4,1.79-4,4h.47c0-1.95,1.58-3.53,3.53-3.53"/><path class="cls-4" d="M16.91,17.58c1.95,0,3.53,1.58,3.53,3.53h.47c0-2.21-1.79-4-4-4s-4,1.79-4,4h.47c0-1.95,1.58-3.53,3.53-3.53Z"/></svg>