<?xml version="1.0" encoding="UTF-8"?><svg id="Capa_1" xmlns="http://www.w3.org/2000/svg" width="75.62" height="24.22" viewBox="0 0 75.62 24.22"><defs><style>.cls-1{stroke-linejoin:bevel;}.cls-1,.cls-2{fill:none;stroke:#1d1d1b;stroke-width:.3px;}.cls-3{fill:#e30613;}.cls-3,.cls-4{stroke-width:0px;}.cls-4{fill:#fff;}</style></defs><polygon class="cls-4" points="64.49 13.97 64.49 5.13 25.83 5.09 25.82 16.66 60.89 16.7 64.49 13.97"/><polygon class="cls-1" points="64.49 13.97 64.49 5.13 25.83 5.09 25.82 16.66 60.89 16.7 64.49 13.97"/><path class="cls-4" d="M23.92,3.59c1.49-.05,1.77,1.31,1.79,1.46l.06.36h.36s38.36.15,38.36.15v-.85s-37.39-.14-38.03-.14c-.01-.04-.01-.07-.03-.1-.29-.79-1.04-1.78-2.55-1.72l.03.85Z"/><path class="cls-1" d="M23.92,3.59c1.49-.05,1.77,1.31,1.79,1.46l.06.36h.36s38.36.15,38.36.15v-.85s-37.39-.14-38.03-.14c-.01-.04-.01-.07-.03-.1-.29-.79-1.04-1.78-2.55-1.72l.03.85Z"/><rect class="cls-4" x="25.86" y="16.27" width="1.09" height="1.81" transform="translate(9.13 43.51) rotate(-89.77)"/><rect class="cls-1" x="25.86" y="16.27" width="1.09" height="1.81" transform="translate(9.13 43.51) rotate(-89.77)"/><rect class="cls-4" x="36.06" y="19.12" width="16.8" height="2.31"/><rect class="cls-1" x="36.06" y="19.12" width="16.8" height="2.31"/><polygon class="cls-4" points="24.76 17 25.31 18.23 17.48 18.41 17.66 15.92 24.76 17"/><polygon class="cls-2" points="24.76 17 25.31 18.23 17.48 18.41 17.66 15.92 24.76 17"/><rect class="cls-4" x="13.55" y="19.3" width="22.5" height="1.06"/><rect class="cls-1" x="13.55" y="19.3" width="22.5" height="1.06"/><polygon class="cls-4" points="16.76 19.3 16.76 17.89 60.49 17.9 60.49 20.99 59.77 21 59.77 19.27 16.76 19.3"/><polyline class="cls-1" points="16.76 19.3 16.76 17.89 60.49 17.9 60.49 20.99 59.77 21 59.77 19.27 16.76 19.3"/><polygon class="cls-4" points="25.75 21.41 16.75 21.41 17.66 17.86 20.3 16.42 24.2 16.42 25.75 21.41"/><path class="cls-4" d="M11.59,13.44l1.44.34v4.98l4.1.19,1.77-2.13,4.63-.2V6.19l-.14-1.4s-4.68,0-6.79,0-2.71.58-2.87.99c-.15.4-2.09,5.97-2.09,5.97l-.04,1.71"/><path class="cls-1" d="M11.59,13.44l1.44.34v4.98l4.1.19,1.77-2.13,4.63-.2V6.19l-.14-1.4s-4.68,0-6.79,0-2.71.58-2.87.99c-.15.4-2.09,5.97-2.09,5.97l-.04,1.71"/><path class="cls-4" d="M24.04,15.92c-.82,0-.14-.37-.14-.37h-6.63l-4.25,2.38v.3s0,2.13,0,2.13l.9.37h1.97l.34-.37h.91s.62-1.75,1.15-2.43c.54-.68.96-.93,2.17-.93.65,0,2.89-.01,3.43-.01s1.67,4.51,1.67,4.51h.77s-1.48-5.58-2.3-5.58"/><path class="cls-1" d="M24.04,15.92c-.82,0-.14-.37-.14-.37h-6.63l-4.25,2.38v.3s0,2.13,0,2.13l.9.37h1.97l.34-.37h.91s.62-1.75,1.15-2.43c.54-.68.96-.93,2.17-.93.65,0,2.89-.01,3.43-.01s1.67,4.51,1.67,4.51h.77s-1.48-5.58-2.3-5.58Z"/><polygon class="cls-4" points="21.39 6.2 23.52 6.2 24.07 13.27 24.07 15.91 21.39 15.91 21.39 6.2"/><polygon class="cls-1" points="21.39 6.2 23.52 6.2 24.07 13.27 24.07 15.91 21.39 15.91 21.39 6.2"/><path class="cls-4" d="M21.38,15.92V6.2s-5.69,0-5.69,0c-.42,0-.88.28-1.07.88-.18.6-1.64,5.51-1.64,5.51v5.34h3.9s.74-.92,1.21-1.37c.49-.47,1.02-.63,2.17-.63h1.11Z"/><path class="cls-1" d="M21.38,15.92V6.2s-5.69,0-5.69,0c-.42,0-.88.28-1.07.88-.18.6-1.64,5.51-1.64,5.51v5.34h3.9s.74-.92,1.21-1.37c.49-.47,1.02-.63,2.17-.63h1.11Z"/><polygon class="cls-4" points="11.51 17.73 11.13 17.96 11.13 18.93 11.74 19.59 13.01 19.59 13.01 17.73 11.51 17.73"/><polygon class="cls-1" points="11.51 17.73 11.13 17.96 11.13 18.93 11.74 19.59 13.01 19.59 13.01 17.73 11.51 17.73"/><path class="cls-4" d="M14.97,11.06l-.12-.04-.11-.07-.09-.09-.03-.12-.04-.1v-.13l.79-3.36s.13-.31.38-.31h4.64c.15,0,.28.13.28.35v3.14c0,.21-.19.38-.33.38-.13,0-5.19.35-5.19.35h-.19"/><path class="cls-1" d="M14.97,11.06l-.12-.04-.11-.07-.09-.09-.03-.12-.04-.1v-.13l.79-3.36s.13-.31.38-.31h4.64c.15,0,.28.13.28.35v3.14c0,.21-.19.38-.33.38-.13,0-5.19.35-5.19.35h-.19"/><line class="cls-1" x1="16.57" y1="6.84" x2="16.57" y2="10.94"/><path class="cls-4" d="M11.62,11.81h1.21l1.46-5.15s.08-.62-.43-.62h-.24l-2.01,5.78"/><path class="cls-1" d="M11.62,11.81h1.21l1.46-5.15s.08-.62-.43-.62h-.24l-2.01,5.78"/><polygon class="cls-4" points="13.01 12.59 11.38 12.59 11.27 12.92 11.27 17.64 11.38 17.73 13.01 17.73 13.01 12.59"/><polygon class="cls-1" points="13.01 12.59 11.38 12.59 11.27 12.92 11.27 17.64 11.38 17.73 13.01 17.73 13.01 12.59"/><path class="cls-4" d="M45.36,16.78c3.59,0,3.86,3.31,3.86,3.31l1.75.05s.28-3.34,3.86-3.34,3.89,3.36,3.89,3.36h-17.26s.31-3.39,3.89-3.39"/><path class="cls-3" d="M24.49,20.92c0,1.73-1.4,3.12-3.12,3.12s-3.12-1.4-3.12-3.12,1.4-3.12,3.12-3.12,3.12,1.4,3.12,3.12"/><path class="cls-3" d="M48.66,20.92c0,1.73-1.4,3.12-3.13,3.12s-3.12-1.4-3.12-3.12,1.4-3.12,3.12-3.12,3.13,1.4,3.13,3.12"/><path class="cls-4" d="M45.53,17.14c2.09,0,3.78,1.69,3.78,3.78h.5c0-2.36-1.92-4.28-4.28-4.28s-4.28,1.92-4.28,4.28h.5c0-2.09,1.69-3.78,3.78-3.78"/><path class="cls-2" d="M45.53,17.14c2.09,0,3.78,1.69,3.78,3.78h.5c0-2.36-1.92-4.28-4.28-4.28s-4.28,1.92-4.28,4.28h.5c0-2.09,1.69-3.78,3.78-3.78Z"/><path class="cls-3" d="M57.74,20.92c0,1.73-1.4,3.12-3.12,3.12s-3.13-1.4-3.13-3.12,1.4-3.12,3.13-3.12,3.12,1.4,3.12,3.12"/><path class="cls-4" d="M54.61,17.14c2.09,0,3.78,1.69,3.78,3.78h.5c0-2.36-1.92-4.28-4.28-4.28s-4.28,1.92-4.28,4.28h.5c0-2.09,1.69-3.78,3.78-3.78"/><path class="cls-2" d="M54.61,17.14c2.09,0,3.78,1.69,3.78,3.78h.5c0-2.36-1.92-4.28-4.28-4.28s-4.28,1.92-4.28,4.28h.5c0-2.09,1.69-3.78,3.78-3.78Z"/><path class="cls-3" d="M34.43,20.92c0,1.73-1.4,3.12-3.12,3.12s-3.12-1.4-3.12-3.12,1.4-3.12,3.12-3.12,3.12,1.4,3.12,3.12"/><path class="cls-4" d="M31.31,17.14c2.09,0,3.78,1.69,3.78,3.78h.5c0-2.36-1.92-4.28-4.28-4.28s-4.28,1.92-4.28,4.28h.5c0-2.09,1.69-3.78,3.78-3.78"/><path class="cls-2" d="M31.31,17.14c2.09,0,3.78,1.69,3.78,3.78h.5c0-2.36-1.92-4.28-4.28-4.28s-4.28,1.92-4.28,4.28h.5c0-2.09,1.69-3.78,3.78-3.78Z"/></svg>