<?xml version="1.0" encoding="UTF-8"?><svg id="Capa_1" xmlns="http://www.w3.org/2000/svg" width="48.98" height="24.22" viewBox="0 0 48.98 24.22"><defs><style>.cls-1{stroke-linejoin:bevel;}.cls-1,.cls-2{fill:none;stroke:#1d1d1b;stroke-width:.3px;}.cls-3{fill:#e30613;}.cls-3,.cls-4,.cls-5{stroke-width:0px;}.cls-4{fill:#706f6f;}.cls-5{fill:#fff;}</style></defs><polygon class="cls-5" points="48.67 14.14 48.67 5.44 14.77 5.4 14.77 16.78 45.13 16.82 48.67 14.14"/><polygon class="cls-1" points="48.67 14.14 48.67 5.44 14.77 5.4 14.77 16.78 45.13 16.82 48.67 14.14"/><path class="cls-5" d="M12.89,3.92c1.47-.05,1.74,1.29,1.77,1.44l.06.35h.35s33.6.14,33.6.14v-.84s-32.65-.14-33.28-.14c-.01-.04-.01-.07-.03-.1-.28-.77-1.02-1.75-2.5-1.69l.03.84Z"/><path class="cls-1" d="M12.89,3.92c1.47-.05,1.74,1.29,1.77,1.44l.06.35h.35s33.6.14,33.6.14v-.84s-32.65-.14-33.28-.14c-.01-.04-.01-.07-.03-.1-.28-.77-1.02-1.75-2.5-1.69l.03.84Z"/><rect class="cls-5" x="14.8" y="16.4" width="1.07" height="1.78" transform="translate(-2.01 32.56) rotate(-89.77)"/><rect class="cls-1" x="14.8" y="16.4" width="1.07" height="1.78" transform="translate(-2.01 32.56) rotate(-89.77)"/><rect class="cls-5" x="20.69" y="19.2" width="16.53" height="2.27"/><rect class="cls-1" x="20.69" y="19.2" width="16.53" height="2.27"/><polygon class="cls-5" points="13.72 17.12 14.26 18.33 6.56 18.51 6.73 16.06 13.72 17.12"/><polygon class="cls-2" points="13.72 17.12 14.26 18.33 6.56 18.51 6.73 16.06 13.72 17.12"/><rect class="cls-5" x="2.69" y="19.38" width="18" height="1.05"/><rect class="cls-1" x="2.69" y="19.38" width="18" height="1.05"/><polyline class="cls-5" points="5.85 19.38 5.85 17.99 44.73 18.01 44.73 21.04 44.03 21.06 44.02 19.35 5.85 19.38"/><polyline class="cls-1" points="5.85 19.38 5.85 17.99 44.73 18.01 44.73 21.04 44.03 21.06 44.02 19.35 5.85 19.38"/><polygon class="cls-5" points="14.69 21.46 5.84 21.46 6.73 17.97 9.33 16.55 13.16 16.55 14.69 21.46"/><path class="cls-5" d="M.76,13.62l1.41.33v4.89l4.04.19,1.74-2.09,4.56-.2V6.48l-.13-1.38s-4.61-.01-6.69-.01-2.67.58-2.82.98S.8,11.94.8,11.94l-.04,1.68"/><path class="cls-1" d="M.76,13.62l1.41.33v4.89l4.04.19,1.74-2.09,4.56-.2V6.48l-.13-1.38s-4.61-.01-6.69-.01-2.67.58-2.82.98S.8,11.94.8,11.94l-.04,1.68"/><path class="cls-5" d="M13.01,16.06c-.81,0-.13-.37-.13-.37h-6.52l-4.18,2.34v.3s0,2.09,0,2.09l.89.36h1.93l.34-.36h.9s.61-1.73,1.13-2.39c.54-.67.94-.91,2.13-.91.64,0,2.84-.01,3.38-.01s1.64,4.44,1.64,4.44h.76s-1.46-5.49-2.27-5.49"/><path class="cls-1" d="M13.01,16.06c-.81,0-.13-.37-.13-.37h-6.52l-4.18,2.34v.3s0,2.09,0,2.09l.89.36h1.93l.34-.36h.9s.61-1.73,1.13-2.39c.54-.67.94-.91,2.13-.91.64,0,2.84-.01,3.38-.01s1.64,4.44,1.64,4.44h.76s-1.46-5.49-2.27-5.49Z"/><polygon class="cls-5" points="10.4 6.49 12.5 6.49 13.04 13.45 13.04 16.05 10.4 16.05 10.4 6.49"/><polygon class="cls-1" points="10.4 6.49 12.5 6.49 13.04 13.45 13.04 16.05 10.4 16.05 10.4 6.49"/><path class="cls-5" d="M10.39,16.06V6.49s-5.59,0-5.59,0c-.41,0-.87.28-1.05.87-.18.59-1.61,5.42-1.61,5.42v5.25h3.83s.73-.9,1.19-1.35c.48-.46,1-.62,2.14-.62h1.09Z"/><path class="cls-1" d="M10.39,16.06V6.49s-5.59,0-5.59,0c-.41,0-.87.28-1.05.87-.18.59-1.61,5.42-1.61,5.42v5.25h3.83s.73-.9,1.19-1.35c.48-.46,1-.62,2.14-.62h1.09Z"/><polygon class="cls-5" points=".68 17.84 .3 18.06 .3 19.02 .91 19.66 2.16 19.66 2.16 17.84 .68 17.84"/><polygon class="cls-1" points=".68 17.84 .3 18.06 .3 19.02 .91 19.66 2.16 19.66 2.16 17.84 .68 17.84"/><path class="cls-5" d="M4.08,11.27l-.11-.04-.11-.07-.09-.09-.03-.11-.04-.1v-.13l.78-3.31s.13-.3.38-.3h4.56c.15,0,.28.13.28.34v3.09c0,.21-.19.37-.32.38-.13,0-5.1.35-5.1.35h-.19"/><path class="cls-1" d="M4.08,11.27l-.11-.04-.11-.07-.09-.09-.03-.11-.04-.1v-.13l.78-3.31s.13-.3.38-.3h4.56c.15,0,.28.13.28.34v3.09c0,.21-.19.37-.32.38-.13,0-5.1.35-5.1.35h-.19"/><line class="cls-1" x1="5.66" y1="7.12" x2="5.66" y2="11.16"/><path class="cls-5" d="M.79,12.01h1.19l1.44-5.07s.08-.61-.42-.61h-.23l-1.98,5.68"/><path class="cls-1" d="M.79,12.01h1.19l1.44-5.07s.08-.61-.42-.61h-.23l-1.98,5.68"/><polygon class="cls-5" points="2.16 12.78 .56 12.78 .45 13.1 .45 17.75 .56 17.84 2.16 17.84 2.16 12.78"/><polygon class="cls-1" points="2.16 12.78 .56 12.78 .45 13.1 .45 17.75 .56 17.84 2.16 17.84 2.16 12.78"/><path class="cls-5" d="M29.85,16.9c3.53,0,3.8,3.25,3.8,3.25l1.72.05s.27-3.28,3.8-3.28,3.83,3.31,3.83,3.31h-16.99s.3-3.34,3.83-3.34"/><path class="cls-3" d="M13.45,20.98c0,1.7-1.38,3.07-3.07,3.07s-3.07-1.38-3.07-3.07,1.38-3.07,3.07-3.07,3.07,1.38,3.07,3.07"/><path class="cls-4" d="M33.09,20.98c0,1.7-1.37,3.07-3.07,3.07s-3.07-1.38-3.07-3.07,1.38-3.07,3.07-3.07,3.07,1.38,3.07,3.07"/><path class="cls-5" d="M30.02,17.26c2.06,0,3.72,1.67,3.72,3.72h.49c0-2.33-1.89-4.21-4.21-4.21s-4.21,1.88-4.21,4.21h.49c0-2.05,1.66-3.72,3.72-3.72"/><path class="cls-2" d="M30.02,17.26c2.06,0,3.72,1.67,3.72,3.72h.49c0-2.33-1.89-4.21-4.21-4.21s-4.21,1.88-4.21,4.21h.49c0-2.05,1.66-3.72,3.72-3.72Z"/><path class="cls-4" d="M42.02,20.98c0,1.7-1.38,3.07-3.07,3.07s-3.07-1.38-3.07-3.07,1.38-3.07,3.07-3.07,3.07,1.38,3.07,3.07"/><path class="cls-5" d="M38.95,17.26c2.05,0,3.72,1.67,3.72,3.72h.49c0-2.33-1.89-4.21-4.21-4.21s-4.21,1.88-4.21,4.21h.49c0-2.05,1.67-3.72,3.72-3.72"/><path class="cls-2" d="M38.95,17.26c2.05,0,3.72,1.67,3.72,3.72h.49c0-2.33-1.89-4.21-4.21-4.21s-4.21,1.88-4.21,4.21h.49c0-2.05,1.67-3.72,3.72-3.72Z"/></svg>