<?xml version="1.0" encoding="UTF-8"?><svg id="Capa_1" xmlns="http://www.w3.org/2000/svg" width="50.21" height="13.1" viewBox="0 0 50.21 13.1"><defs><style>.cls-1{fill:none;stroke:#1d1d1b;stroke-width:.3px;}.cls-2{fill:#e30613;}.cls-2,.cls-3{stroke-width:0px;}.cls-3{fill:#fff;}</style></defs><polygon class="cls-3" points="49.8 10.98 49.77 5.09 44.77 5.07 44.29 3.9 36.52 3.9 35.88 5.19 17.72 5.19 2.86 5.2 2.86 1.21 2.77 .97 2.63 .72 2.41 .49 2.18 .41 1.22 .41 .94 .45 .69 .59 .49 .83 .42 1.05 .42 3.92 .49 4.19 .73 4.37 1.03 4.54 1.32 4.58 1.31 6.66 13.12 6.66 13.16 8.55 16.43 8.55 16.43 12.33 15.43 12.33 15.43 12.92 18.03 12.92 18.03 12.33 17.02 12.33 17.02 8.55 49.01 8.55 49 10.98 49.8 10.98"/><polygon class="cls-1" points="49.8 10.98 49.77 5.09 44.77 5.07 44.29 3.9 36.52 3.9 35.88 5.19 17.72 5.19 2.86 5.2 2.86 1.21 2.77 .97 2.63 .72 2.41 .49 2.18 .41 1.22 .41 .94 .45 .69 .59 .49 .83 .42 1.05 .42 3.92 .49 4.19 .73 4.37 1.03 4.54 1.32 4.58 1.31 6.66 13.12 6.66 13.16 8.55 16.43 8.55 16.43 12.33 15.43 12.33 15.43 12.92 18.03 12.92 18.03 12.33 17.02 12.33 17.02 8.55 49.01 8.55 49 10.98 49.8 10.98"/><rect class="cls-3" x="30.07" y="8.1" width="7.74" height=".96"/><rect class="cls-3" x="39.37" y="8.16" width="7.72" height=".68"/><polygon class="cls-3" points="18.5 6.53 26.12 6.53 26.43 6.6 26.68 6.78 26.85 7.02 26.92 7.33 26.92 8.7 26.85 9.02 26.68 9.25 26.43 9.44 26.12 9.5 18.5 9.5 18.19 9.44 17.94 9.25 17.77 9.02 17.7 8.7 17.7 7.33 17.77 7.02 17.94 6.78 18.19 6.6 18.5 6.53"/><polygon class="cls-1" points="18.5 6.53 26.12 6.53 26.43 6.6 26.68 6.78 26.85 7.02 26.92 7.33 26.92 8.7 26.85 9.02 26.68 9.25 26.43 9.44 26.12 9.5 18.5 9.5 18.19 9.44 17.94 9.25 17.77 9.02 17.7 8.7 17.7 7.33 17.77 7.02 17.94 6.78 18.19 6.6 18.5 6.53"/><path class="cls-2" d="M37.12,9.88c0,1.76-1.43,3.19-3.18,3.19s-3.19-1.42-3.19-3.19,1.43-3.18,3.19-3.18,3.18,1.42,3.18,3.18"/><path class="cls-3" d="M33.94,6.02c2.13,0,3.85,1.73,3.85,3.85h.51c0-2.41-1.95-4.36-4.37-4.36s-4.37,1.95-4.37,4.36h.51c0-2.13,1.73-3.85,3.85-3.85"/><path class="cls-1" d="M33.94,6.02c2.13,0,3.85,1.73,3.85,3.85h.51c0-2.41-1.95-4.36-4.37-4.36s-4.37,1.95-4.37,4.36h.51c0-2.13,1.73-3.85,3.85-3.85Z"/><path class="cls-2" d="M46.38,9.88c0,1.76-1.43,3.19-3.18,3.19s-3.18-1.42-3.18-3.19,1.43-3.18,3.18-3.18,3.18,1.42,3.18,3.18"/><path class="cls-3" d="M43.19,6.02c2.13,0,3.85,1.73,3.85,3.85h.51c0-2.41-1.95-4.36-4.37-4.36s-4.37,1.95-4.37,4.36h.51c0-2.13,1.73-3.85,3.85-3.85"/><path class="cls-1" d="M43.19,6.02c2.13,0,3.85,1.73,3.85,3.85h.51c0-2.41-1.95-4.36-4.37-4.36s-4.37,1.95-4.37,4.36h.51c0-2.13,1.73-3.85,3.85-3.85Z"/></svg>