<?xml version="1.0" encoding="UTF-8"?><svg id="Capa_1" xmlns="http://www.w3.org/2000/svg" width="51.71" height="23.36" viewBox="0 0 51.71 23.36"><defs><style>.cls-1{fill:none;stroke:#1d1d1b;stroke-width:.3px;}.cls-2{fill:#e30613;}.cls-2,.cls-3{stroke-width:0px;}.cls-3{fill:#fff;}</style></defs><polygon class="cls-3" points="2.52 .56 2.52 3.98 .88 3.98 .88 13.64 2.52 13.64 2.52 17.06 50.83 17.06 50.83 .56 2.52 .56"/><polygon class="cls-1" points="2.52 .56 2.52 3.98 .88 3.98 .88 13.64 2.52 13.64 2.52 17.06 50.83 17.06 50.83 .56 2.52 .56"/><polygon class="cls-3" points="50.83 21.23 50.81 15.51 45.94 15.49 45.47 14.34 37.9 14.34 37.28 15.6 19.61 15.6 7.09 15.61 7.09 17.04 15.14 17.04 15.17 18.87 18.36 18.87 18.36 22.55 17.38 22.55 17.38 23.12 19.91 23.12 19.91 22.55 18.93 22.55 18.93 18.87 50.06 18.87 50.06 21.23 50.83 21.23"/><polygon class="cls-1" points="50.83 21.23 50.81 15.51 45.94 15.49 45.47 14.34 37.9 14.34 37.28 15.6 19.61 15.6 7.09 15.61 7.09 17.04 15.14 17.04 15.17 18.87 18.36 18.87 18.36 22.55 17.38 22.55 17.38 23.12 19.91 23.12 19.91 22.55 18.93 22.55 18.93 18.87 50.06 18.87 50.06 21.23 50.83 21.23"/><rect class="cls-3" x="31.63" y="18.43" width="7.54" height=".94"/><rect class="cls-3" x="40.69" y="18.49" width="7.51" height=".66"/><polygon class="cls-3" points="20.37 16.91 27.78 16.91 28.09 16.98 28.33 17.15 28.5 17.38 28.57 17.69 28.57 19.01 28.5 19.33 28.33 19.55 28.09 19.73 27.78 19.8 20.37 19.8 20.07 19.73 19.82 19.55 19.66 19.33 19.59 19.01 19.59 17.69 19.66 17.38 19.82 17.15 20.07 16.98 20.37 16.91"/><polygon class="cls-1" points="20.37 16.91 27.78 16.91 28.09 16.98 28.33 17.15 28.5 17.38 28.57 17.69 28.57 19.01 28.5 19.33 28.33 19.55 28.09 19.73 27.78 19.8 20.37 19.8 20.07 19.73 19.82 19.55 19.66 19.33 19.59 19.01 19.59 17.69 19.66 17.38 19.82 17.15 20.07 16.98 20.37 16.91"/><path class="cls-2" d="M38.49,20.16c0,1.71-1.39,3.1-3.1,3.1s-3.1-1.39-3.1-3.1,1.39-3.1,3.1-3.1,3.1,1.39,3.1,3.1"/><path class="cls-3" d="M35.39,16.42c2.07,0,3.75,1.68,3.75,3.75h.5c0-2.35-1.9-4.25-4.25-4.25s-4.25,1.9-4.25,4.25h.5c0-2.07,1.68-3.75,3.75-3.75"/><path class="cls-1" d="M35.39,16.42c2.07,0,3.75,1.68,3.75,3.75h.5c0-2.35-1.9-4.25-4.25-4.25s-4.25,1.9-4.25,4.25h.5c0-2.07,1.68-3.75,3.75-3.75Z"/><path class="cls-2" d="M47.5,20.16c0,1.71-1.39,3.1-3.1,3.1s-3.1-1.39-3.1-3.1,1.39-3.1,3.1-3.1,3.1,1.39,3.1,3.1"/><path class="cls-3" d="M44.4,16.42c2.07,0,3.75,1.68,3.75,3.75h.5c0-2.35-1.9-4.25-4.25-4.25s-4.25,1.9-4.25,4.25h.5c0-2.07,1.68-3.75,3.75-3.75"/><path class="cls-1" d="M44.4,16.42c2.07,0,3.75,1.68,3.75,3.75h.5c0-2.35-1.9-4.25-4.25-4.25s-4.25,1.9-4.25,4.25h.5c0-2.07,1.68-3.75,3.75-3.75Z"/></svg>