<?xml version="1.0" encoding="UTF-8"?><svg id="Capa_1" xmlns="http://www.w3.org/2000/svg" width="75.62" height="24.22" viewBox="0 0 75.62 24.22"><defs><style>.cls-1{fill:#e30613;}.cls-1,.cls-2,.cls-3{stroke-width:0px;}.cls-2{fill:#706f6f;}.cls-3{fill:#fff;}.cls-4{fill:none;stroke:#1d1d1b;stroke-width:.3px;}</style></defs><polygon class="cls-3" points="14.59 8.14 9.49 7.71 6.62 14.65 15.52 15.1 14.59 8.14"/><polygon class="cls-4" points="14.59 8.14 9.49 7.71 6.62 14.65 15.52 15.1 14.59 8.14"/><path class="cls-3" d="M13.36,4.34s-2.6.57-3.44,1.39c0,0-3.34,5.27-4.03,7.98l-.02,4.23-1.06.98v.45s.45.23.45.23v.9s.07.53,1.05.61l9.47.64.62-.47s.26-3.81,3.85-3.81c2.7,0,3.33,2.29,3.33,3.94,0,.67.53.76.53.76l30.28-.11.95-.61s.13-4.05,3.63-4.05c3.15,0,3.87,2.59,3.53,4.14h.2s7.56-.89,7.56-.89l.56-6.88-.68-8s.22-1.28-2.11-1.36l-54.66-.07Z"/><path class="cls-4" d="M13.36,4.34s-2.6.57-3.44,1.39c0,0-3.34,5.27-4.03,7.98l-.02,4.23-1.06.98v.45s.45.23.45.23v.9s.07.53,1.05.61l9.47.64.62-.47s.26-3.81,3.85-3.81c2.7,0,3.33,2.29,3.33,3.94,0,.67.53.76.53.76l30.28-.11.95-.61s.13-4.05,3.63-4.05c3.15,0,3.87,2.59,3.53,4.14h.2s7.56-.89,7.56-.89l.56-6.88-.68-8s.22-1.28-2.11-1.36l-54.66-.07Z"/><path class="cls-3" d="M5.89,13.77h2.94v7.52l-2.66-.19s-1.09-.04-.92-.99l.02-.52-.45-.22v-.44l1.05-.99.02-4.17Z"/><path class="cls-4" d="M5.89,13.77h2.94v7.52l-2.66-.19s-1.09-.04-.92-.99l.02-.52-.45-.22v-.44l1.05-.99.02-4.17Z"/><rect class="cls-3" x="14.96" y="6.38" width="53.72" height="6.04"/><rect class="cls-4" x="14.96" y="6.38" width="53.72" height="6.04"/><rect class="cls-3" x="15.55" y="6.83" width="8.25" height="5.13"/><rect class="cls-4" x="15.55" y="6.83" width="8.25" height="5.13"/><rect class="cls-3" x="24.4" y="6.83" width="8.25" height="5.13"/><rect class="cls-4" x="24.4" y="6.83" width="8.25" height="5.13"/><rect class="cls-3" x="33.25" y="6.83" width="8.25" height="5.13"/><rect class="cls-4" x="33.25" y="6.83" width="8.25" height="5.13"/><rect class="cls-3" x="42.11" y="6.83" width="8.25" height="5.13"/><rect class="cls-4" x="42.11" y="6.83" width="8.25" height="5.13"/><rect class="cls-3" x="50.96" y="6.83" width="8.25" height="5.13"/><rect class="cls-4" x="50.96" y="6.83" width="8.25" height="5.13"/><rect class="cls-3" x="59.69" y="6.83" width="8.25" height="5.13"/><rect class="cls-4" x="59.69" y="6.83" width="8.25" height="5.13"/><polyline class="cls-3" points="10.42 5.33 10.65 5.63 6.9 13.77"/><polyline class="cls-4" points="10.42 5.33 10.65 5.63 6.9 13.77"/><line class="cls-4" x1="37.31" y1="3.13" x2="37.31" y2="4.38"/><path class="cls-3" d="M10.76,6.38l-2.59,5.75v1.97h5.57s.99,0,1.19-.86v-6.86h-4.17ZM14.59,12.92s-.15.58-.85.58h-4.98v-1.37s2.36-5.35,2.36-5.35h3.48v6.14Z"/><path class="cls-4" d="M10.76,6.38l-2.59,5.75v1.97h5.57s.99,0,1.19-.86v-6.86h-4.17ZM14.59,12.92s-.15.58-.85.58h-4.98v-1.37s2.36-5.35,2.36-5.35h3.48v6.14Z"/><path class="cls-3" d="M16.58,4.44s.53-.83,1.28-.83h2.41s.38.21.83.89l-4.53-.06Z"/><path class="cls-4" d="M16.58,4.44s.53-.83,1.28-.83h2.41s.38.21.83.89l-4.53-.06Z"/><path class="cls-3" d="M26.84,4.44l2.14-1.08s.6-.38,2.87-.3h11.32s.53.08,1.21,1.36l-17.53.02Z"/><path class="cls-4" d="M26.84,4.44l2.14-1.08s.6-.38,2.87-.3h11.32s.53.08,1.21,1.36l-17.53.02Z"/><path class="cls-3" d="M49.5,4.38s.23-.65,1.21-.65h2.19s.45.05.75.65h-4.15Z"/><path class="cls-4" d="M49.5,4.38s.23-.65,1.21-.65h2.19s.45.05.75.65h-4.15Z"/><path class="cls-3" d="M60.82,4.34s.38-.6.98-.6h2.04l.45.68-3.47-.07Z"/><path class="cls-4" d="M60.82,4.34s.38-.6.98-.6h2.04l.45.68-3.47-.07Z"/><path class="cls-3" d="M70.13,5.63H10.64l-.23-.3s.61-1.22,4.7-1.08l52.9.03s2.11,0,2.11,1.36"/><path class="cls-4" d="M70.13,5.63H10.64l-.23-.3s.61-1.22,4.7-1.08l52.9.03s2.11,0,2.11,1.36Z"/><path class="cls-1" d="M23.01,21.11c0,1.63-1.32,2.96-2.96,2.96s-2.96-1.33-2.96-2.96,1.32-2.96,2.96-2.96,2.96,1.32,2.96,2.96"/><path class="cls-2" d="M62.06,21.11c0,1.63-1.32,2.96-2.96,2.96s-2.96-1.33-2.96-2.96,1.32-2.96,2.96-2.96,2.96,1.32,2.96,2.96"/><polygon class="cls-3" points="7.07 16.58 5.81 16.58 5.66 16.58 5.59 16.71 5.59 18.13 5.77 18.26 7.07 18.26 7.07 16.58"/><polygon class="cls-4" points="7.07 16.58 5.81 16.58 5.66 16.58 5.59 16.71 5.59 18.13 5.77 18.26 7.07 18.26 7.07 16.58"/></svg>