<?xml version="1.0" encoding="UTF-8"?><svg id="Capa_1" xmlns="http://www.w3.org/2000/svg" width="45.31" height="20.16" viewBox="0 0 45.31 20.16"><defs><style>.cls-1{fill:none;stroke:#1d1d1b;stroke-width:.3px;}.cls-2{fill:#e30613;}.cls-2,.cls-3{stroke-width:0px;}.cls-3{fill:#fff;}</style></defs><polygon class="cls-3" points="44.52 15.88 44.94 15.87 44.94 11.95 6.15 11.97 6.18 16.36 23.03 16.36 23.03 15.45 31.7 15.45 32.3 16 40.9 16.01 40.93 14.89 43.62 14.89 44.52 15.88"/><polygon class="cls-1" points="44.52 15.88 44.94 15.87 44.94 11.95 6.15 11.97 6.18 16.36 23.03 16.36 23.03 15.45 31.7 15.45 32.3 16 40.9 16.01 40.93 14.89 43.62 14.89 44.52 15.88"/><path class="cls-3" d="M36.11,16.46s-.43-2.82-3.3-2.82-3.58,2.64-3.58,2.64l6.88.18Z"/><path class="cls-3" d="M15,16.7s-.43-2.82-3.3-2.82-3.58,2.64-3.58,2.64l6.88.18Z"/><polygon class="cls-3" points=".45 12.26 .56 12.14 2.12 12.14 2.12 13.78 .56 13.78 .45 13.7 .45 12.26"/><polygon class="cls-1" points=".45 12.26 .56 12.14 2.12 12.14 2.12 13.78 .56 13.78 .45 13.7 .45 12.26"/><path class="cls-3" d="M.77,9.92l1.35.32v4.66l6.2.18,1.65-2,6.1-.19V2.45c0-.39-.1-.65-.52-.65s-6.42-.01-6.42-.01h-.46s-.38.05-.38.05l-.44.11-.33.08-.36.11-.26.14-.21.11-.2.2.04.03-.07.09L.81,8.32l-.04,1.6Z"/><path class="cls-1" d="M.77,9.92l1.35.32v4.66l6.2.18,1.65-2,6.1-.19V2.45c0-.39-.1-.65-.52-.65s-6.42-.01-6.42-.01h-.46s-.38.05-.38.05l-.44.11-.33.08-.36.11-.26.14-.21.11-.2.2.04.03-.07.09L.81,8.32l-.04,1.6Z"/><polygon class="cls-3" points="2.08 12.12 .56 12.12 .45 11.85 .45 9.42 .56 9.12 2.08 9.12 2.08 12.12"/><polygon class="cls-1" points="2.08 12.12 .56 12.12 .45 11.85 .45 9.42 .56 9.12 2.08 9.12 2.08 12.12"/><polygon class="cls-3" points=".72 8.38 2.12 8.38 1.96 9.11 .56 9.12 .72 8.38"/><polygon class="cls-1" points=".72 8.38 2.12 8.38 1.96 9.11 .56 9.12 .72 8.38"/><path class="cls-3" d="M.93,14.41h1.19s0,1.99,0,1.99l.84.34h4.2l.32-.34.84-.07s.62-2.61,3.5-2.61,3.34,2.65,3.34,2.65h.89v-4.47s-1.22,0-1.22,0h-7.33v2.23H.93v.29Z"/><path class="cls-1" d="M.93,14.41h1.19s0,1.99,0,1.99l.84.34h4.2l.32-.34.84-.07s.62-2.61,3.5-2.61,3.34,2.65,3.34,2.65h.89v-4.47s-1.22,0-1.22,0h-7.33v2.23H.93v.29Z"/><path class="cls-3" d="M14.62,12.24h-3.15c-2.1,0-3.2,1.88-3.2,1.88H2.08v-5L7.55,3.65s.58-.54.98-.54h6.11l-.02,9.12Z"/><path class="cls-1" d="M14.62,12.24h-3.15c-2.1,0-3.2,1.88-3.2,1.88H2.08v-5L7.55,3.65s.58-.54.98-.54h6.11l-.02,9.12Z"/><polygon class="cls-3" points=".31 14.26 .67 14.04 2.07 14.04 2.07 15.78 .88 15.78 .31 15.16 .31 14.26"/><polygon class="cls-1" points=".31 14.26 .67 14.04 2.07 14.04 2.07 15.78 .88 15.78 .31 15.16 .31 14.26"/><path class="cls-3" d="M5.18,7.95l-.12-.04-.1-.08-.1-.08-.04-.12-.04-.1v-.13l3.42-3.44s.29-.32.51-.32h5.27s.09.04.09.04l.08.1v.22s-.01,3.56-.01,3.56v.12s0,.08,0,.08l-.07.07-.1.09-.16.02H5.39s-.2,0-.2,0Z"/><path class="cls-1" d="M5.18,7.95l-.12-.04-.1-.08-.1-.08-.04-.12-.04-.1v-.13l3.42-3.44s.29-.32.51-.32h5.27s.09.04.09.04l.08.1v.22s-.01,3.56-.01,3.56v.12s0,.08,0,.08l-.07.07-.1.09-.16.02H5.39s-.2,0-.2,0Z"/><line class="cls-1" x1="9.26" y1="3.64" x2="9.26" y2="7.89"/><polygon class="cls-3" points=".8 8.38 2.13 8.38 7.11 3.2 7.11 3.06 7.11 2.96 7.07 2.84 7 2.76 6.92 2.71 6.8 2.64 6.68 2.63 6.56 2.63 6.48 2.63 .8 8.38"/><polygon class="cls-1" points=".8 8.38 2.13 8.38 7.11 3.2 7.11 3.06 7.11 2.96 7.07 2.84 7 2.76 6.92 2.71 6.8 2.64 6.68 2.63 6.56 2.63 6.48 2.63 .8 8.38"/><rect class="cls-3" x="16.48" y=".22" width=".5" height="12.24"/><rect class="cls-1" x="16.48" y=".22" width=".5" height="12.24"/><polygon class="cls-3" points="44.71 15 43.54 13.6 18.98 13.6 18.98 14.57 16.48 14.57 16.48 8.85 45 8.85 45 15 44.71 15"/><polygon class="cls-1" points="44.71 15 43.54 13.6 18.98 13.6 18.98 14.57 16.48 14.57 16.48 8.85 45 8.85 45 15 44.71 15"/><polygon class="cls-3" points="17.39 12.6 17.39 12.6 32.17 12.6 32.17 9.58 17.39 9.58 17.39 12.6"/><polygon class="cls-1" points="17.39 12.6 17.39 12.6 32.17 12.6 32.17 9.58 17.39 9.58 17.39 12.6"/><rect class="cls-3" x="33.63" y="9.58" width="9.91" height="3.02"/><rect class="cls-1" x="33.63" y="9.58" width="9.91" height="3.02"/><path class="cls-3" d="M14.43,17.23c0,1.52-1.23,2.76-2.76,2.76s-2.76-1.23-2.76-2.76,1.23-2.76,2.76-2.76,2.76,1.23,2.76,2.76"/><path class="cls-1" d="M14.43,17.23c0,1.52-1.23,2.76-2.76,2.76s-2.76-1.23-2.76-2.76,1.23-2.76,2.76-2.76,2.76,1.23,2.76,2.76Z"/><path class="cls-3" d="M11.67,13.89c1.84,0,3.34,1.49,3.34,3.34h.44c0-2.09-1.69-3.78-3.78-3.78s-3.78,1.69-3.78,3.78h.44c0-1.84,1.49-3.34,3.34-3.34"/><path class="cls-1" d="M11.67,13.89c1.84,0,3.34,1.49,3.34,3.34h.44c0-2.09-1.69-3.78-3.78-3.78s-3.78,1.69-3.78,3.78h.44c0-1.84,1.49-3.34,3.34-3.34Z"/><path class="cls-2" d="M35.44,17.23c0,1.52-1.23,2.76-2.76,2.76s-2.76-1.23-2.76-2.76,1.23-2.76,2.76-2.76,2.76,1.23,2.76,2.76"/><path class="cls-3" d="M32.69,13.89c1.84,0,3.34,1.49,3.34,3.34h.44c0-2.09-1.69-3.78-3.78-3.78s-3.78,1.69-3.78,3.78h.44c0-1.84,1.49-3.34,3.34-3.34"/><path class="cls-1" d="M32.69,13.89c1.84,0,3.34,1.49,3.34,3.34h.44c0-2.09-1.69-3.78-3.78-3.78s-3.78,1.69-3.78,3.78h.44c0-1.84,1.49-3.34,3.34-3.34Z"/></svg>