<?xml version="1.0" encoding="UTF-8"?><svg id="Capa_1" xmlns="http://www.w3.org/2000/svg" width="41.61" height="24.22" viewBox="0 0 41.61 24.22"><defs><style>.cls-1{stroke-linejoin:bevel;}.cls-1,.cls-2{fill:none;stroke:#1d1d1b;stroke-width:.3px;}.cls-3{fill:#e30613;}.cls-3,.cls-4{stroke-width:0px;}.cls-4{fill:#fff;}</style></defs><path class="cls-4" d="M15.41,9.67c-.55.51-.76,1.37-.5,2.16.25.79,2.89,8.91,2.89,8.91l6.08.83,6.7-1.47,6.29-2.74s3.75-3.58,3.99-3.81c.23-.23.43-.47.24-1.07-.67-2.06-2.72-8.4-2.85-8.8-.15-.47-.55-.78-1.04-.86-.49-.08-5.29-.72-5.29-.72l-6.7,1.47-6.29,2.74-3.52,3.36"/><path class="cls-1" d="M15.41,9.67c-.55.51-.76,1.37-.5,2.16.25.79,2.89,8.91,2.89,8.91l6.08.83,6.7-1.47,6.29-2.74s3.75-3.58,3.99-3.81c.23-.23.43-.47.24-1.07-.67-2.06-2.72-8.4-2.85-8.8-.15-.47-.55-.78-1.04-.86-.49-.08-5.29-.72-5.29-.72l-6.7,1.47-6.29,2.74-3.52,3.36"/><polygon class="cls-4" points="36.9 17.3 36.3 17.55 31.35 2.23 31.97 2.11 36.9 17.3"/><polygon class="cls-1" points="36.9 17.3 36.3 17.55 31.35 2.23 31.97 2.11 36.9 17.3"/><polygon class="cls-4" points="24.03 20.83 23.44 21.02 18.75 6.47 19.28 6.18 24.03 20.83"/><polygon class="cls-1" points="24.03 20.83 23.44 21.02 18.75 6.47 19.28 6.18 24.03 20.83"/><rect class="cls-4" x="17.86" y="19.5" width="14.14" height="2.16"/><rect class="cls-1" x="17.86" y="19.5" width="14.14" height="2.16"/><rect class="cls-4" x="2.71" y="19.66" width="15.15" height="1"/><rect class="cls-1" x="2.71" y="19.66" width="15.15" height="1"/><polygon class="cls-4" points="13.22 17.51 13.73 18.66 6.4 18.83 6.56 16.5 13.22 17.51"/><polygon class="cls-4" points="5.72 19.66 5.72 18.34 39.16 18.36 39.16 21.24 38.49 21.26 38.48 19.63 5.72 19.66"/><polyline class="cls-1" points="5.72 19.66 5.72 18.34 39.16 18.36 39.16 21.24 38.49 21.26 38.48 19.63 5.72 19.66"/><polygon class="cls-4" points="14.14 21.65 5.71 21.65 6.56 18.32 9.04 16.97 12.69 16.97 14.14 21.65"/><path class="cls-1" d="M.88,14.18l1.35.32v4.66l3.84.18,1.66-1.99,4.34-.19V7.37l-.13-1.31s-4.39,0-6.37,0-2.54.55-2.69.93c-.14.38-1.96,5.59-1.96,5.59l-.04,1.6"/><path class="cls-4" d="M12.54,16.5c-.77,0-.13-.35-.13-.35h-6.21l-3.98,2.23v.28s0,1.99,0,1.99l.84.34h1.84l.32-.34h.86s.58-1.65,1.08-2.28c.51-.64.9-.87,2.03-.87.61,0,2.71-.02,3.22-.02s1.57,4.23,1.57,4.23h.72s-1.39-5.23-2.16-5.23"/><path class="cls-1" d="M12.54,16.5c-.77,0-.13-.35-.13-.35h-6.21l-3.98,2.23v.28s0,1.99,0,1.99l.84.34h1.84l.32-.34h.86s.58-1.65,1.08-2.28c.51-.64.9-.87,2.03-.87.61,0,2.71-.02,3.22-.02s1.57,4.23,1.57,4.23h.72s-1.39-5.23-2.16-5.23Z"/><polygon class="cls-4" points="10.05 7.39 12.06 7.39 12.57 14.02 12.57 16.49 10.05 16.49 10.05 7.39"/><polygon class="cls-1" points="10.05 7.39 12.06 7.39 12.57 14.02 12.57 16.49 10.05 16.49 10.05 7.39"/><path class="cls-4" d="M10.05,16.5V7.39s-5.33,0-5.33,0c-.39,0-.83.26-1,.83-.17.57-1.53,5.17-1.53,5.17v5h3.65s.69-.86,1.13-1.29c.45-.44.95-.6,2.03-.6h1.04Z"/><path class="cls-1" d="M.9,12.64h1.14l1.37-4.83s.07-.58-.4-.58h-.22l-1.88,5.41M5.55,7.99v3.84M4.04,11.94l-.11-.04-.1-.07-.09-.08-.03-.11-.04-.09v-.13l.74-3.15s.13-.29.36-.29h4.34c.14,0,.27.12.27.33v2.94c0,.2-.18.36-.3.36-.13,0-4.86.33-4.86.33h-.18M.8,18.2l-.36.21v.91l.57.61h1.19v-1.74H.8ZM10.05,16.5V7.39s-5.33,0-5.33,0c-.39,0-.83.26-1,.83-.17.57-1.53,5.17-1.53,5.17v5h3.65s.69-.86,1.13-1.29c.45-.44.95-.6,2.03-.6h1.04Z"/><path class="cls-4" d="M6.87,21.05c0,1.67,1.35,3.02,3.02,3.02s3.02-1.35,3.02-3.02-1.35-3.02-3.02-3.02-3.02,1.35-3.02,3.02"/><path class="cls-2" d="M6.87,21.05c0,1.67,1.35,3.02,3.02,3.02s3.02-1.35,3.02-3.02-1.35-3.02-3.02-3.02-3.02,1.35-3.02,3.02Z"/><path class="cls-4" d="M24.99,17.3c3.36,0,3.62,3.1,3.62,3.1l1.64.05s.26-3.12,3.62-3.12,3.65,3.15,3.65,3.15h-16.18s.29-3.18,3.65-3.18"/><polygon class="cls-4" points="28.39 20.76 28.84 20.76 28.76 20.02 28.55 19.34 28.17 18.71 27.72 18.18 27.13 17.72 26.47 17.4 25.76 17.19 24.99 17.12 24.22 17.19 23.51 17.4 22.87 17.72 22.28 18.18 21.82 18.71 21.46 19.34 21.24 20.02 21.16 20.76 21.56 20.76 21.65 20.09 21.82 19.49 22.14 18.93 22.58 18.46 23.07 18.07 23.66 17.77 24.29 17.6 24.99 17.53 25.68 17.6 26.32 17.77 26.9 18.07 27.4 18.46 27.81 18.93 28.12 19.49 28.3 20.09 28.39 20.76"/><polygon class="cls-2" points="28.39 20.76 28.84 20.76 28.76 20.02 28.55 19.34 28.17 18.71 27.72 18.18 27.13 17.72 26.47 17.4 25.76 17.19 24.99 17.12 24.22 17.19 23.51 17.4 22.87 17.72 22.28 18.18 21.82 18.71 21.46 19.34 21.24 20.02 21.16 20.76 21.56 20.76 21.65 20.09 21.82 19.49 22.14 18.93 22.58 18.46 23.07 18.07 23.66 17.77 24.29 17.6 24.99 17.53 25.68 17.6 26.32 17.77 26.9 18.07 27.4 18.46 27.81 18.93 28.12 19.49 28.3 20.09 28.39 20.76"/><polygon class="cls-4" points="37.25 20.76 37.69 20.76 37.62 20.02 37.41 19.34 37.04 18.71 36.58 18.18 36 17.72 35.34 17.4 34.63 17.19 33.88 17.12 33.11 17.19 32.4 17.4 31.77 17.72 31.18 18.18 30.73 18.71 30.36 19.34 30.15 20.02 30.07 20.76 30.47 20.76 30.55 20.09 30.73 19.49 31.04 18.93 31.47 18.46 31.97 18.07 32.55 17.77 33.18 17.6 33.88 17.53 34.56 17.6 35.19 17.77 35.77 18.07 36.26 18.46 36.67 18.93 36.99 19.49 37.16 20.09 37.25 20.76"/><polygon class="cls-2" points="37.25 20.76 37.69 20.76 37.62 20.02 37.41 19.34 37.04 18.71 36.58 18.18 36 17.72 35.34 17.4 34.63 17.19 33.88 17.12 33.11 17.19 32.4 17.4 31.77 17.72 31.18 18.18 30.73 18.71 30.36 19.34 30.15 20.02 30.07 20.76 30.47 20.76 30.55 20.09 30.73 19.49 31.04 18.93 31.47 18.46 31.97 18.07 32.55 17.77 33.18 17.6 33.88 17.53 34.56 17.6 35.19 17.77 35.77 18.07 36.26 18.46 36.67 18.93 36.99 19.49 37.16 20.09 37.25 20.76"/><polygon class="cls-3" points="25 18.12 25.61 18.18 26.19 18.35 26.68 18.65 27.14 19 27.49 19.46 27.79 19.97 27.98 20.55 28.03 21.15 27.98 21.76 27.79 22.34 27.49 22.83 27.14 23.29 26.68 23.64 26.19 23.95 25.61 24.13 25 24.17 24.4 24.13 23.82 23.95 23.31 23.64 22.85 23.29 22.5 22.83 22.2 22.34 22.02 21.76 21.97 21.15 22.02 20.55 22.2 19.97 22.5 19.46 22.85 19 23.31 18.65 23.82 18.35 24.4 18.18 25 18.12"/><polygon class="cls-3" points="33.87 18.1 34.48 18.14 35.06 18.33 35.55 18.63 36.01 18.98 36.36 19.44 36.66 19.94 36.84 20.53 36.89 21.13 36.84 21.73 36.66 22.31 36.36 22.81 36.01 23.27 35.55 23.62 35.06 23.92 34.48 24.1 33.87 24.15 33.27 24.1 32.69 23.92 32.18 23.62 31.72 23.27 31.37 22.81 31.07 22.31 30.9 21.73 30.84 21.13 30.9 20.53 31.07 19.94 31.37 19.44 31.72 18.98 32.18 18.63 32.69 18.33 33.27 18.14 33.87 18.1"/><polygon class="cls-4" points="2.21 13.38 .68 13.38 .58 13.69 .58 18.11 .68 18.19 2.21 18.19 2.21 13.38"/><polygon class="cls-1" points="2.21 13.38 .68 13.38 .58 13.69 .58 18.11 .68 18.19 2.21 18.19 2.21 13.38"/></svg>