<?xml version="1.0" encoding="UTF-8"?><svg id="Capa_1" xmlns="http://www.w3.org/2000/svg" width="75.62" height="24.22" viewBox="0 0 75.62 24.22"><defs><style>.cls-1{fill:#e30613;}.cls-1,.cls-2{stroke-width:0px;}.cls-2{fill:#fff;}.cls-3{fill:none;stroke:#1d1d1b;stroke-width:.3px;}</style></defs><polygon class="cls-2" points="62.5 22.09 62.48 16.21 57.48 16.19 56.99 15.01 49.22 15.01 48.58 16.3 30.42 16.3 15.57 16.32 15.57 12.33 15.47 12.09 15.33 11.84 15.11 11.6 14.88 11.53 13.92 11.53 13.65 11.57 13.39 11.71 13.19 11.95 13.12 12.16 13.12 15.04 13.19 15.31 13.43 15.49 13.74 15.65 14.03 15.69 14.02 17.78 25.83 17.78 25.86 19.67 29.13 19.67 29.13 23.44 28.13 23.44 28.13 24.03 30.73 24.03 30.73 23.44 29.73 23.44 29.73 19.67 61.71 19.67 61.7 22.09 62.5 22.09"/><polygon class="cls-3" points="62.5 22.09 62.48 16.21 57.48 16.19 56.99 15.01 49.22 15.01 48.58 16.3 30.42 16.3 15.57 16.32 15.57 12.33 15.47 12.09 15.33 11.84 15.11 11.6 14.88 11.53 13.92 11.53 13.65 11.57 13.39 11.71 13.19 11.95 13.12 12.16 13.12 15.04 13.19 15.31 13.43 15.49 13.74 15.65 14.03 15.69 14.02 17.78 25.83 17.78 25.86 19.67 29.13 19.67 29.13 23.44 28.13 23.44 28.13 24.03 30.73 24.03 30.73 23.44 29.73 23.44 29.73 19.67 61.71 19.67 61.7 22.09 62.5 22.09"/><rect class="cls-2" x="42.77" y="19.22" width="7.74" height=".96"/><rect class="cls-2" x="52.08" y="19.27" width="7.72" height=".68"/><polygon class="cls-2" points="31.21 17.65 38.82 17.65 39.14 17.72 39.39 17.9 39.56 18.13 39.62 18.45 39.62 19.81 39.56 20.13 39.39 20.37 39.14 20.55 38.82 20.62 31.21 20.62 30.89 20.55 30.64 20.37 30.47 20.13 30.4 19.81 30.4 18.45 30.47 18.13 30.64 17.9 30.89 17.72 31.21 17.65"/><polygon class="cls-3" points="31.21 17.65 38.82 17.65 39.14 17.72 39.39 17.9 39.56 18.13 39.62 18.45 39.62 19.81 39.56 20.13 39.39 20.37 39.14 20.55 38.82 20.62 31.21 20.62 30.89 20.55 30.64 20.37 30.47 20.13 30.4 19.81 30.4 18.45 30.47 18.13 30.64 17.9 30.89 17.72 31.21 17.65"/><path class="cls-1" d="M49.82,20.99c0,1.76-1.43,3.19-3.18,3.19s-3.19-1.42-3.19-3.19,1.43-3.18,3.19-3.18,3.18,1.42,3.18,3.18"/><path class="cls-2" d="M46.64,17.14c2.13,0,3.85,1.73,3.85,3.85h.51c0-2.41-1.95-4.36-4.37-4.36s-4.37,1.95-4.37,4.36h.51c0-2.13,1.73-3.85,3.85-3.85"/><path class="cls-3" d="M46.64,17.14c2.13,0,3.85,1.73,3.85,3.85h.51c0-2.41-1.95-4.36-4.37-4.36s-4.37,1.95-4.37,4.36h.51c0-2.13,1.73-3.85,3.85-3.85Z"/><path class="cls-1" d="M59.08,20.99c0,1.76-1.43,3.19-3.18,3.19s-3.18-1.42-3.18-3.19,1.43-3.18,3.18-3.18,3.18,1.42,3.18,3.18"/><path class="cls-2" d="M55.9,17.14c2.13,0,3.85,1.73,3.85,3.85h.51c0-2.41-1.95-4.36-4.37-4.36s-4.37,1.95-4.37,4.36h.51c0-2.13,1.73-3.85,3.85-3.85"/><path class="cls-3" d="M55.9,17.14c2.13,0,3.85,1.73,3.85,3.85h.51c0-2.41-1.95-4.36-4.37-4.36s-4.37,1.95-4.37,4.36h.51c0-2.13,1.73-3.85,3.85-3.85Z"/></svg>