<?xml version="1.0" encoding="UTF-8"?><svg id="Capa_1" xmlns="http://www.w3.org/2000/svg" width="47.07" height="20.6" viewBox="0 0 47.07 20.6"><defs><style>.cls-1{fill:none;stroke:#1d1d1b;stroke-width:.3px;}.cls-2{fill:#e30613;}.cls-2,.cls-3{stroke-width:0px;}.cls-3{fill:#fff;}</style></defs><polygon class="cls-3" points="45.7 13.54 45.86 12.2 2.25 12.22 2.18 12.22 2.2 17.37 21.07 17.37 21.07 16.37 32.39 16.37 33.05 17.12 44.41 16.97 44.41 18.2 45.2 18.17 45.17 15.47 45.7 14.38 45.7 13.54"/><polygon class="cls-1" points="45.7 13.54 45.86 12.2 2.25 12.22 2.18 12.22 2.2 17.37 21.07 17.37 21.07 16.37 32.39 16.37 33.05 17.12 44.41 16.97 44.41 18.2 45.2 18.17 45.17 15.47 45.7 14.38 45.7 13.54"/><polygon class="cls-3" points=".96 12.61 .96 9.87 2.08 8.49 2.35 4.44 2.41 4.17 2.46 3.91 2.56 3.69 2.68 3.49 2.83 3.34 3.01 3.24 3.23 3.16 3.48 3.13 13.22 2.66 14.08 3.51 14.08 15.21 13.73 17.28 12.52 17.28 12.17 15.11 11.35 13.76 5.91 13.68 4.99 17.02 2.46 16.86 2.16 15.21 1.03 15.21 .96 12.61"/><polygon class="cls-1" points=".96 12.61 .96 9.87 2.08 8.49 2.35 4.44 2.41 4.17 2.46 3.91 2.56 3.69 2.68 3.49 2.83 3.34 3.01 3.24 3.23 3.16 3.48 3.13 13.22 2.66 14.08 3.51 14.08 15.21 13.73 17.28 12.52 17.28 12.17 15.11 11.35 13.76 5.91 13.68 4.99 17.02 2.46 16.86 2.16 15.21 1.03 15.21 .96 12.61"/><path class="cls-3" d="M3.14,4.16v.07s-.38,4.67-.4,5c0,.13-.14.23-.27.33-.16.12-.32.24-.32.44v7.05h3s.89-3.17.89-3.17l2.58-.18V4.17H3.14Z"/><path class="cls-1" d="M3.14,4.16v.07s-.38,4.67-.4,5c0,.13-.14.23-.27.33-.16.12-.32.24-.32.44v7.05h3s.89-3.17.89-3.17l2.58-.18V4.17H3.14Z"/><polygon class="cls-3" points="2.51 15.69 1.85 15.69 .98 15.69 .8 15.66 .6 15.59 .46 15.43 .4 15.26 .4 12.93 .46 12.76 .58 12.61 .75 12.5 .93 12.48 2.08 12.48 2.23 12.53 2.38 12.68 2.46 12.85 2.51 12.98 2.51 15.69"/><polygon class="cls-1" points="2.51 15.69 1.85 15.69 .98 15.69 .8 15.66 .6 15.59 .46 15.43 .4 15.26 .4 12.93 .46 12.76 .58 12.61 .75 12.5 .93 12.48 2.08 12.48 2.23 12.53 2.38 12.68 2.46 12.85 2.51 12.98 2.51 15.69"/><polygon class="cls-3" points="2.56 15.66 2.56 17.26 2.53 17.36 2.48 17.44 2.41 17.49 2.33 17.49 1.18 17.04 1.1 17.02 1.03 16.96 .98 16.89 .96 16.81 .96 15.66 2.56 15.66"/><polygon class="cls-1" points="2.56 15.66 2.56 17.26 2.53 17.36 2.48 17.44 2.41 17.49 2.33 17.49 1.18 17.04 1.1 17.02 1.03 16.96 .98 16.89 .96 16.81 .96 15.66 2.56 15.66"/><polygon class="cls-3" points="2.43 4.21 1.15 9.65 1.96 9.1 2.08 9 2.18 8.87 2.25 8.72 2.3 8.57 2.63 5.27 2.66 4.74 2.61 4.44 2.51 4.29 2.43 4.21"/><polygon class="cls-1" points="2.43 4.21 1.15 9.65 1.96 9.1 2.08 9 2.18 8.87 2.25 8.72 2.3 8.57 2.63 5.27 2.66 4.74 2.61 4.44 2.51 4.29 2.43 4.21"/><polygon class="cls-3" points="10.35 4.74 11.6 4.74 11.8 4.8 11.95 4.9 12.05 5.05 12.1 5.25 12.1 8.15 12.05 8.36 11.95 8.5 11.8 8.6 11.6 8.65 10.35 8.65 10.14 8.6 9.99 8.5 9.9 8.36 9.85 8.15 9.85 5.25 9.9 5.05 9.99 4.9 10.14 4.8 10.35 4.74"/><polygon class="cls-1" points="10.35 4.74 11.6 4.74 11.8 4.8 11.95 4.9 12.05 5.05 12.1 5.25 12.1 8.15 12.05 8.36 11.95 8.5 11.8 8.6 11.6 8.65 10.35 8.65 10.14 8.6 9.99 8.5 9.9 8.36 9.85 8.15 9.85 5.25 9.9 5.05 9.99 4.9 10.14 4.8 10.35 4.74"/><polygon class="cls-3" points="13.9 15.19 19.36 15.19 19.58 15.24 19.76 15.36 19.89 15.54 19.94 15.76 19.94 17.76 19.89 17.99 19.76 18.16 19.58 18.29 19.36 18.34 13.9 18.34 13.67 18.29 13.5 18.16 13.38 17.99 13.33 17.76 13.33 15.76 13.38 15.54 13.5 15.36 13.67 15.24 13.9 15.19"/><polygon class="cls-1" points="13.9 15.19 19.36 15.19 19.58 15.24 19.76 15.36 19.89 15.54 19.94 15.76 19.94 17.76 19.89 17.99 19.76 18.16 19.58 18.29 19.36 18.34 13.9 18.34 13.67 18.29 13.5 18.16 13.38 17.99 13.33 17.76 13.33 15.76 13.38 15.54 13.5 15.36 13.67 15.24 13.9 15.19"/><path class="cls-3" d="M12.54,17.81s.04-4.01-1.42-4.01-5.07.07-5.07.07l-1.34,4.16,7.84-.22Z"/><rect class="cls-3" x="14.78" y=".33" width="30.66" height="13.93"/><rect class="cls-1" x="14.78" y=".33" width="30.66" height="13.93"/><rect class="cls-3" x="14.78" y=".33" width="30.66" height=".92"/><rect class="cls-1" x="14.78" y=".33" width="30.66" height=".92"/><path class="cls-3" d="M42.45,17.43s-.46-3.56-3.55-3.56-3.86,3.33-3.86,3.33l7.41.22Z"/><polygon class="cls-3" points="46.67 .33 45.42 .33 45.42 14.25 45.42 14.25 45.9 16.48 46.65 16.48 46.65 14.25 46.67 14.25 46.67 .33"/><polygon class="cls-1" points="46.67 .33 45.42 .33 45.42 14.25 45.42 14.25 45.9 16.48 46.65 16.48 46.65 14.25 46.67 14.25 46.67 .33"/><polygon class="cls-3" points="7.66 8.65 3.49 9.15 3.39 9.1 3.29 9.03 3.24 8.88 3.22 8.75 3.57 5.6 3.6 5.47 3.65 5.35 3.75 5.2 3.84 5.05 3.94 4.9 4.07 4.8 4.2 4.72 4.32 4.7 7.76 4.7 7.86 4.72 7.93 4.82 8.01 4.92 8.03 5.02 8.03 8.2 8.01 8.36 7.93 8.51 7.81 8.6 7.66 8.65"/><polygon class="cls-1" points="7.66 8.65 3.49 9.15 3.39 9.1 3.29 9.03 3.24 8.88 3.22 8.75 3.57 5.6 3.6 5.47 3.65 5.35 3.75 5.2 3.84 5.05 3.94 4.9 4.07 4.8 4.2 4.72 4.32 4.7 7.76 4.7 7.86 4.72 7.93 4.82 8.01 4.92 8.03 5.02 8.03 8.2 8.01 8.36 7.93 8.51 7.81 8.6 7.66 8.65"/><line class="cls-3" x1="2.13" y1="10.77" x2="8.61" y2="10.27"/><line class="cls-1" x1="2.13" y1="10.77" x2="8.61" y2="10.27"/><line class="cls-1" x1="2.4" y1="4.16" x2="14.05" y2="4.16"/><path class="cls-2" d="M41.73,17.68c0,1.64-1.33,2.97-2.97,2.97s-2.97-1.33-2.97-2.97,1.33-2.97,2.97-2.97,2.97,1.33,2.97,2.97"/><path class="cls-3" d="M38.76,14.09c1.99,0,3.6,1.61,3.6,3.59h.48c0-2.25-1.82-4.07-4.07-4.07s-4.07,1.82-4.07,4.07h.48c0-1.99,1.61-3.59,3.6-3.59"/><path class="cls-1" d="M38.76,14.09c1.99,0,3.6,1.61,3.6,3.59h.48c0-2.25-1.82-4.07-4.07-4.07s-4.07,1.82-4.07,4.07h.48c0-1.99,1.61-3.59,3.6-3.59Z"/><path class="cls-3" d="M11.91,17.68c0,1.64-1.33,2.97-2.97,2.97s-2.97-1.33-2.97-2.97,1.33-2.97,2.97-2.97,2.97,1.33,2.97,2.97"/><path class="cls-1" d="M11.91,17.68c0,1.64-1.33,2.97-2.97,2.97s-2.97-1.33-2.97-2.97,1.33-2.97,2.97-2.97,2.97,1.33,2.97,2.97Z"/><path class="cls-3" d="M12.74,17.57h-.41c0-3.47-1.47-3.43-1.47-3.43h-4.2s-.25.05-.25.05l-.2.13-.15.22-.1.33-.68,2.91h-2.13l-.13-.03-.16-.02-.1-.05-.12-.06-.1-.07v-.93l.12.06.15.05.16.02.15.02.15.02h1.43l.48-1.83.05-.25.07-.23.08-.2.12-.2.12-.17.15-.15.2-.16.22-.12h4.79s1.74-.12,1.74,4.08"/><path class="cls-1" d="M12.74,17.57h-.41c0-3.47-1.47-3.43-1.47-3.43h-4.2s-.25.05-.25.05l-.2.13-.15.22-.1.33-.68,2.91h-2.13l-.13-.03-.16-.02-.1-.05-.12-.06-.1-.07v-.93l.12.06.15.05.16.02.15.02.15.02h1.43l.48-1.83.05-.25.07-.23.08-.2.12-.2.12-.17.15-.15.2-.16.22-.12h4.79s1.74-.12,1.74,4.08Z"/></svg>