<?xml version="1.0" encoding="UTF-8"?><svg id="Capa_1" xmlns="http://www.w3.org/2000/svg" width="42.73" height="15.3" viewBox="0 0 42.73 15.3"><defs><style>.cls-1{fill:none;stroke:#1d1d1b;stroke-width:.3px;}.cls-2{fill:#e30613;}.cls-2,.cls-3{stroke-width:0px;}.cls-3{fill:#fff;}</style></defs><polyline class="cls-3" points="3.53 11.52 14.86 11.52 21.73 10.59 27.96 11.36 37.72 11.36"/><polyline class="cls-1" points="3.53 11.52 14.86 11.52 21.73 10.59 27.96 11.36 37.72 11.36"/><path class="cls-3" d="M36.12,11.77s-.42-2.74-3.21-2.74-3.48,2.57-3.48,2.57l6.69.17Z"/><path class="cls-3" d="M11.72,11.77s-.41-2.74-3.21-2.74-3.48,2.57-3.48,2.57l6.69.17Z"/><polygon class="cls-3" points="22.81 8.86 23.11 8.86 23.11 11.51 22.79 11.51 22.79 8.91 22.81 8.86"/><polygon class="cls-1" points="22.81 8.86 23.11 8.86 23.11 11.51 22.79 11.51 22.79 8.91 22.81 8.86"/><path class="cls-3" d="M8.66,9.02c-3.4,0-3.54,3.45-3.54,3.45h-2.71s-.56,0-.56-.37c0-.27.22-.49.22-.49l.04-.18-.48-1.48v-.8s0-2.51,0-2.51c0-.43.54-.63.54-.63l.64-.22.72-.2.79-.19.85-.18.84-.15.82-.12,1.41-.2,3.09-.33.27.08.4.07.37.06h.44s.33-.01.33-.01l.22-.09,3.45-3.72-1-.03s.19-.15.25-.2c.22-.18.85-.28,1.2-.29.36,0,.91-.02.91-.02h1.88s.07,0,.75.02c.68.02,1.17.09,1.22.41.04.31.57,3.75.57,3.75l.12.34.07.28.02.28.02.3v.65s-.02,5.37-.02,5.37l-.02.24-.12.17-.24.04h-10.42s-.47-3.1-3.32-3.1"/><path class="cls-1" d="M8.66,9.02c-3.4,0-3.54,3.45-3.54,3.45h-2.71s-.56,0-.56-.37c0-.27.22-.49.22-.49l.04-.18-.48-1.48v-.8s0-2.51,0-2.51c0-.43.54-.63.54-.63l.64-.22.72-.2.79-.19.85-.18.84-.15.82-.12,1.41-.2,3.09-.33.27.08.4.07.37.06h.44s.33-.01.33-.01l.22-.09,3.45-3.72-1-.03s.19-.15.25-.2c.22-.18.85-.28,1.2-.29.36,0,.91-.02.91-.02h1.88s.07,0,.75.02c.68.02,1.17.09,1.22.41.04.31.57,3.75.57,3.75l.12.34.07.28.02.28.02.3v.65s-.02,5.37-.02,5.37l-.02.24-.12.17-.24.04h-10.42s-.47-3.1-3.32-3.1Z"/><path class="cls-3" d="M36.18,11.46l5.01-.13.3-.14.21-.29.16-2.02.14-.28v-.25l.06-2.39v-.27l-.03-.2-.04-.18-.06-.19-.1-.17-.13-.14-.13-.08-.14-.04-.12-.02h-18.06l-.09.06-.04.12v7.03l.05.16.15.07.11.02h.1s5.81.01,5.81.01c0,0,.52-3.1,3.59-3.1,2.56,0,3.26,2.43,3.26,2.43"/><path class="cls-1" d="M36.18,11.46l5.01-.13.3-.14.21-.29.16-2.02.14-.28v-.25l.06-2.39v-.27l-.03-.2-.04-.18-.06-.19-.1-.17-.13-.14-.13-.08-.14-.04-.12-.02h-18.06l-.09.06-.04.12v7.03l.05.16.15.07.11.02h.1s5.81.01,5.81.01c0,0,.52-3.1,3.59-3.1,2.56,0,3.26,2.43,3.26,2.43Z"/><polygon class="cls-3" points="23.37 5.68 40.97 5.68 40.97 6.21 23.37 6.21 23.33 5.72 23.37 5.68"/><polygon class="cls-1" points="23.37 5.68 40.97 5.68 40.97 6.21 23.37 6.21 23.33 5.72 23.37 5.68"/><polyline class="cls-3" points="2.03 6.65 2.08 6.51 2.17 6.41 2.35 6.3 2.59 6.22 3.05 6.08 3.66 5.94 4.43 5.79 5.32 5.65 6.31 5.51 7.33 5.39 8.51 5.27 9.55 5.17 10.29 5.12 10.99 5.05 11.65 5.01 12.3 4.94 12.68 4.86 12.94 4.79 13.12 4.68 13.31 4.55"/><polyline class="cls-1" points="2.03 6.65 2.08 6.51 2.17 6.41 2.35 6.3 2.59 6.22 3.05 6.08 3.66 5.94 4.43 5.79 5.32 5.65 6.31 5.51 7.33 5.39 8.51 5.27 9.55 5.17 10.29 5.12 10.99 5.05 11.65 5.01 12.3 4.94 12.68 4.86 12.94 4.79 13.12 4.68 13.31 4.55"/><polygon class="cls-3" points="11.31 4.41 15.78 .79 16.76 .81 13.37 4.49 13.26 4.57 13.11 4.62 12.9 4.63 12.66 4.63 12.35 4.63 12.09 4.6 11.79 4.54 11.53 4.49 11.31 4.41"/><polygon class="cls-1" points="11.31 4.41 15.78 .79 16.76 .81 13.37 4.49 13.26 4.57 13.11 4.62 12.9 4.63 12.66 4.63 12.35 4.63 12.09 4.6 11.79 4.54 11.53 4.49 11.31 4.41"/><path class="cls-3" d="M17.03.9c-.1.12-3.5,3.94-3.5,3.94l-.13.1-.19.1-.22.09-.28.07-.11.8-.04.75.02.88.04.77.09.79.19,1.09.41,1.17h8.12l.05-6.27-.12-.4s-.14-3.27-.16-3.56c-.01-.29-.27-.53-.7-.54-.43,0-1.96-.02-1.96-.02,0,0-.94.04-1.12.04-.17,0-.31.06-.41.18"/><path class="cls-1" d="M17.03.9c-.1.12-3.5,3.94-3.5,3.94l-.13.1-.19.1-.22.09-.28.07-.11.8-.04.75.02.88.04.77.09.79.19,1.09.41,1.17h8.12l.05-6.27-.12-.4s-.14-3.27-.16-3.56c-.01-.29-.27-.53-.7-.54-.43,0-1.96-.02-1.96-.02,0,0-.94.04-1.12.04-.17,0-.31.06-.41.18Z"/><path class="cls-3" d="M1.59,9.55s-.13-.02-.6-.02c-.47,0-.58.16-.58.24s.01.49.01.61.22.17.22.17c0,0,.15.37.25.56.1.19.26.36.52.39.26.03,2.27.16,2.27.16l.1-.02.08-.15-.17-1.61-.03-.13-.09-.11-.11-.06h-1.87Z"/><path class="cls-1" d="M1.59,9.55s-.13-.02-.6-.02c-.47,0-.58.16-.58.24s.01.49.01.61.22.17.22.17c0,0,.15.37.25.56.1.19.26.36.52.39.26.03,2.27.16,2.27.16l.1-.02.08-.15-.17-1.61-.03-.13-.09-.11-.11-.06h-1.87Z"/><polygon class="cls-3" points="1.62 6.53 1.46 6.61 1.38 6.76 1.38 8.83 1.41 8.93 1.52 9.09 1.65 9.17 1.79 9.2 1.9 9.21 2.01 9.22 3.16 9.22 3.26 9.22 3.4 9.21 3.49 9.2 3.6 9.18 3.71 9.09 3.76 8.9 3.74 8.72 3.37 7.05 3.32 6.92 3.25 6.78 3.13 6.72 2.96 6.66 1.82 6.66 1.73 6.65 1.62 6.53"/><polygon class="cls-1" points="1.62 6.53 1.46 6.61 1.38 6.76 1.38 8.83 1.41 8.93 1.52 9.09 1.65 9.17 1.79 9.2 1.9 9.21 2.01 9.22 3.16 9.22 3.26 9.22 3.4 9.21 3.49 9.2 3.6 9.18 3.71 9.09 3.76 8.9 3.74 8.72 3.37 7.05 3.32 6.92 3.25 6.78 3.13 6.72 2.96 6.66 1.82 6.66 1.73 6.65 1.62 6.53"/><polygon class="cls-3" points="41.52 5.69 41.44 5.72 41.32 5.79 41.25 8.2 41.29 8.28 41.35 8.37 42.01 8.38 42.02 8.24 42.05 5.91 42.05 5.69 41.94 5.69 41.52 5.69"/><polygon class="cls-1" points="41.52 5.69 41.44 5.72 41.32 5.79 41.25 8.2 41.29 8.28 41.35 8.37 42.01 8.38 42.02 8.24 42.05 5.91 42.05 5.69 41.94 5.69 41.52 5.69"/><path class="cls-3" d="M42.17,9.27c.12,0,.15.19.15.26v.46c0,.15-.19.23-.27.4-.07.17-.18.47-.25.63-.07.16-.22.4-.52.43-.3.02-2.12.19-2.26.2-.14.01-.19-.05-.18-.2.02-.15.14-1.61.16-1.83.02-.22.07-.35.22-.35s2.83.01,2.95.01"/><path class="cls-1" d="M42.17,9.27c.12,0,.15.19.15.26v.46c0,.15-.19.23-.27.4-.07.17-.18.47-.25.63-.07.16-.22.4-.52.43-.3.02-2.12.19-2.26.2-.14.01-.19-.05-.18-.2.02-.15.14-1.61.16-1.83.02-.22.07-.35.22-.35s2.83.01,2.95.01Z"/><path class="cls-3" d="M14.38,4.7l.13-.21,2.66-3.17.13-.16.11-.1.17-.05h2.78c.38,0,.51.38.51.66v3.18l-.09.05h-6.11l-.25-.02-.04-.18Z"/><path class="cls-1" d="M14.38,4.7l.13-.21,2.66-3.17.13-.16.11-.1.17-.05h2.78c.38,0,.51.38.51.66v3.18l-.09.05h-6.11l-.25-.02-.04-.18Z"/><path class="cls-3" d="M11.24,12.47c0,1.48-1.2,2.68-2.68,2.68s-2.68-1.2-2.68-2.68,1.2-2.68,2.68-2.68,2.68,1.2,2.68,2.68"/><path class="cls-1" d="M11.24,12.47c0,1.48-1.2,2.68-2.68,2.68s-2.68-1.2-2.68-2.68,1.2-2.68,2.68-2.68,2.68,1.2,2.68,2.68Z"/><path class="cls-3" d="M8.56,9.23c1.79,0,3.25,1.45,3.25,3.24h.43c0-2.03-1.65-3.68-3.68-3.68s-3.68,1.65-3.68,3.68h.43c0-1.79,1.45-3.24,3.24-3.24"/><path class="cls-1" d="M8.56,9.23c1.79,0,3.25,1.45,3.25,3.24h.43c0-2.03-1.65-3.68-3.68-3.68s-3.68,1.65-3.68,3.68h.43c0-1.79,1.45-3.24,3.24-3.24Z"/><path class="cls-2" d="M35.5,12.47c0,1.48-1.2,2.68-2.68,2.68s-2.68-1.2-2.68-2.68,1.2-2.68,2.68-2.68,2.68,1.2,2.68,2.68"/><path class="cls-3" d="M32.82,9.23c1.79,0,3.24,1.45,3.24,3.24h.43c0-2.03-1.65-3.68-3.68-3.68s-3.68,1.65-3.68,3.68h.43c0-1.79,1.45-3.24,3.25-3.24"/><path class="cls-1" d="M32.82,9.23c1.79,0,3.24,1.45,3.24,3.24h.43c0-2.03-1.65-3.68-3.68-3.68s-3.68,1.65-3.68,3.68h.43c0-1.79,1.45-3.24,3.25-3.24Z"/></svg>