<?xml version="1.0" encoding="UTF-8"?><svg id="Capa_1" xmlns="http://www.w3.org/2000/svg" width="41.8" height="24.22" viewBox="0 0 41.8 24.22"><defs><style>.cls-1{stroke-linejoin:bevel;}.cls-1,.cls-2{fill:none;stroke:#1d1d1b;stroke-width:.3px;}.cls-3{fill:#e30613;}.cls-3,.cls-4,.cls-5{stroke-width:0px;}.cls-4{fill:#706f6f;}.cls-5{fill:#fff;}</style></defs><path class="cls-5" d="M15.5,9.67c-.55.51-.76,1.37-.5,2.16.26.79,2.89,8.91,2.89,8.91l6.08.83,6.7-1.47,6.29-2.74s3.75-3.58,3.99-3.81c.23-.23.43-.47.24-1.07-.67-2.06-2.73-8.4-2.85-8.8-.15-.47-.55-.78-1.04-.86-.49-.08-5.29-.72-5.29-.72l-6.7,1.47-6.29,2.74-3.52,3.36"/><path class="cls-1" d="M15.5,9.67c-.55.51-.76,1.37-.5,2.16.26.79,2.89,8.91,2.89,8.91l6.08.83,6.7-1.47,6.29-2.74s3.75-3.58,3.99-3.81c.23-.23.43-.47.24-1.07-.67-2.06-2.73-8.4-2.85-8.8-.15-.47-.55-.78-1.04-.86-.49-.08-5.29-.72-5.29-.72l-6.7,1.47-6.29,2.74-3.52,3.36"/><polygon class="cls-5" points="36.99 17.3 36.4 17.55 31.44 2.23 32.07 2.11 36.99 17.3"/><polygon class="cls-1" points="36.99 17.3 36.4 17.55 31.44 2.23 32.07 2.11 36.99 17.3"/><polygon class="cls-5" points="24.13 20.83 23.54 21.02 18.85 6.47 19.38 6.18 24.13 20.83"/><polygon class="cls-1" points="24.13 20.83 23.54 21.02 18.85 6.47 19.38 6.18 24.13 20.83"/><rect class="cls-5" x="17.96" y="19.5" width="14.14" height="2.16"/><rect class="cls-1" x="17.96" y="19.5" width="14.14" height="2.16"/><rect class="cls-5" x="2.81" y="19.66" width="15.15" height="1"/><rect class="cls-1" x="2.81" y="19.66" width="15.15" height="1"/><polygon class="cls-5" points="13.31 17.51 13.82 18.66 6.49 18.83 6.66 16.5 13.31 17.51"/><polygon class="cls-5" points="5.82 19.66 5.82 18.34 39.25 18.36 39.25 21.24 38.58 21.26 38.58 19.63 5.82 19.66"/><polyline class="cls-1" points="5.82 19.66 5.82 18.34 39.25 18.36 39.25 21.24 38.58 21.26 38.58 19.63 5.82 19.66"/><polygon class="cls-5" points="14.23 21.65 5.81 21.65 6.66 18.32 9.13 16.97 12.78 16.97 14.23 21.65"/><path class="cls-1" d="M.97,14.18l1.35.32v4.66l3.84.18,1.65-1.99,4.34-.19V7.37l-.13-1.31s-4.39,0-6.37,0-2.54.55-2.68.93c-.14.38-1.96,5.59-1.96,5.59l-.04,1.6"/><path class="cls-5" d="M12.64,16.5c-.77,0-.13-.35-.13-.35h-6.21l-3.98,2.23v.28s0,1.99,0,1.99l.84.34h1.84l.32-.34h.86s.58-1.65,1.08-2.28c.51-.64.9-.87,2.03-.87.61,0,2.71-.02,3.22-.02s1.57,4.23,1.57,4.23h.72s-1.39-5.23-2.16-5.23"/><path class="cls-1" d="M12.64,16.5c-.77,0-.13-.35-.13-.35h-6.21l-3.98,2.23v.28s0,1.99,0,1.99l.84.34h1.84l.32-.34h.86s.58-1.65,1.08-2.28c.51-.64.9-.87,2.03-.87.61,0,2.71-.02,3.22-.02s1.57,4.23,1.57,4.23h.72s-1.39-5.23-2.16-5.23Z"/><polygon class="cls-5" points="10.15 7.39 12.15 7.39 12.66 14.02 12.66 16.49 10.15 16.49 10.15 7.39"/><polygon class="cls-1" points="10.15 7.39 12.15 7.39 12.66 14.02 12.66 16.49 10.15 16.49 10.15 7.39"/><path class="cls-5" d="M10.14,16.5V7.39s-5.33,0-5.33,0c-.39,0-.83.26-1,.83-.17.57-1.54,5.17-1.54,5.17v5h3.65s.69-.86,1.13-1.29c.45-.44.95-.6,2.03-.6h1.04Z"/><path class="cls-1" d="M.99,12.64h1.14l1.37-4.83s.07-.58-.4-.58h-.22l-1.88,5.41M5.64,7.99v3.84M4.14,11.94l-.11-.04-.1-.07-.09-.08-.03-.11-.04-.09v-.13l.74-3.15s.13-.29.36-.29h4.34c.14,0,.27.12.27.33v2.94c0,.2-.18.36-.31.36-.13,0-4.86.33-4.86.33h-.18M.89,18.2l-.36.21v.91l.57.61h1.19v-1.74H.89ZM10.14,16.5V7.39s-5.33,0-5.33,0c-.39,0-.83.26-1,.83-.17.57-1.54,5.17-1.54,5.17v5h3.65s.69-.86,1.13-1.29c.45-.44.95-.6,2.03-.6h1.04Z"/><path class="cls-3" d="M6.97,21.05c0,1.67,1.35,3.02,3.02,3.02s3.02-1.35,3.02-3.02-1.35-3.02-3.02-3.02-3.02,1.35-3.02,3.02"/><path class="cls-5" d="M25.08,17.3c3.36,0,3.62,3.1,3.62,3.1l1.64.05s.26-3.12,3.62-3.12,3.65,3.15,3.65,3.15h-16.18s.29-3.18,3.65-3.18"/><polygon class="cls-5" points="28.48 20.76 28.93 20.76 28.86 20.02 28.64 19.34 28.27 18.71 27.81 18.18 27.23 17.72 26.56 17.4 25.85 17.19 25.09 17.12 24.31 17.19 23.6 17.4 22.96 17.72 22.38 18.18 21.92 18.71 21.55 19.34 21.33 20.02 21.26 20.76 21.65 20.76 21.74 20.09 21.92 19.49 22.24 18.93 22.67 18.46 23.17 18.07 23.75 17.77 24.39 17.6 25.09 17.53 25.77 17.6 26.41 17.77 27 18.07 27.49 18.46 27.9 18.93 28.22 19.49 28.4 20.09 28.48 20.76"/><polygon class="cls-2" points="28.48 20.76 28.93 20.76 28.86 20.02 28.64 19.34 28.27 18.71 27.81 18.18 27.23 17.72 26.56 17.4 25.85 17.19 25.09 17.12 24.31 17.19 23.6 17.4 22.96 17.72 22.38 18.18 21.92 18.71 21.55 19.34 21.33 20.02 21.26 20.76 21.65 20.76 21.74 20.09 21.92 19.49 22.24 18.93 22.67 18.46 23.17 18.07 23.75 17.77 24.39 17.6 25.09 17.53 25.77 17.6 26.41 17.77 27 18.07 27.49 18.46 27.9 18.93 28.22 19.49 28.4 20.09 28.48 20.76"/><polygon class="cls-5" points="37.35 20.76 37.79 20.76 37.71 20.02 37.5 19.34 37.13 18.71 36.68 18.18 36.09 17.72 35.44 17.4 34.73 17.19 33.97 17.12 33.2 17.19 32.5 17.4 31.86 17.72 31.28 18.18 30.82 18.71 30.46 19.34 30.24 20.02 30.17 20.76 30.56 20.76 30.65 20.09 30.82 19.49 31.14 18.93 31.57 18.46 32.06 18.07 32.64 17.77 33.28 17.6 33.97 17.53 34.65 17.6 35.29 17.77 35.87 18.07 36.36 18.46 36.77 18.93 37.08 19.49 37.26 20.09 37.35 20.76"/><polygon class="cls-2" points="37.35 20.76 37.79 20.76 37.71 20.02 37.5 19.34 37.13 18.71 36.68 18.18 36.09 17.72 35.44 17.4 34.73 17.19 33.97 17.12 33.2 17.19 32.5 17.4 31.86 17.72 31.28 18.18 30.82 18.71 30.46 19.34 30.24 20.02 30.17 20.76 30.56 20.76 30.65 20.09 30.82 19.49 31.14 18.93 31.57 18.46 32.06 18.07 32.64 17.77 33.28 17.6 33.97 17.53 34.65 17.6 35.29 17.77 35.87 18.07 36.36 18.46 36.77 18.93 37.08 19.49 37.26 20.09 37.35 20.76"/><polygon class="cls-4" points="25.1 18.12 25.7 18.18 26.28 18.35 26.78 18.65 27.24 19 27.59 19.46 27.89 19.97 28.07 20.55 28.12 21.15 28.07 21.76 27.89 22.34 27.59 22.83 27.24 23.29 26.78 23.64 26.28 23.95 25.7 24.13 25.1 24.17 24.5 24.13 23.92 23.95 23.41 23.64 22.95 23.29 22.6 22.83 22.3 22.34 22.12 21.76 22.07 21.15 22.12 20.55 22.3 19.97 22.6 19.46 22.95 19 23.41 18.65 23.92 18.35 24.5 18.18 25.1 18.12"/><polygon class="cls-4" points="33.97 18.1 34.57 18.14 35.15 18.33 35.65 18.63 36.1 18.98 36.46 19.44 36.76 19.94 36.94 20.53 36.98 21.13 36.94 21.73 36.76 22.31 36.46 22.81 36.1 23.27 35.65 23.62 35.15 23.92 34.57 24.1 33.97 24.15 33.36 24.1 32.78 23.92 32.27 23.62 31.82 23.27 31.47 22.81 31.16 22.31 31 21.73 30.94 21.13 31 20.53 31.16 19.94 31.47 19.44 31.82 18.98 32.27 18.63 32.78 18.33 33.36 18.14 33.97 18.1"/><polygon class="cls-5" points="2.3 13.38 .78 13.38 .67 13.69 .67 18.11 .78 18.19 2.3 18.19 2.3 13.38"/><polygon class="cls-1" points="2.3 13.38 .78 13.38 .67 13.69 .67 18.11 .78 18.19 2.3 18.19 2.3 13.38"/></svg>