<?xml version="1.0" encoding="UTF-8"?><svg id="Capa_1" xmlns="http://www.w3.org/2000/svg" width="45.34" height="20.13" viewBox="0 0 45.34 20.13"><defs><style>.cls-1{fill:none;stroke:#1d1d1b;stroke-width:.3px;}.cls-2{fill:#e30613;}.cls-2,.cls-3,.cls-4{stroke-width:0px;}.cls-3{fill:#706f6f;}.cls-4{fill:#fff;}</style></defs><polygon class="cls-4" points="44.54 15.85 44.96 15.84 44.95 11.92 6.17 11.94 6.19 16.32 23.04 16.32 23.04 15.41 31.72 15.41 32.31 15.96 40.92 15.97 40.95 14.85 43.63 14.85 44.54 15.85"/><polygon class="cls-1" points="44.54 15.85 44.96 15.84 44.95 11.92 6.17 11.94 6.19 16.32 23.04 16.32 23.04 15.41 31.72 15.41 32.31 15.96 40.92 15.97 40.95 14.85 43.63 14.85 44.54 15.85"/><path class="cls-4" d="M36.12,16.42s-.43-2.82-3.3-2.82-3.58,2.64-3.58,2.64l6.88.18Z"/><path class="cls-4" d="M15.02,16.67s-.43-2.82-3.3-2.82-3.58,2.64-3.58,2.64l6.88.18Z"/><polygon class="cls-4" points=".46 12.23 .57 12.11 2.13 12.11 2.13 13.75 .57 13.75 .46 13.67 .46 12.23"/><polygon class="cls-1" points=".46 12.23 .57 12.11 2.13 12.11 2.13 13.75 .57 13.75 .46 13.67 .46 12.23"/><path class="cls-4" d="M.79,9.89l1.35.32v4.66l6.2.18,1.65-2,6.1-.19V2.42c0-.39-.1-.65-.52-.65s-6.42-.01-6.42-.01h-.46s-.38.05-.38.05l-.44.11-.33.08-.36.11-.26.14-.21.11-.2.2.04.03-.07.09L.83,8.29l-.04,1.6Z"/><path class="cls-1" d="M.79,9.89l1.35.32v4.66l6.2.18,1.65-2,6.1-.19V2.42c0-.39-.1-.65-.52-.65s-6.42-.01-6.42-.01h-.46s-.38.05-.38.05l-.44.11-.33.08-.36.11-.26.14-.21.11-.2.2.04.03-.07.09L.83,8.29l-.04,1.6Z"/><polygon class="cls-4" points="2.09 12.08 .57 12.08 .46 11.82 .46 9.39 .57 9.09 2.09 9.09 2.09 12.08"/><polygon class="cls-1" points="2.09 12.08 .57 12.08 .46 11.82 .46 9.39 .57 9.09 2.09 9.09 2.09 12.08"/><polygon class="cls-4" points=".74 8.35 2.13 8.35 1.97 9.07 .57 9.09 .74 8.35"/><polygon class="cls-1" points=".74 8.35 2.13 8.35 1.97 9.07 .57 9.09 .74 8.35"/><path class="cls-4" d="M.95,14.38h1.19s0,1.99,0,1.99l.84.34h4.2l.32-.34.84-.07s.62-2.61,3.5-2.61,3.34,2.65,3.34,2.65h.89v-4.47s-1.22,0-1.22,0h-7.32v2.23H.95v.29Z"/><path class="cls-1" d="M.95,14.38h1.19s0,1.99,0,1.99l.84.34h4.2l.32-.34.84-.07s.62-2.61,3.5-2.61,3.34,2.65,3.34,2.65h.89v-4.47s-1.22,0-1.22,0h-7.32v2.23H.95v.29Z"/><path class="cls-4" d="M14.64,12.21h-3.15c-2.1,0-3.2,1.88-3.2,1.88H2.09v-5L7.57,3.62s.58-.54.98-.54h6.11l-.02,9.12Z"/><path class="cls-1" d="M14.64,12.21h-3.15c-2.1,0-3.2,1.88-3.2,1.88H2.09v-5L7.57,3.62s.58-.54.98-.54h6.11l-.02,9.12Z"/><polygon class="cls-4" points=".32 14.22 .69 14.01 2.08 14.01 2.08 15.74 .9 15.74 .32 15.13 .32 14.22"/><polygon class="cls-1" points=".32 14.22 .69 14.01 2.08 14.01 2.08 15.74 .9 15.74 .32 15.13 .32 14.22"/><path class="cls-4" d="M5.2,7.91l-.12-.04-.1-.08-.1-.08-.03-.12-.04-.1v-.13l3.42-3.44s.29-.32.51-.32h5.27s.09.04.09.04l.08.1v.22s-.01,3.56-.01,3.56v.12s0,.08,0,.08l-.07.07-.1.09-.16.02H5.4s-.2,0-.2,0Z"/><path class="cls-1" d="M5.2,7.91l-.12-.04-.1-.08-.1-.08-.03-.12-.04-.1v-.13l3.42-3.44s.29-.32.51-.32h5.27s.09.04.09.04l.08.1v.22s-.01,3.56-.01,3.56v.12s0,.08,0,.08l-.07.07-.1.09-.16.02H5.4s-.2,0-.2,0Z"/><line class="cls-1" x1="9.27" y1="3.61" x2="9.27" y2="7.86"/><polygon class="cls-4" points=".81 8.35 2.15 8.35 7.13 3.16 7.13 3.03 7.13 2.93 7.09 2.81 7.02 2.73 6.94 2.68 6.82 2.61 6.7 2.59 6.58 2.59 6.5 2.59 .81 8.35"/><polygon class="cls-1" points=".81 8.35 2.15 8.35 7.13 3.16 7.13 3.03 7.13 2.93 7.09 2.81 7.02 2.73 6.94 2.68 6.82 2.61 6.7 2.59 6.58 2.59 6.5 2.59 .81 8.35"/><rect class="cls-4" x="16.5" y=".19" width=".5" height="12.24"/><rect class="cls-1" x="16.5" y=".19" width=".5" height="12.24"/><polygon class="cls-4" points="44.73 14.97 43.55 13.56 19 13.56 19 14.54 16.5 14.54 16.5 8.81 45.02 8.81 45.02 14.97 44.73 14.97"/><polygon class="cls-1" points="44.73 14.97 43.55 13.56 19 13.56 19 14.54 16.5 14.54 16.5 8.81 45.02 8.81 45.02 14.97 44.73 14.97"/><polygon class="cls-4" points="17.41 12.57 17.41 12.57 32.19 12.57 32.19 9.55 17.41 9.55 17.41 12.57"/><polygon class="cls-1" points="17.41 12.57 17.41 12.57 32.19 12.57 32.19 9.55 17.41 9.55 17.41 12.57"/><rect class="cls-4" x="33.65" y="9.55" width="9.91" height="3.02"/><rect class="cls-1" x="33.65" y="9.55" width="9.91" height="3.02"/><path class="cls-2" d="M14.44,17.19c0,1.52-1.23,2.76-2.76,2.76s-2.76-1.23-2.76-2.76,1.23-2.76,2.76-2.76,2.76,1.23,2.76,2.76"/><path class="cls-4" d="M11.68,13.86c1.84,0,3.34,1.49,3.34,3.34h.44c0-2.09-1.69-3.78-3.78-3.78s-3.78,1.69-3.78,3.78h.44c0-1.84,1.49-3.34,3.34-3.34"/><path class="cls-1" d="M11.68,13.86c1.84,0,3.34,1.49,3.34,3.34h.44c0-2.09-1.69-3.78-3.78-3.78s-3.78,1.69-3.78,3.78h.44c0-1.84,1.49-3.34,3.34-3.34Z"/><path class="cls-3" d="M35.46,17.19c0,1.52-1.23,2.76-2.76,2.76s-2.76-1.23-2.76-2.76,1.23-2.76,2.76-2.76,2.76,1.23,2.76,2.76"/><path class="cls-4" d="M32.7,13.86c1.84,0,3.34,1.49,3.34,3.34h.44c0-2.09-1.69-3.78-3.78-3.78s-3.78,1.69-3.78,3.78h.44c0-1.84,1.5-3.34,3.34-3.34"/><path class="cls-1" d="M32.7,13.86c1.84,0,3.34,1.49,3.34,3.34h.44c0-2.09-1.69-3.78-3.78-3.78s-3.78,1.69-3.78,3.78h.44c0-1.84,1.5-3.34,3.34-3.34Z"/></svg>