<?xml version="1.0" encoding="UTF-8"?><svg id="Capa_1" xmlns="http://www.w3.org/2000/svg" width="42.47" height="15.37" viewBox="0 0 42.47 15.37"><defs><style>.cls-1{fill:none;stroke:#1d1d1b;stroke-width:.3px;}.cls-2{fill:#e30613;}.cls-2,.cls-3,.cls-4{stroke-width:0px;}.cls-3{fill:#706f6f;}.cls-4{fill:#fff;}</style></defs><polyline class="cls-4" points="3.4 11.58 14.73 11.58 21.6 10.66 27.83 11.42 37.59 11.42"/><polyline class="cls-1" points="3.4 11.58 14.73 11.58 21.6 10.66 27.83 11.42 37.59 11.42"/><path class="cls-4" d="M35.99,11.83s-.42-2.74-3.21-2.74-3.48,2.57-3.48,2.57l6.69.17Z"/><path class="cls-4" d="M11.63,11.81s-.5-2.73-3.29-2.64-3.4,2.68-3.4,2.68l6.69-.05Z"/><polygon class="cls-4" points="22.68 8.93 22.98 8.93 22.98 11.57 22.66 11.57 22.66 8.98 22.68 8.93"/><polygon class="cls-1" points="22.68 8.93 22.98 8.93 22.98 11.57 22.66 11.57 22.66 8.98 22.68 8.93"/><path class="cls-4" d="M8.52,9.08c-3.4,0-3.54,3.45-3.54,3.45h-2.71s-.56,0-.56-.37c0-.27.22-.49.22-.49l.04-.18-.48-1.48v-.8s0-2.51,0-2.51c0-.43.54-.63.54-.63l.64-.22.72-.2.79-.19.85-.18.84-.15.82-.12,1.41-.2,3.09-.33.28.08.4.07.37.06h.44s.33-.01.33-.01l.22-.09,3.45-3.72-1-.03s.19-.15.25-.2c.22-.18.85-.28,1.21-.29.36,0,.91-.02.91-.02h1.88s.08,0,.75.02c.68.02,1.17.09,1.22.41.05.31.57,3.75.57,3.75l.12.34.06.28.02.28.02.3v.65s-.02,5.37-.02,5.37l-.02.24-.12.17-.24.04h-10.42s-.47-3.1-3.33-3.1"/><path class="cls-1" d="M8.52,9.08c-3.4,0-3.54,3.45-3.54,3.45h-2.71s-.56,0-.56-.37c0-.27.22-.49.22-.49l.04-.18-.48-1.48v-.8s0-2.51,0-2.51c0-.43.54-.63.54-.63l.64-.22.72-.2.79-.19.85-.18.84-.15.82-.12,1.41-.2,3.09-.33.28.08.4.07.37.06h.44s.33-.01.33-.01l.22-.09,3.45-3.72-1-.03s.19-.15.25-.2c.22-.18.85-.28,1.21-.29.36,0,.91-.02.91-.02h1.88s.08,0,.75.02c.68.02,1.17.09,1.22.41.05.31.57,3.75.57,3.75l.12.34.06.28.02.28.02.3v.65s-.02,5.37-.02,5.37l-.02.24-.12.17-.24.04h-10.42s-.47-3.1-3.33-3.1Z"/><path class="cls-4" d="M36.05,11.52l5.01-.13.3-.14.21-.29.16-2.02.14-.28v-.25l.06-2.39v-.27l-.03-.2-.04-.18-.06-.19-.1-.17-.13-.14-.14-.08-.14-.04-.12-.02h-18.06l-.09.06-.04.12v7.03l.05.16.15.07.11.02h.1s5.81.01,5.81.01c0,0,.52-3.1,3.59-3.1,2.56,0,3.26,2.43,3.26,2.43"/><path class="cls-1" d="M36.05,11.52l5.01-.13.3-.14.21-.29.16-2.02.14-.28v-.25l.06-2.39v-.27l-.03-.2-.04-.18-.06-.19-.1-.17-.13-.14-.14-.08-.14-.04-.12-.02h-18.06l-.09.06-.04.12v7.03l.05.16.15.07.11.02h.1s5.81.01,5.81.01c0,0,.52-3.1,3.59-3.1,2.56,0,3.26,2.43,3.26,2.43Z"/><polygon class="cls-4" points="23.24 5.74 40.84 5.74 40.84 6.27 23.24 6.27 23.2 5.78 23.24 5.74"/><polygon class="cls-1" points="23.24 5.74 40.84 5.74 40.84 6.27 23.24 6.27 23.2 5.78 23.24 5.74"/><polyline class="cls-4" points="1.9 6.72 1.95 6.58 2.04 6.47 2.22 6.37 2.46 6.28 2.91 6.15 3.53 6.01 4.3 5.85 5.19 5.71 6.18 5.58 7.2 5.45 8.38 5.33 9.41 5.23 10.16 5.18 10.86 5.11 11.52 5.07 12.17 5 12.55 4.93 12.8 4.85 12.99 4.75 13.18 4.62"/><polyline class="cls-1" points="1.9 6.72 1.95 6.58 2.04 6.47 2.22 6.37 2.46 6.28 2.91 6.15 3.53 6.01 4.3 5.85 5.19 5.71 6.18 5.58 7.2 5.45 8.38 5.33 9.41 5.23 10.16 5.18 10.86 5.11 11.52 5.07 12.17 5 12.55 4.93 12.8 4.85 12.99 4.75 13.18 4.62"/><polygon class="cls-4" points="11.18 4.47 15.65 .85 16.63 .88 13.24 4.55 13.13 4.64 12.98 4.68 12.77 4.7 12.53 4.7 12.22 4.69 11.96 4.66 11.66 4.6 11.4 4.55 11.18 4.47"/><polygon class="cls-1" points="11.18 4.47 15.65 .85 16.63 .88 13.24 4.55 13.13 4.64 12.98 4.68 12.77 4.7 12.53 4.7 12.22 4.69 11.96 4.66 11.66 4.6 11.4 4.55 11.18 4.47"/><path class="cls-4" d="M16.9.97c-.1.12-3.5,3.94-3.5,3.94l-.13.1-.19.1-.22.09-.28.07-.11.8-.04.75.02.88.04.77.09.79.19,1.09.4,1.17h8.12l.05-6.27-.12-.4s-.14-3.27-.16-3.56c-.01-.29-.27-.53-.7-.54-.43,0-1.96-.02-1.96-.02,0,0-.94.04-1.12.04-.17,0-.31.06-.41.18"/><path class="cls-1" d="M16.9.97c-.1.12-3.5,3.94-3.5,3.94l-.13.1-.19.1-.22.09-.28.07-.11.8-.04.75.02.88.04.77.09.79.19,1.09.4,1.17h8.12l.05-6.27-.12-.4s-.14-3.27-.16-3.56c-.01-.29-.27-.53-.7-.54-.43,0-1.96-.02-1.96-.02,0,0-.94.04-1.12.04-.17,0-.31.06-.41.18Z"/><path class="cls-4" d="M1.46,9.61s-.13-.02-.59-.02c-.47,0-.58.16-.58.24s.01.49.01.61.22.17.22.17c0,0,.15.37.25.56.1.19.26.36.52.39.26.03,2.27.16,2.27.16l.1-.02.08-.15-.17-1.61-.03-.13-.09-.11-.11-.06h-1.87Z"/><path class="cls-1" d="M1.46,9.61s-.13-.02-.59-.02c-.47,0-.58.16-.58.24s.01.49.01.61.22.17.22.17c0,0,.15.37.25.56.1.19.26.36.52.39.26.03,2.27.16,2.27.16l.1-.02.08-.15-.17-1.61-.03-.13-.09-.11-.11-.06h-1.87Z"/><polygon class="cls-4" points="1.49 6.59 1.33 6.68 1.25 6.82 1.25 8.89 1.28 9 1.39 9.16 1.52 9.24 1.66 9.26 1.77 9.27 1.88 9.29 3.03 9.29 3.13 9.29 3.27 9.27 3.36 9.26 3.47 9.24 3.58 9.16 3.63 8.96 3.61 8.78 3.24 7.11 3.19 6.99 3.11 6.85 2.99 6.78 2.83 6.73 1.69 6.73 1.6 6.72 1.49 6.59"/><polygon class="cls-1" points="1.49 6.59 1.33 6.68 1.25 6.82 1.25 8.89 1.28 9 1.39 9.16 1.52 9.24 1.66 9.26 1.77 9.27 1.88 9.29 3.03 9.29 3.13 9.29 3.27 9.27 3.36 9.26 3.47 9.24 3.58 9.16 3.63 8.96 3.61 8.78 3.24 7.11 3.19 6.99 3.11 6.85 2.99 6.78 2.83 6.73 1.69 6.73 1.6 6.72 1.49 6.59"/><polygon class="cls-4" points="41.39 5.76 41.31 5.78 41.19 5.85 41.12 8.26 41.16 8.34 41.22 8.43 41.88 8.45 41.89 8.3 41.92 5.97 41.92 5.76 41.81 5.76 41.39 5.76"/><polygon class="cls-1" points="41.39 5.76 41.31 5.78 41.19 5.85 41.12 8.26 41.16 8.34 41.22 8.43 41.88 8.45 41.89 8.3 41.92 5.97 41.92 5.76 41.81 5.76 41.39 5.76"/><path class="cls-4" d="M42.04,9.33c.12,0,.15.19.15.26v.46c0,.15-.2.23-.27.4-.07.17-.18.47-.25.63-.07.16-.22.4-.52.43-.3.02-2.12.19-2.26.2-.14.01-.2-.05-.18-.2.01-.15.14-1.61.16-1.83.02-.22.07-.35.22-.35s2.83.01,2.95.01"/><path class="cls-1" d="M42.04,9.33c.12,0,.15.19.15.26v.46c0,.15-.2.23-.27.4-.07.17-.18.47-.25.63-.07.16-.22.4-.52.43-.3.02-2.12.19-2.26.2-.14.01-.2-.05-.18-.2.01-.15.14-1.61.16-1.83.02-.22.07-.35.22-.35s2.83.01,2.95.01Z"/><path class="cls-4" d="M14.25,4.77l.12-.21,2.67-3.17.13-.16.11-.1.18-.05h2.78c.38,0,.51.38.51.66v3.18l-.09.05h-6.11l-.25-.02-.04-.18Z"/><path class="cls-1" d="M14.25,4.77l.12-.21,2.67-3.17.13-.16.11-.1.18-.05h2.78c.38,0,.51.38.51.66v3.18l-.09.05h-6.11l-.25-.02-.04-.18Z"/><path class="cls-2" d="M11.11,12.54c0,1.48-1.2,2.68-2.68,2.68s-2.68-1.2-2.68-2.68,1.2-2.68,2.68-2.68,2.68,1.2,2.68,2.68"/><path class="cls-4" d="M8.43,9.29c1.79,0,3.24,1.45,3.24,3.24h.43c0-2.03-1.65-3.68-3.68-3.68s-3.68,1.65-3.68,3.68h.43c0-1.79,1.45-3.24,3.25-3.24"/><path class="cls-1" d="M8.43,9.29c1.79,0,3.24,1.45,3.24,3.24h.43c0-2.03-1.65-3.68-3.68-3.68s-3.68,1.65-3.68,3.68h.43c0-1.79,1.45-3.24,3.25-3.24Z"/><path class="cls-3" d="M35.37,12.54c0,1.48-1.2,2.68-2.68,2.68s-2.68-1.2-2.68-2.68,1.2-2.68,2.68-2.68,2.68,1.2,2.68,2.68"/><path class="cls-4" d="M32.69,9.29c1.79,0,3.24,1.45,3.24,3.24h.43c0-2.03-1.65-3.68-3.68-3.68s-3.68,1.65-3.68,3.68h.43c0-1.79,1.45-3.24,3.25-3.24"/><path class="cls-1" d="M32.69,9.29c1.79,0,3.24,1.45,3.24,3.24h.43c0-2.03-1.65-3.68-3.68-3.68s-3.68,1.65-3.68,3.68h.43c0-1.79,1.45-3.24,3.25-3.24Z"/></svg>