<?xml version="1.0" encoding="UTF-8"?><svg id="Capa_1" xmlns="http://www.w3.org/2000/svg" width="75.62" height="24.22" viewBox="0 0 75.62 24.22"><defs><style>.cls-1{fill:#e30613;}.cls-1,.cls-2,.cls-3{stroke-width:0px;}.cls-2{fill:#706f6f;}.cls-3{fill:#fff;}.cls-4{fill:none;stroke:#1d1d1b;stroke-width:.3px;}</style></defs><polyline class="cls-3" points="19.98 20.44 31.31 20.44 38.18 19.51 44.4 20.27 54.17 20.27"/><polyline class="cls-4" points="19.98 20.44 31.31 20.44 38.18 19.51 44.4 20.27 54.17 20.27"/><path class="cls-3" d="M52.56,20.69s-.42-2.74-3.21-2.74-3.48,2.57-3.48,2.57l6.69.17Z"/><path class="cls-3" d="M28.16,20.69s-.42-2.74-3.21-2.74-3.48,2.57-3.48,2.57l6.69.17Z"/><polygon class="cls-3" points="39.25 17.78 39.55 17.78 39.55 20.43 39.24 20.43 39.24 17.83 39.25 17.78"/><polygon class="cls-4" points="39.25 17.78 39.55 17.78 39.55 20.43 39.24 20.43 39.24 17.83 39.25 17.78"/><path class="cls-3" d="M25.1,17.94c-3.4,0-3.54,3.45-3.54,3.45h-2.71s-.56,0-.56-.37c0-.27.22-.49.22-.49l.04-.18-.48-1.48v-.8s0-2.51,0-2.51c0-.43.54-.63.54-.63l.64-.22.72-.2.79-.19.85-.18.84-.15.82-.12,1.41-.2,3.09-.33.28.08.4.07.37.06h.44s.33-.01.33-.01l.22-.09,3.45-3.72-1-.03s.19-.15.25-.2c.22-.18.85-.28,1.21-.29.36,0,.91-.02.91-.02h1.88s.08,0,.75.02c.68.02,1.17.09,1.22.41.05.31.57,3.75.57,3.75l.12.34.06.28.02.28.02.3v.65s-.02,5.37-.02,5.37l-.02.24-.12.17-.24.04h-10.42s-.47-3.1-3.33-3.1"/><path class="cls-4" d="M25.1,17.94c-3.4,0-3.54,3.45-3.54,3.45h-2.71s-.56,0-.56-.37c0-.27.22-.49.22-.49l.04-.18-.48-1.48v-.8s0-2.51,0-2.51c0-.43.54-.63.54-.63l.64-.22.72-.2.79-.19.85-.18.84-.15.82-.12,1.41-.2,3.09-.33.28.08.4.07.37.06h.44s.33-.01.33-.01l.22-.09,3.45-3.72-1-.03s.19-.15.25-.2c.22-.18.85-.28,1.21-.29.36,0,.91-.02.91-.02h1.88s.08,0,.75.02c.68.02,1.17.09,1.22.41.05.31.57,3.75.57,3.75l.12.34.06.28.02.28.02.3v.65s-.02,5.37-.02,5.37l-.02.24-.12.17-.24.04h-10.42s-.47-3.1-3.33-3.1Z"/><path class="cls-3" d="M52.62,20.38l5.01-.13.3-.14.21-.29.16-2.02.14-.28v-.25l.06-2.39v-.27l-.03-.2-.04-.18-.06-.19-.1-.17-.13-.14-.14-.08-.14-.04-.12-.02h-18.06l-.09.06-.04.12v7.03l.05.16.15.07.11.02h.1s5.81.01,5.81.01c0,0,.52-3.1,3.59-3.1,2.56,0,3.26,2.43,3.26,2.43"/><path class="cls-4" d="M52.62,20.38l5.01-.13.3-.14.21-.29.16-2.02.14-.28v-.25l.06-2.39v-.27l-.03-.2-.04-.18-.06-.19-.1-.17-.13-.14-.14-.08-.14-.04-.12-.02h-18.06l-.09.06-.04.12v7.03l.05.16.15.07.11.02h.1s5.81.01,5.81.01c0,0,.52-3.1,3.59-3.1,2.56,0,3.26,2.43,3.26,2.43Z"/><polygon class="cls-3" points="39.82 14.6 57.41 14.6 57.41 15.13 39.82 15.13 39.78 14.64 39.82 14.6"/><polygon class="cls-4" points="39.82 14.6 57.41 14.6 57.41 15.13 39.82 15.13 39.78 14.64 39.82 14.6"/><polyline class="cls-3" points="18.47 15.57 18.52 15.43 18.62 15.33 18.8 15.22 19.03 15.13 19.49 15 20.1 14.86 20.87 14.71 21.76 14.57 22.75 14.43 23.77 14.31 24.95 14.19 25.99 14.08 26.74 14.04 27.44 13.96 28.1 13.93 28.74 13.86 29.13 13.78 29.38 13.7 29.57 13.6 29.76 13.47"/><polyline class="cls-4" points="18.47 15.57 18.52 15.43 18.62 15.33 18.8 15.22 19.03 15.13 19.49 15 20.1 14.86 20.87 14.71 21.76 14.57 22.75 14.43 23.77 14.31 24.95 14.19 25.99 14.08 26.74 14.04 27.44 13.96 28.1 13.93 28.74 13.86 29.13 13.78 29.38 13.7 29.57 13.6 29.76 13.47"/><polygon class="cls-3" points="27.75 13.33 32.22 9.7 33.21 9.73 29.82 13.41 29.7 13.49 29.55 13.54 29.34 13.55 29.1 13.55 28.79 13.55 28.54 13.52 28.24 13.46 27.97 13.41 27.75 13.33"/><polygon class="cls-4" points="27.75 13.33 32.22 9.7 33.21 9.73 29.82 13.41 29.7 13.49 29.55 13.54 29.34 13.55 29.1 13.55 28.79 13.55 28.54 13.52 28.24 13.46 27.97 13.41 27.75 13.33"/><path class="cls-3" d="M33.48,9.82c-.1.12-3.5,3.94-3.5,3.94l-.13.1-.19.1-.22.09-.28.07-.11.8-.04.75.02.88.04.77.09.79.19,1.09.4,1.17h8.12l.05-6.27-.12-.4s-.14-3.27-.16-3.56c-.01-.29-.27-.53-.7-.54-.43,0-1.96-.02-1.96-.02,0,0-.94.04-1.12.04-.17,0-.31.06-.41.18"/><path class="cls-4" d="M33.48,9.82c-.1.12-3.5,3.94-3.5,3.94l-.13.1-.19.1-.22.09-.28.07-.11.8-.04.75.02.88.04.77.09.79.19,1.09.4,1.17h8.12l.05-6.27-.12-.4s-.14-3.27-.16-3.56c-.01-.29-.27-.53-.7-.54-.43,0-1.96-.02-1.96-.02,0,0-.94.04-1.12.04-.17,0-.31.06-.41.18Z"/><path class="cls-3" d="M18.03,18.47s-.13-.02-.59-.02c-.47,0-.58.16-.58.24s.01.49.01.61.22.17.22.17c0,0,.15.37.25.56.1.19.26.36.52.39.26.03,2.27.16,2.27.16l.1-.02.08-.15-.17-1.61-.03-.13-.09-.11-.11-.06h-1.87Z"/><path class="cls-4" d="M18.03,18.47s-.13-.02-.59-.02c-.47,0-.58.16-.58.24s.01.49.01.61.22.17.22.17c0,0,.15.37.25.56.1.19.26.36.52.39.26.03,2.27.16,2.27.16l.1-.02.08-.15-.17-1.61-.03-.13-.09-.11-.11-.06h-1.87Z"/><polygon class="cls-3" points="18.06 15.45 17.9 15.53 17.83 15.68 17.83 17.75 17.85 17.85 17.96 18.01 18.09 18.09 18.23 18.12 18.35 18.13 18.46 18.14 19.61 18.14 19.71 18.14 19.84 18.13 19.94 18.12 20.04 18.09 20.15 18.01 20.2 17.82 20.19 17.63 19.82 15.97 19.77 15.84 19.69 15.7 19.57 15.64 19.4 15.58 18.26 15.58 18.17 15.57 18.06 15.45"/><polygon class="cls-4" points="18.06 15.45 17.9 15.53 17.83 15.68 17.83 17.75 17.85 17.85 17.96 18.01 18.09 18.09 18.23 18.12 18.35 18.13 18.46 18.14 19.61 18.14 19.71 18.14 19.84 18.13 19.94 18.12 20.04 18.09 20.15 18.01 20.2 17.82 20.19 17.63 19.82 15.97 19.77 15.84 19.69 15.7 19.57 15.64 19.4 15.58 18.26 15.58 18.17 15.57 18.06 15.45"/><polygon class="cls-3" points="57.96 14.61 57.88 14.64 57.77 14.71 57.7 17.12 57.73 17.2 57.79 17.29 58.45 17.3 58.47 17.16 58.5 14.82 58.5 14.61 58.38 14.61 57.96 14.61"/><polygon class="cls-4" points="57.96 14.61 57.88 14.64 57.77 14.71 57.7 17.12 57.73 17.2 57.79 17.29 58.45 17.3 58.47 17.16 58.5 14.82 58.5 14.61 58.38 14.61 57.96 14.61"/><path class="cls-3" d="M58.61,18.19c.12,0,.15.19.15.26v.46c0,.15-.2.23-.27.4-.07.17-.18.47-.25.63-.07.16-.22.4-.52.43-.3.02-2.12.19-2.26.2-.14.01-.2-.05-.18-.2.01-.15.14-1.61.16-1.83.02-.22.07-.35.22-.35s2.83.01,2.95.01"/><path class="cls-4" d="M58.61,18.19c.12,0,.15.19.15.26v.46c0,.15-.2.23-.27.4-.07.17-.18.47-.25.63-.07.16-.22.4-.52.43-.3.02-2.12.19-2.26.2-.14.01-.2-.05-.18-.2.01-.15.14-1.61.16-1.83.02-.22.07-.35.22-.35s2.83.01,2.95.01Z"/><path class="cls-3" d="M30.82,13.62l.12-.21,2.67-3.17.13-.16.11-.1.18-.05h2.78c.38,0,.51.38.51.66v3.18l-.09.05h-6.11l-.25-.02-.04-.18Z"/><path class="cls-4" d="M30.82,13.62l.12-.21,2.67-3.17.13-.16.11-.1.18-.05h2.78c.38,0,.51.38.51.66v3.18l-.09.05h-6.11l-.25-.02-.04-.18Z"/><path class="cls-1" d="M27.69,21.39c0,1.48-1.2,2.68-2.68,2.68s-2.68-1.2-2.68-2.68,1.2-2.68,2.68-2.68,2.68,1.2,2.68,2.68"/><path class="cls-3" d="M25.01,18.15c1.79,0,3.24,1.45,3.24,3.24h.43c0-2.03-1.65-3.68-3.68-3.68s-3.68,1.65-3.68,3.68h.43c0-1.79,1.45-3.24,3.25-3.24"/><path class="cls-4" d="M25.01,18.15c1.79,0,3.24,1.45,3.24,3.24h.43c0-2.03-1.65-3.68-3.68-3.68s-3.68,1.65-3.68,3.68h.43c0-1.79,1.45-3.24,3.25-3.24Z"/><path class="cls-2" d="M51.94,21.39c0,1.48-1.2,2.68-2.68,2.68s-2.68-1.2-2.68-2.68,1.2-2.68,2.68-2.68,2.68,1.2,2.68,2.68"/><path class="cls-3" d="M49.26,18.15c1.79,0,3.24,1.45,3.24,3.24h.43c0-2.03-1.65-3.68-3.68-3.68s-3.68,1.65-3.68,3.68h.43c0-1.79,1.45-3.24,3.25-3.24"/><path class="cls-4" d="M49.26,18.15c1.79,0,3.24,1.45,3.24,3.24h.43c0-2.03-1.65-3.68-3.68-3.68s-3.68,1.65-3.68,3.68h.43c0-1.79,1.45-3.24,3.25-3.24Z"/></svg>