<?xml version="1.0" encoding="UTF-8"?><svg id="Capa_1" xmlns="http://www.w3.org/2000/svg" width="75.62" height="24.22" viewBox="0 0 75.62 24.22"><defs><style>.cls-1{fill:#e30613;}.cls-1,.cls-2,.cls-3{stroke-width:0px;}.cls-2{fill:#706f6f;}.cls-3{fill:#fff;}.cls-4{fill:none;stroke:#1d1d1b;stroke-width:.3px;}</style></defs><polygon class="cls-3" points="59.68 19.94 60.1 19.93 60.09 16.01 21.31 16.03 21.33 20.42 38.18 20.42 38.18 19.51 46.86 19.51 47.45 20.06 56.06 20.07 56.09 18.95 58.77 18.95 59.68 19.94"/><polygon class="cls-4" points="59.68 19.94 60.1 19.93 60.09 16.01 21.31 16.03 21.33 20.42 38.18 20.42 38.18 19.51 46.86 19.51 47.45 20.06 56.06 20.07 56.09 18.95 58.77 18.95 59.68 19.94"/><path class="cls-3" d="M51.26,20.52s-.43-2.82-3.3-2.82-3.58,2.64-3.58,2.64l6.88.18Z"/><path class="cls-3" d="M30.16,20.76s-.43-2.82-3.3-2.82-3.58,2.64-3.58,2.64l6.88.18Z"/><polygon class="cls-3" points="15.6 16.32 15.71 16.2 17.27 16.2 17.27 17.84 15.71 17.84 15.6 17.76 15.6 16.32"/><polygon class="cls-4" points="15.6 16.32 15.71 16.2 17.27 16.2 17.27 17.84 15.71 17.84 15.6 17.76 15.6 16.32"/><path class="cls-3" d="M15.93,13.98l1.35.32v4.66l6.2.18,1.65-2,6.1-.19V6.51c0-.39-.1-.65-.52-.65s-6.42-.01-6.42-.01h-.46s-.38.05-.38.05l-.44.11-.33.08-.36.11-.26.14-.21.11-.2.2.04.03-.07.09-5.63,5.6-.04,1.6Z"/><path class="cls-4" d="M15.93,13.98l1.35.32v4.66l6.2.18,1.65-2,6.1-.19V6.51c0-.39-.1-.65-.52-.65s-6.42-.01-6.42-.01h-.46s-.38.05-.38.05l-.44.11-.33.08-.36.11-.26.14-.21.11-.2.2.04.03-.07.09-5.63,5.6-.04,1.6Z"/><polygon class="cls-3" points="17.23 16.18 15.71 16.18 15.6 15.91 15.6 13.49 15.71 13.18 17.23 13.18 17.23 16.18"/><polygon class="cls-4" points="17.23 16.18 15.71 16.18 15.6 15.91 15.6 13.49 15.71 13.18 17.23 13.18 17.23 16.18"/><polygon class="cls-3" points="15.88 12.44 17.27 12.44 17.11 13.17 15.71 13.18 15.88 12.44"/><polygon class="cls-4" points="15.88 12.44 17.27 12.44 17.11 13.17 15.71 13.18 15.88 12.44"/><path class="cls-3" d="M16.09,18.47h1.19s0,1.99,0,1.99l.84.34h4.2l.32-.34.84-.07s.62-2.61,3.5-2.61,3.34,2.65,3.34,2.65h.89v-4.47s-1.22,0-1.22,0h-7.32v2.23h-6.56v.29Z"/><path class="cls-4" d="M16.09,18.47h1.19s0,1.99,0,1.99l.84.34h4.2l.32-.34.84-.07s.62-2.61,3.5-2.61,3.34,2.65,3.34,2.65h.89v-4.47s-1.22,0-1.22,0h-7.32v2.23h-6.56v.29Z"/><path class="cls-3" d="M29.78,16.3h-3.15c-2.1,0-3.2,1.88-3.2,1.88h-6.19v-5l5.48-5.47s.58-.54.98-.54h6.11l-.02,9.12Z"/><path class="cls-4" d="M29.78,16.3h-3.15c-2.1,0-3.2,1.88-3.2,1.88h-6.19v-5l5.48-5.47s.58-.54.98-.54h6.11l-.02,9.12Z"/><polygon class="cls-3" points="15.46 18.32 15.83 18.1 17.22 18.1 17.22 19.84 16.04 19.84 15.46 19.22 15.46 18.32"/><polygon class="cls-4" points="15.46 18.32 15.83 18.1 17.22 18.1 17.22 19.84 16.04 19.84 15.46 19.22 15.46 18.32"/><path class="cls-3" d="M20.34,12.01l-.12-.04-.1-.08-.1-.08-.03-.12-.04-.1v-.13l3.42-3.44s.29-.32.51-.32h5.27s.09.04.09.04l.08.1v.22s-.01,3.56-.01,3.56v.12s0,.08,0,.08l-.07.07-.1.09-.16.02h-8.43s-.2,0-.2,0Z"/><path class="cls-4" d="M20.34,12.01l-.12-.04-.1-.08-.1-.08-.03-.12-.04-.1v-.13l3.42-3.44s.29-.32.51-.32h5.27s.09.04.09.04l.08.1v.22s-.01,3.56-.01,3.56v.12s0,.08,0,.08l-.07.07-.1.09-.16.02h-8.43s-.2,0-.2,0Z"/><line class="cls-4" x1="24.41" y1="7.7" x2="24.41" y2="11.95"/><polygon class="cls-3" points="15.95 12.44 17.29 12.44 22.27 7.26 22.27 7.12 22.27 7.02 22.23 6.9 22.16 6.82 22.08 6.77 21.96 6.7 21.84 6.69 21.72 6.69 21.64 6.69 15.95 12.44"/><polygon class="cls-4" points="15.95 12.44 17.29 12.44 22.27 7.26 22.27 7.12 22.27 7.02 22.23 6.9 22.16 6.82 22.08 6.77 21.96 6.7 21.84 6.69 21.72 6.69 21.64 6.69 15.95 12.44"/><rect class="cls-3" x="31.64" y="4.28" width=".5" height="12.24"/><rect class="cls-4" x="31.64" y="4.28" width=".5" height="12.24"/><polygon class="cls-3" points="59.87 19.06 58.69 17.66 34.14 17.66 34.14 18.63 31.64 18.63 31.64 12.91 60.15 12.91 60.15 19.06 59.87 19.06"/><polygon class="cls-4" points="59.87 19.06 58.69 17.66 34.14 17.66 34.14 18.63 31.64 18.63 31.64 12.91 60.15 12.91 60.15 19.06 59.87 19.06"/><polygon class="cls-3" points="32.55 16.66 32.55 16.66 47.33 16.66 47.33 13.64 32.55 13.64 32.55 16.66"/><polygon class="cls-4" points="32.55 16.66 32.55 16.66 47.33 16.66 47.33 13.64 32.55 13.64 32.55 16.66"/><rect class="cls-3" x="48.79" y="13.64" width="9.91" height="3.02"/><rect class="cls-4" x="48.79" y="13.64" width="9.91" height="3.02"/><path class="cls-1" d="M29.58,21.29c0,1.52-1.23,2.76-2.76,2.76s-2.76-1.23-2.76-2.76,1.23-2.76,2.76-2.76,2.76,1.23,2.76,2.76"/><path class="cls-3" d="M26.82,17.95c1.84,0,3.34,1.49,3.34,3.34h.44c0-2.09-1.69-3.78-3.78-3.78s-3.78,1.69-3.78,3.78h.44c0-1.84,1.49-3.34,3.34-3.34"/><path class="cls-4" d="M26.82,17.95c1.84,0,3.34,1.49,3.34,3.34h.44c0-2.09-1.69-3.78-3.78-3.78s-3.78,1.69-3.78,3.78h.44c0-1.84,1.49-3.34,3.34-3.34Z"/><path class="cls-2" d="M50.6,21.29c0,1.52-1.23,2.76-2.76,2.76s-2.76-1.23-2.76-2.76,1.23-2.76,2.76-2.76,2.76,1.23,2.76,2.76"/><path class="cls-3" d="M47.84,17.95c1.84,0,3.34,1.49,3.34,3.34h.44c0-2.09-1.69-3.78-3.78-3.78s-3.78,1.69-3.78,3.78h.44c0-1.84,1.5-3.34,3.34-3.34"/><path class="cls-4" d="M47.84,17.95c1.84,0,3.34,1.49,3.34,3.34h.44c0-2.09-1.69-3.78-3.78-3.78s-3.78,1.69-3.78,3.78h.44c0-1.84,1.5-3.34,3.34-3.34Z"/></svg>