<?xml version="1.0" encoding="UTF-8"?>
<svg id="Capa_1" data-name="Capa 1" xmlns="http://www.w3.org/2000/svg" viewBox="0 0 744.33 138.11">
  <defs>
    <style>
      .cls-1 {
        fill: #fff;
      }

      .cls-1, .cls-2 {
        stroke-width: 0px;
      }

      .cls-2 {
        fill: #e1251b;
      }
    </style>
  </defs>
  <g>
    <path class="cls-1" d="M352.88,71.21h-40.45c-3.09,0-4.31-1.57-3.65-4.71l5.99-28.62h-13.36l-6.46,30.86c-.69,3.41-.07,6.53,1.9,9.35,1.98,2.82,5.68,4.23,11.12,4.23h55.95l9.28-44.44h-13.34l-6.97,33.33h-.01Z"/>
    <path class="cls-1" d="M226.49,37.88c-6.93,0-12.63,1.96-17.09,5.88-4.47,3.92-7.42,9.36-8.88,16.34-1.47,6.99-.77,12.43,2.03,16.36,2.87,3.91,7.74,5.87,14.66,5.87h48.21l-.2.89c-.44,2.18-1.1,3.76-1.92,4.71-1.07,1.23-2.63,1.84-4.71,1.84l-15.37-.02-44-.06-2.19,10.39,46.19.12,15.57.04c4.76,0,8.96-1.47,12.61-4.39,3.64-2.94,6.01-7.02,7.11-12.23l9.53-45.64-44.81-.06-16.73-.03h0ZM272.35,49.07l-4.58,21.99-24.55.08-21.94.07c-3.13,0-5.26-1.11-6.33-3.36-.98-1.91-1.14-4.49-.45-7.75.68-3.24,1.9-5.83,3.7-7.74,2.06-2.24,4.62-3.37,7.72-3.37l17.29.03,29.13.04h0Z"/>
    <path class="cls-1" d="M441,37.95v-.06h-33.45c-6.93,0-12.62,1.96-17.09,5.88s-7.43,9.36-8.88,16.34c-1.46,6.99-.8,12.43,2.04,16.36,2.84,3.91,7.72,5.87,14.65,5.87h48.2l2.19-10.47h-46.44c-2.45,0-4.33-.69-5.63-2.08-.72-.69-1.38-2.19-1.96-4.48l-.03-.24h55.47l2.11-9.99h-.01l.74-3.58c.72-3.46.11-6.53-1.83-9.2-2.03-2.74-5.4-4.18-10.07-4.36h0ZM439.16,52.83l-.46,2.25h-42l.11-.17c1.67-2.34,2.93-3.83,3.82-4.48,1.87-1.38,4.05-2.07,6.5-2.07h28.46c1.35.02,2.34.33,2.87.96.78.85,1.02,2.02.7,3.52h0Z"/>
    <polygon class="cls-1" points="610.51 82.33 623.85 82.33 633.12 37.88 619.79 37.88 610.51 82.33"/>
    <path class="cls-1" d="M701.48,37.88h-54.99l-9.29,44.44h13.35l6.97-33.34h39.48c3.1,0,4.33,1.56,3.69,4.64l-6,28.69h13.35l6.44-30.84c.74-3.54.12-6.63-1.81-9.3-2.14-2.87-5.85-4.31-11.19-4.31v.02Z"/>
    <polygon class="cls-1" points="730.98 37.88 721.7 82.33 735.05 82.33 744.33 37.88 730.98 37.88"/>
    <path class="cls-1" d="M592.64,37.72l-48.79.16-9.26,44.44h13.34l6.97-33.34,33.15.08c1.43,0,2.44.34,2.99.97.8.85,1.04,2.03.7,3.51l-.49,2.41h13.34l.98-4.64c.73-3.47.11-6.53-1.83-9.2-2.18-2.92-5.87-4.39-11.08-4.39h-.02Z"/>
    <path class="cls-1" d="M516.69,37.72l-48.79.16-9.26,44.44h13.34l6.98-33.34,33.13.08c1.45,0,2.44.34,3,.97.78.85,1.02,2.03.72,3.51l-.5,2.41h13.34l.98-4.64c.73-3.47.11-6.53-1.84-9.2-2.16-2.92-5.85-4.39-11.08-4.39h-.02Z"/>
  </g>
  <g>
    <path class="cls-2" d="M375.88,107.17v-.05h-18.12c-3.73,0-6.84,1.07-9.24,3.19-2.42,2.12-4.03,5.07-4.82,8.85-.77,3.78-.42,6.73,1.13,8.85,1.52,2.12,4.18,3.18,7.92,3.18h26.09l1.21-5.67h-25.15c-1.32,0-2.34-.37-3.06-1.12-.39-.38-.73-1.19-1.05-2.43l-.02-.12h30.04l1.13-5.41h-.02l.42-1.93c.39-1.88.05-3.54-.98-4.99-1.11-1.48-2.93-2.27-5.47-2.35h-.01ZM374.88,115.22l-.26,1.22h-22.73l.06-.09c.9-1.27,1.6-2.07,2.08-2.42,1-.75,2.18-1.12,3.52-1.12h15.4c.73,0,1.26.18,1.56.51.42.46.53,1.1.37,1.91h0Z"/>
    <path class="cls-2" d="M480.14,107.04l-42.27.04-5.06,24.03h7.34l3.81-18.04,14.33-.02-3.8,18.03h7.35l3.8-18.03h12.01c1.69-.01,2.37.83,2.01,2.5l-3.27,15.52h7.34l3.53-16.69c.4-1.94.08-3.62-.95-5.02-1.19-1.55-3.22-2.33-6.16-2.32h-.01Z"/>
    <path class="cls-2" d="M419.53,125.13l-22.25.02c-1.71,0-2.37-.86-2.01-2.56l3.26-15.47h-7.34l-3.51,16.69c-.39,1.85-.05,3.53,1.05,5.06,1.06,1.53,3.11,2.28,6.09,2.28l30.81-.02,5.06-24.03h-7.34l-3.82,18.02h0Z"/>
    <path class="cls-2" d="M330.01,107.18l-30.28.03-5.06,24.03h7.34l3.8-18.03,21.73-.02c1.71,0,2.37.83,2.02,2.51l-3.27,15.52h7.35l3.51-16.69c.4-1.91.06-3.58-1-5.01-1.18-1.55-3.21-2.33-6.14-2.33h0Z"/>
    <polygon class="cls-2" points="523.65 98.79 516.3 98.8 514.95 105.16 522.3 105.15 523.65 98.79"/>
    <polygon class="cls-2" points="584.64 104.52 591.98 104.51 593.2 98.77 585.85 98.78 584.64 104.52"/>
    <path class="cls-2" d="M676.93,106.04h-14.54l-9.03.02c-2.5,0-4.82.88-6.98,2.62-2.14,1.75-3.48,3.86-4.01,6.34l-1.48,7c-.52,2.45-.06,4.56,1.35,6.32,1.42,1.76,3.39,2.63,5.87,2.63h14.28l9.3-.02c2.51,0,4.85-.89,6.98-2.65,2.16-1.76,3.48-3.87,4.02-6.32l1.47-7c.53-2.48.08-4.59-1.32-6.32-1.42-1.75-3.37-2.62-5.9-2.62h0ZM676.17,115.33l-1.26,5.97c-.23,1-.77,1.87-1.66,2.59-.89.73-1.84,1.08-2.85,1.08h-8.01l-10.82.02c-1.03,0-1.82-.35-2.42-1.08-.58-.71-.76-1.58-.55-2.59l1.26-5.97c.21-1,.77-1.86,1.64-2.58.89-.73,1.84-1.09,2.89-1.09h18.82c1.02-.01,1.82.34,2.4,1.07s.77,1.58.56,2.59h0Z"/>
    <path class="cls-2" d="M601.15,110.1c-2.43,2.12-4.08,5.08-4.87,8.86-.79,3.77-.4,6.72,1.14,8.83,1.56,2.12,4.26,3.17,8.06,3.17l26.17-.02,1.29-6.01-25.22.02c-1.71,0-2.87-.6-3.5-1.81-.53-1.04-.63-2.44-.26-4.2.37-1.76,1.05-3.15,2.05-4.2,1.11-1.21,2.53-1.81,4.22-1.81l25.21-.02,1.27-6.01-26.17.02c-3.82,0-6.95,1.06-9.42,3.18h.03Z"/>
    <path class="cls-2" d="M700.29,112.5l29.7-.03,1.18-5.65-31.12.03c-1.63,0-3.08.31-4.35.95-2.64,1.32-4.29,3.47-4.92,6.45-.47,2.24-.15,4.03,1.02,5.34,1.13,1.31,2.85,1.96,5.13,1.96l23.31.03c1.63,0,2.31.6,2.05,1.81-.27,1.24-1.21,1.87-2.82,1.87l-31-.02-1.18,5.66,32.45-.03c1.65,0,3.1-.31,4.32-.91,2.64-1.27,4.29-3.41,4.92-6.45.48-2.25.15-4.03-1-5.36-1.13-1.33-2.85-1.99-5.14-1.99l-23.3-.02c-1.63,0-2.29-.6-2.05-1.82.27-1.21,1.21-1.81,2.81-1.81h-.01Z"/>
    <path class="cls-2" d="M526.62,107h-14.12l-15.2.02-1.21,5.66,16.41-.02h11.14c.84,0,1.47.04,1.85.16,1.26.37,1.71,1.45,1.34,3.24l-.05.22h-14.28l-11.14.02c-2.37,0-4.4.64-6.06,1.92-1.66,1.29-2.74,3.1-3.22,5.43-.5,2.34-.18,4.14.9,5.44,1.11,1.3,2.87,1.94,5.29,1.94l14.24-.02,18.52-.02,3.08-14.66c.35-1.66.52-2.97.44-3.88-.13-1.25-.61-2.32-1.48-3.24-1.39-1.49-3.51-2.24-6.43-2.24l-.02.03ZM524.86,125.38h-12.37l-11.11.02c-1.56,0-2.21-.61-1.95-1.82.24-1.24,1.14-1.86,2.71-1.86h10.35l13.14-.02-.77,3.68Z"/>
    <path class="cls-2" d="M557.57,97.37h-7.35l-2.03,9.61h-4.4l-1.19,5.67h4.4l-2.37,11.14c-.26,1.33-.39,2.31-.34,2.95.03.95.32,1.8.92,2.55.89,1.14,2.63,1.72,5.21,1.72l22.18-.02,1.18-5.67-18.69.02c-1.18,0-1.98-.2-2.39-.61-.52-.49-.61-1.39-.34-2.73l1.98-9.37,22.12-.02,1.19-5.67-22.14.02,2.05-9.6h.01Z"/>
    <polygon class="cls-2" points="579.05 130.98 586.4 130.98 591.46 106.94 584.11 106.95 579.05 130.98"/>
  </g>
  <g>
    <path class="cls-2" d="M160.04,25.53c-5.06-2.25-11.19-3.62-18.19-3.9-8.57-.35-17.77.96-26.96,3.58-24.51,7.01-49.06,23.46-61.88,43.18-17.64,27.1-6.4,48.88,25.05,50.16,11.65.47,24.43-1.58,36.83-6.05,6.49-2.34,12.89-5.34,18.94-8.99,9.06-5.28,17.75-11.88,24.3-18.55.25-.18.49-.34.74-.52.35-.31.71-.69,1.06-1.11l-.11.14.14-.17c.1-.12.19-.23.29-.35l.06-.07-.05.06c.69-.9,1.31-1.97,1.76-3.1,0-.02.02-.03.03-.05l.12-.33s0-.05.02-.07c.07-.21.13-.42.19-.64h0c.04-.15.07-.29.11-.42v-.04c.03-.13.05-.26.07-.39,0-.03,0-.06.02-.09,0-.06,0-.12,0-.17.07-.57.09-1.14,0-1.69v-.07c-.03-.14-.07-.28-.12-.42-.14-.53-.35-1.04-.68-1.51,0-.01-.02-.02-.03-.04-.09-.13-.21-.24-.31-.36-.24-.28-.53-.53-.86-.78-.08-.06-.16-.13-.25-.19l-.03-.02c-.1-.06-.2-.12-.3-.18l-.05-.04c-.21-.11-.42-.2-.65-.3-.25-.11-.51-.21-.8-.31-.26-.09-.54-.18-.84-.25-.06-.02-.12-.03-.18-.05-.08-.02-.14-.04-.23-.06-.03,0-.06-.01-.08-.02-.57-.11-1.17-.21-1.83-.27-.41-.04-.86-.08-1.34-.1h-.03c-.26-.02-.53-.02-.8-.03-.2,0-.37-.02-.57-.02h-.03c-.29,0-.6,0-.91-.01h-.58c-.44,0-.89.01-1.36.03h-.1c-.7.03-1.45.07-2.23.13-.24.02-.48.04-.72.06-.59.05-1.21.12-1.85.19-.39.04-.78.09-1.18.14-.55.07-1.14.16-1.73.25-.48.07-.95.14-1.45.22-1.07.18-2.19.37-3.37.6-1.96.38-3.88.83-5.75,1.31-.05.01-.1.03-.15.04-.86.22-1.7.45-2.53.69-.23.06-.44.13-.67.2-.63.18-1.25.37-1.86.56-.43.13-.85.27-1.28.41-.37.12-.74.24-1.1.36-.59.2-1.16.39-1.72.59-.17.06-.34.12-.51.18-.68.24-1.34.48-1.98.72-.04.01-.08.03-.12.04-.69.26-1.36.51-2.01.77h0c-5.84,2.29-9.61,4.24-9.61,4.24,45.3-18.05,45.87-1.01,46.66,1.29.03.08.05.19.07.3-2.53,2.12-5.79,4.48-9.44,6.85,2.47-7.95,3.09-24.53-37.29-8.44,4.41-1.05,9.85-2.73,15.58-3.65,20.36-3.31,21.19,16.87-11.7,26.76-11.65,2.13-20.16.14-22.34-.43-15.09-4.89-17.85-16.09-7.47-33.75,7.05-11.98,19.36-22.7,33.06-29.9,11.04-5.8,22.98-9.29,33.81-9.29,4.14,0,7.96.6,11.35,1.68,9.26,2.97,15.31,9.56,16.36,17.52,1.02-11.64-5.06-21.05-16.36-26.07h-.06ZM110.72,106.04s-.03,0-.04.01c-.72.17-.58.14.04-.01Z"/>
    <path class="cls-2" d="M179.11,40.53c-.02.18-.03.35-.05.54.02-.15.06-.31.08-.45,0-.03-.02-.05-.02-.08h0Z"/>
    <path class="cls-2" d="M160.04,6.79C151.48,2.35,140.61-.01,128.56,0,124.02,0,119.44.31,114.88.89,72.8,6.17,30.39,34.66,10.07,69.06c-22.53,38.14-6,69.05,36.9,69.05,27.26,0,49.93-7.56,67.9-17.4,20.74-11.36,35.19-25.76,43.09-35.05-7.51,8.49-21.72,21.79-43.09,30.41-13.06,5.27-28.77,8.78-47.25,8.37-34.99-.78-47.43-26.91-27.8-56.89,15.34-23.48,45.78-42.77,75.06-49.36,8.13-1.83,16.16-2.69,23.78-2.38,7.91.32,15.21,1.69,21.38,4.17,9.91,3.96,16.94,10.75,19.07,20.55,1.73-15.33-5.95-26.96-19.07-33.74h0Z"/>
    <path class="cls-2" d="M179.05,41.06c-.15,1.22-.34,2.46-.63,3.73.28-1.27.47-2.51.63-3.73Z"/>
  </g>
</svg>